<?xml version="1.0" encoding="UTF-8"?>
<svg version="1.1" xmlns="http://www.w3.org/2000/svg" width="400" height="400">
<path d="M0,0 L400,0 L400,400 L0,400 Z " fill="#F2F7FB" transform="translate(0,0)"/>
<path d="M0,0 L35,0 L50,3 L64,7 L81,14 L97,23 L106,30 L111,33 L111,35 L115,37 L123,45 L128,49 L136,59 L143,69 L144,71 L147,70 L155,60 L157,60 L157,58 L159,58 L161,54 L172,44 L185,34 L199,26 L208,22 L218,18 L229,15 L244,13 L258,13 L272,15 L288,20 L300,25 L305,29 L310,32 L318,38 L325,45 L328,48 L333,55 L333,57 L335,57 L345,75 L349,85 L354,108 L356,119 L358,141 L358,183 L356,212 L349,261 L347,275 L345,282 L336,324 L329,359 L327,375 L339,343 L344,326 L346,321 L351,303 L354,295 L367,255 L379,223 L385,207 L390,196 L397,180 L403,168 L411,152 L419,136 L431,113 L441,95 L443,95 L445,89 L455,74 L467,58 L475,48 L483,39 L497,28 L506,22 L523,15 L531,13 L540,12 L560,12 L578,15 L594,21 L599,24 L599,31 L592,57 L587,73 L581,91 L573,115 L561,151 L556,167 L553,177 L545,203 L539,223 L530,255 L525,276 L518,307 L514,327 L509,364 L507,383 L506,407 L506,439 L508,464 L512,484 L517,499 L524,512 L529,518 L536,522 L545,522 L554,517 L563,508 L571,495 L580,477 L586,455 L587,448 L587,421 L583,407 L579,400 L579,398 L577,398 L573,393 L568,390 L564,389 L556,389 L548,391 L548,393 L542,397 L536,405 L531,415 L526,416 L519,413 L517,408 L517,394 L521,383 L522,381 L524,381 L526,376 L531,371 L533,371 L533,369 L543,364 L548,363 L565,363 L571,365 L581,371 L588,378 L589,382 L591,382 L593,386 L593,389 L595,389 L601,406 L603,420 L603,447 L598,471 L590,492 L581,509 L573,520 L567,528 L557,536 L552,548 L550,548 L549,552 L544,559 L531,567 L524,569 L516,570 L500,570 L488,565 L476,557 L469,549 L466,547 L463,542 L452,534 L444,526 L444,524 L442,524 L432,510 L424,495 L417,476 L411,451 L407,423 L406,407 L406,361 L409,327 L412,307 L415,289 L418,274 L421,259 L428,228 L431,215 L433,210 L438,191 L447,161 L456,135 L463,117 L469,99 L479,74 L469,88 L461,101 L457,107 L450,121 L444,131 L439,142 L437,142 L436,147 L431,159 L426,170 L418,190 L411,207 L404,227 L399,241 L396,249 L387,273 L379,297 L376,304 L369,325 L361,349 L357,361 L348,387 L342,405 L328,448 L321,471 L313,499 L306,525 L303,533 L297,553 L292,556 L284,558 L264,560 L245,560 L229,558 L222,555 L218,545 L215,531 L211,495 L211,439 L213,411 L216,391 L218,375 L221,359 L224,344 L233,307 L238,289 L241,277 L248,253 L253,237 L258,221 L266,189 L269,172 L271,154 L271,113 L269,100 L265,85 L259,75 L256,72 L253,71 L246,71 L238,76 L237,78 L235,78 L235,80 L233,80 L231,84 L223,95 L222,97 L220,97 L218,102 L210,115 L206,123 L204,123 L203,128 L194,145 L183,169 L177,186 L169,207 L161,234 L155,253 L145,288 L137,313 L131,332 L127,345 L120,363 L114,380 L101,410 L95,424 L93,424 L92,430 L82,449 L68,474 L61,485 L54,496 L47,506 L41,514 L37,520 L24,535 L12,548 L1,558 L-10,566 L-24,574 L-49,583 L-74,583 L-86,581 L-99,577 L-109,572 L-114,569 L-114,567 L-118,566 L-123,562 L-123,560 L-126,559 L-127,555 L-130,555 L-131,552 L-136,547 L-142,536 L-146,529 L-151,508 L-151,481 L-147,465 L-139,448 L-131,438 L-125,431 L-115,423 L-102,417 L-92,414 L-69,414 L-56,418 L-46,424 L-36,434 L-30,444 L-27,452 L-26,458 L-26,475 L-24,475 L-24,477 L-22,477 L-16,487 L-13,496 L-13,501 L-11,501 L-9,495 L-3,480 L2,465 L8,444 L17,407 L22,378 L26,357 L30,333 L38,295 L45,265 L53,239 L63,209 L74,182 L77,175 L79,175 L80,169 L88,152 L93,144 L94,141 L96,141 L97,137 L102,128 L108,118 L105,108 L98,93 L91,80 L88,77 L86,72 L84,72 L77,64 L69,58 L69,56 L64,54 L56,49 L44,44 L34,41 L27,40 L10,40 L-8,45 L-22,52 L-32,59 L-42,69 L-51,82 L-58,94 L-63,109 L-67,124 L-67,153 L-62,169 L-54,180 L-46,186 L-41,188 L-35,189 L-24,189 L-12,184 L-6,180 L3,170 L8,160 L10,154 L20,155 L21,156 L21,175 L16,192 L7,208 L-4,220 L-16,229 L-31,235 L-40,237 L-60,237 L-76,233 L-92,224 L-99,217 L-104,212 L-112,202 L-120,186 L-125,171 L-127,163 L-128,154 L-128,128 L-126,115 L-123,103 L-119,90 L-110,71 L-98,54 L-95,50 L-93,50 L-91,46 L-83,38 L-72,29 L-56,18 L-36,9 L-20,4 L-19,3 Z " fill="#BEC1C4" transform="translate(352,305)"/>
<path d="M0,0 L20,0 L38,3 L54,9 L59,12 L59,19 L52,45 L47,61 L41,79 L33,103 L21,139 L16,155 L13,165 L5,191 L-1,211 L-10,243 L-15,264 L-22,295 L-26,315 L-31,352 L-33,371 L-34,395 L-34,427 L-32,452 L-28,472 L-23,487 L-16,500 L-11,506 L-4,510 L5,510 L14,505 L23,496 L31,483 L40,465 L46,443 L47,436 L47,409 L43,395 L39,388 L39,386 L37,386 L33,381 L28,378 L24,377 L16,377 L8,379 L8,381 L2,385 L-4,393 L-9,403 L-14,404 L-21,401 L-23,396 L-23,382 L-19,371 L-18,369 L-16,369 L-14,364 L-9,359 L-7,359 L-7,357 L3,352 L8,351 L25,351 L31,353 L41,359 L48,366 L49,370 L51,370 L53,374 L53,377 L55,377 L61,394 L63,408 L63,435 L58,459 L50,480 L41,497 L33,508 L27,516 L17,524 L12,536 L10,536 L9,540 L4,547 L-9,555 L-16,557 L-24,558 L-40,558 L-52,553 L-64,545 L-71,537 L-74,535 L-77,530 L-88,522 L-96,514 L-96,512 L-98,512 L-108,498 L-116,483 L-123,464 L-129,439 L-133,411 L-134,395 L-134,349 L-131,315 L-128,295 L-125,277 L-122,262 L-119,247 L-112,216 L-109,203 L-107,198 L-102,179 L-93,149 L-84,123 L-77,105 L-71,87 L-61,62 L-71,76 L-79,89 L-83,95 L-90,109 L-96,119 L-101,130 L-103,130 L-104,135 L-109,147 L-114,158 L-122,178 L-129,195 L-136,215 L-141,229 L-144,237 L-153,261 L-161,285 L-164,292 L-171,313 L-173,319 L-176,319 L-178,321 L-180,319 L-179,316 L-185,317 L-189,315 L-189,313 L-193,313 L-194,309 L-189,291 L-186,283 L-173,243 L-161,211 L-155,195 L-150,184 L-143,168 L-137,156 L-129,140 L-121,124 L-109,101 L-99,83 L-97,83 L-95,77 L-85,62 L-73,46 L-65,36 L-57,27 L-43,16 L-34,10 L-17,3 L-9,1 Z " fill="#C9CCCF" transform="translate(892,317)"/>
<path d="M0,0 L7,0 L12,3 L18,11 L22,22 L25,34 L26,43 L26,84 L23,110 L11,159 L8,167 L3,183 L-4,207 L-8,222 L-13,241 L-22,277 L-26,302 L-28,310 L-29,321 L-30,321 L-34,306 L-34,302 L-36,302 L-37,307 L-44,325 L-47,337 L-53,353 L-57,367 L-59,375 L-61,375 L-62,382 L-65,395 L-69,409 L-72,420 L-73,428 L-76,434 L-79,448 L-81,454 L-85,457 L-114,460 L-146,460 L-158,458 L-163,446 L-169,421 L-173,393 L-164,377 L-155,360 L-153,354 L-151,354 L-148,344 L-137,320 L-129,299 L-121,277 L-118,270 L-112,249 L-106,231 L-97,201 L-89,173 L-81,147 L-73,123 L-65,103 L-61,93 L-51,71 L-43,56 L-42,53 L-40,53 L-39,49 L-33,38 L-26,27 L-24,27 L-22,22 L-13,10 L-11,10 L-11,8 L-9,8 L-8,5 Z " fill="#CFDEE9" transform="translate(598,375)"/>
<path d="M0,0 L1,3 L-7,22 L-12,35 L-16,47 L-24,68 L-36,105 L-44,133 L-46,142 L-48,149 L-55,178 L-59,195 L-62,214 L-65,227 L-68,251 L-70,266 L-72,289 L-72,335 L-70,359 L-66,383 L-61,404 L-53,425 L-45,440 L-37,450 L-37,452 L-35,452 L-28,460 L-35,471 L-37,474 L-39,474 L-39,476 L-44,481 L-47,481 L-49,485 L-59,491 L-69,496 L-79,499 L-87,501 L-111,501 L-121,498 L-135,491 L-135,489 L-138,489 L-138,487 L-142,485 L-149,477 L-149,475 L-151,475 L-152,471 L-155,470 L-168,448 L-170,437 L-162,409 L-153,380 L-148,364 L-138,333 L-130,309 L-123,289 L-119,277 L-111,253 L-104,232 L-100,222 L-95,207 L-87,185 L-83,175 L-80,166 L-73,147 L-67,131 L-61,115 L-54,98 L-48,86 L-42,70 L-40,70 L-39,65 L-31,50 L-25,39 L-17,25 L-9,13 Z " fill="#D9E6EF" transform="translate(831,377)"/>
<path d="M0,0 L23,0 L36,4 L46,10 L56,20 L62,30 L65,38 L66,44 L66,61 L68,61 L68,63 L70,63 L76,73 L80,87 L78,93 L71,103 L70,107 L75,108 L74,112 L75,119 L73,119 L72,123 L69,122 L69,129 L70,137 L66,139 L62,137 L61,142 L66,143 L64,148 L61,148 L60,151 L58,154 L56,154 L57,158 L54,158 L53,164 L46,166 L46,168 L43,169 L18,169 L6,167 L-7,163 L-17,158 L-22,155 L-22,153 L-26,152 L-31,148 L-31,146 L-34,145 L-35,141 L-38,141 L-39,138 L-44,133 L-50,122 L-54,115 L-59,94 L-59,67 L-55,51 L-47,34 L-39,24 L-33,17 L-23,9 L-10,3 Z " fill="#D5D9DD" transform="translate(260,719)"/>
<path d="M0,0 L23,0 L36,4 L46,10 L56,20 L62,30 L65,38 L66,44 L66,57 L63,68 L57,80 L48,90 L37,96 L33,97 L18,97 L8,92 L4,88 L0,81 L-2,73 L-2,61 L-1,59 L-9,66 L-15,77 L-17,81 L-18,87 L-19,105 L-22,103 L-20,103 L-21,90 L-20,83 L-32,84 L-32,82 L-30,80 L-30,77 L-37,78 L-38,82 L-46,83 L-48,82 L-47,85 L-49,86 L-54,85 L-54,87 L-49,87 L-48,89 L-52,88 L-52,94 L-51,97 L-56,97 L-56,100 L-54,100 L-55,105 L-53,105 L-54,110 L-56,107 L-59,94 L-59,67 L-55,51 L-47,34 L-39,24 L-33,17 L-23,9 L-10,3 Z M-52,91 Z " fill="#BEC2C6" transform="translate(260,719)"/>
<path d="M0,0 L1,4 L4,5 L5,8 L8,8 L10,9 L9,23 L9,24 L10,29 L9,31 L16,31 L24,32 L31,19 L38,11 L42,10 L42,8 L50,5 L58,5 L65,8 L71,13 L71,15 L73,15 L78,24 L82,38 L82,65 L79,79 L75,94 L64,116 L56,127 L47,136 L39,140 L30,140 L22,135 L14,124 L9,114 L3,93 L1,81 L-1,56 L-1,24 Z M8,31 Z " fill="#DBE8F1" transform="translate(858,688)"/>
<path d="M0,0 L3,0 L7,5 L13,10 L14,14 L18,16 L22,23 L22,25 L24,25 L28,34 L28,36 L30,36 L36,53 L41,76 L41,80 L43,79 L50,79 L41,98 L35,113 L30,124 L24,140 L14,168 L2,204 L-2,218 L-5,228 L-11,245 L-15,258 L-25,284 L-26,284 L-25,274 L-21,250 L-11,204 L-7,183 L-6,182 L-4,168 L1,135 L4,106 L5,90 L5,48 L3,26 L-1,5 Z " fill="#D5E4ED" transform="translate(704,398)"/>
<path d="M0,0 L5,1 L5,8 L-6,27 L-13,38 L-20,49 L-27,59 L-33,67 L-37,73 L-50,88 L-62,101 L-73,111 L-84,119 L-98,127 L-117,134 L-122,134 L-120,132 L-114,130 L-112,125 L-109,125 L-110,121 L-108,121 L-106,117 L-105,115 L-102,114 L-100,110 L-106,110 L-105,106 L-104,104 L-98,105 L-97,104 L-98,89 L-95,89 L-93,86 L-91,86 L-93,78 L-91,75 L-96,74 L-95,69 L-89,60 L-81,43 L-74,24 L-70,14 L-69,14 L-67,24 L-66,22 L-63,24 L-63,19 L-61,19 L-61,21 L-59,21 L-59,17 L-62,15 L-56,15 L-52,14 L-52,12 L-55,11 L-53,11 L-53,8 L-51,8 L-50,13 L-44,13 L-42,19 L-44,19 L-42,21 L-42,23 L-40,26 L-39,24 L-32,25 L-34,26 L-33,30 L-28,28 L-25,28 L-25,16 L-24,13 L-22,13 L-22,15 L-17,14 L-15,16 L-16,21 L-17,25 L-14,25 L-13,27 L-10,28 L-10,25 L-12,24 L-9,23 L-8,24 L-7,21 L-5,20 L-6,16 L-3,15 L-1,9 L-3,7 L-2,2 Z M-18,16 Z " fill="#BABBBC" transform="translate(426,752)"/>
<path d="M0,0 L13,3 L26,10 L29,13 L34,18 L38,22 L38,24 L40,24 L47,37 L50,51 L50,65 L46,80 L42,90 L39,96 L32,104 L18,114 L2,118 L-9,118 L-15,117 L-15,115 L-17,114 L-9,99 L0,75 L4,54 L4,27 L1,10 L-2,1 Z " fill="#D5E3EE" transform="translate(950,698)"/>
<path d="M0,0 L18,0 L25,3 L27,7 L30,8 L31,12 L33,12 L37,22 L37,28 L27,59 L22,75 L21,81 L19,81 L18,93 L12,114 L7,134 L2,150 L0,156 L-2,166 L-5,174 L-6,170 L-4,142 L-4,94 L-5,74 L-9,50 L-12,32 L-14,27 L-14,20 L-6,3 Z " fill="#F1F8FB" transform="translate(550,450)"/>
<path d="M0,0 L1,4 L3,4 L3,6 L5,6 L11,16 L15,30 L13,36 L2,52 L-9,64 L-13,65 L-14,68 L-21,73 L-29,77 L-41,79 L-55,78 L-64,74 L-73,67 L-76,64 L-80,56 L-83,50 L-84,43 L-84,30 L-82,23 L-78,14 L-74,8 L-68,2 L-66,2 L-66,16 L-63,26 L-60,31 L-60,33 L-56,35 L-47,39 L-32,39 L-22,35 L-14,29 L-6,18 L-1,5 Z " fill="#DBE7F0" transform="translate(325,776)"/>
<path d="M0,0 L1,3 L-5,7 L-8,10 L-4,12 L-7,13 L1,14 L4,15 L4,17 L20,22 L33,26 L33,28 L39,29 L46,32 L46,35 L48,36 L47,33 L52,34 L53,37 L52,40 L50,40 L50,38 L48,38 L49,40 L52,42 L49,43 L50,45 L48,45 L47,49 L43,51 L37,52 L37,55 L35,55 L35,53 L33,53 L33,49 L28,51 L22,50 L22,52 L25,53 L25,56 L25,57 L19,57 L21,65 L21,68 L19,68 L18,65 L18,53 L19,51 L11,58 L5,69 L3,73 L2,79 L1,97 L-2,95 L0,95 L-1,82 L0,75 L-12,76 L-12,74 L-10,72 L-10,69 L-17,70 L-18,74 L-26,75 L-28,74 L-27,77 L-29,78 L-34,77 L-34,79 L-29,79 L-28,81 L-32,80 L-32,86 L-31,89 L-36,89 L-36,92 L-34,92 L-35,97 L-33,97 L-34,102 L-36,99 L-39,86 L-39,59 L-35,43 L-27,26 L-19,16 L-13,9 L-3,1 Z M15,18 L17,19 L15,20 Z M-32,83 Z " fill="#B6BABD" transform="translate(240,727)"/>
<path d="M0,0 L17,0 L23,2 L33,8 L36,11 L38,15 L45,27 L49,36 L51,48 L52,51 L46,52 L44,51 L46,46 L38,44 L35,42 L35,40 L32,39 L31,35 L29,35 L25,30 L20,27 L16,26 L8,26 L0,28 L0,30 L-6,34 L-12,42 L-17,52 L-22,53 L-29,50 L-31,45 L-31,31 L-27,20 L-26,18 L-24,18 L-22,13 L-17,8 L-15,8 L-15,6 L-5,1 Z " fill="#D4D9DD" transform="translate(900,668)"/>
<path d="M0,0 L1,0 L1,8 L0,15 L1,17 L-4,32 L2,31 L5,32 L5,34 L2,37 L-4,36 L-4,38 L2,39 L4,43 L4,46 L8,47 L18,47 L16,48 L16,50 L14,50 L15,53 L17,52 L19,54 L19,56 L23,55 L21,64 L26,63 L29,65 L27,66 L26,71 L29,72 L26,76 L30,80 L27,83 L23,83 L22,89 L24,90 L20,91 L28,91 L29,94 L31,95 L32,91 L37,92 L37,94 L33,94 L34,97 L30,97 L34,98 L33,102 L42,102 L40,108 L38,108 L38,110 L42,109 L42,112 L45,113 L44,116 L49,113 L53,114 L52,119 L47,120 L47,123 L44,123 L44,121 L39,120 L35,117 L35,115 L38,115 L33,112 L33,105 L28,106 L22,106 L21,107 L9,108 L7,107 L6,111 L5,109 L0,108 L0,106 L3,106 L2,104 L9,104 L10,105 L17,106 L18,98 L18,96 L11,95 L11,92 L15,92 L16,88 L18,85 L18,82 L14,80 L14,77 L10,77 L5,75 L0,75 L-1,68 L-1,64 L-3,65 L-4,68 L-11,68 L-11,72 L-16,77 L-14,81 L-13,84 L-16,88 L-20,92 L-22,92 L-22,86 L-17,70 L-12,54 L-4,22 Z M2,47 Z M25,79 L26,81 Z " fill="#B8BCBF" transform="translate(622,472)"/>
<path d="M0,0 L7,2 L7,4 L2,6 L1,12 L3,16 L2,21 L1,29 L-1,29 L-2,27 L-2,32 L-4,33 L-4,35 L-1,36 L1,34 L2,39 L12,41 L12,44 L2,46 L-3,47 L-3,49 L2,50 L6,49 L6,51 L8,53 L6,58 L2,58 L2,62 L4,64 L4,67 L1,67 L1,70 L9,69 L11,67 L16,72 L16,74 L12,73 L11,74 L10,85 L14,86 L7,86 L5,85 L5,93 L7,93 L7,89 L12,91 L13,94 L10,96 L10,97 L4,99 L0,99 L-2,99 L-2,101 L-4,101 L-5,97 L-4,96 L-7,95 L-8,98 L-16,98 L-16,94 L-13,94 L-14,89 L-16,93 L-17,99 L-12,99 L-14,101 L-17,101 L-18,103 L-20,103 L-19,109 L-21,120 L-23,125 L-24,125 L-24,117 L-19,86 L-14,61 L-6,23 Z M11,92 Z " fill="#B0B2B5" transform="translate(399,563)"/>
<path d="M0,0 L2,1 L2,3 L6,4 L9,7 L10,12 L21,12 L25,13 L30,13 L32,19 L30,21 L23,24 L17,24 L15,30 L22,30 L23,33 L19,41 L17,45 L16,51 L15,69 L12,67 L14,67 L13,54 L14,47 L2,48 L2,46 L4,44 L4,41 L-3,42 L-4,46 L-12,47 L-14,46 L-13,49 L-15,50 L-20,49 L-20,51 L-15,51 L-14,53 L-18,52 L-18,58 L-17,61 L-22,61 L-22,64 L-20,64 L-21,69 L-19,69 L-20,74 L-22,71 L-25,58 L-25,31 L-21,29 L-21,24 L-18,23 L-10,23 L-10,25 L-2,24 L-2,22 L-6,21 L-2,21 L-1,17 L2,15 L-2,13 L-2,2 Z M14,13 Z M2,0 Z M22,12 Z M-18,55 Z " fill="#BBBFC3" transform="translate(226,755)"/>
<path d="M0,0 L16,0 L17,4 L21,5 L18,8 L18,13 L19,14 L24,16 L26,16 L32,16 L33,18 L32,21 L29,21 L29,23 L25,23 L25,25 L30,25 L30,23 L34,25 L32,28 L33,30 L30,33 L24,35 L25,39 L17,38 L10,35 L10,33 L-1,31 L-15,26 L-21,24 L-20,22 L-27,22 L-32,20 L-32,17 L-29,16 L-27,12 L-23,10 L-22,6 L-12,2 L-2,5 L-2,3 L-4,3 L-4,1 Z M-8,25 L-7,27 L-6,25 Z M17,1 Z " fill="#C2C8CC" transform="translate(263,720)"/>
<path d="M0,0 L1,3 L-7,22 L-12,35 L-16,47 L-24,68 L-35,102 L-38,102 L-39,101 L-53,100 L-52,94 L-48,86 L-42,70 L-40,70 L-39,65 L-31,50 L-25,39 L-17,25 L-9,13 Z " fill="#EEF6F9" transform="translate(831,377)"/>
<path d="M0,0 L3,0 L2,4 L0,9 L-2,9 L-3,13 L-8,20 L-21,28 L-28,30 L-36,31 L-52,31 L-64,26 L-76,18 L-83,10 L-86,8 L-86,5 L-80,7 L-71,11 L-64,13 L-56,14 L-36,14 L-19,10 L-3,2 L0,2 Z " fill="#CFDFE9" transform="translate(904,844)"/>
<path d="M0,0 L10,2 L10,12 L2,10 L1,14 L-1,14 L0,17 L4,19 L3,23 L8,23 L6,22 L6,18 L11,17 L11,19 L13,17 L16,17 L16,19 L20,21 L21,22 L22,26 L16,25 L20,35 L17,37 L17,35 L13,36 L11,36 L7,37 L7,35 L10,35 L10,32 L2,33 L-3,34 L-4,33 L-4,36 L-4,38 L-6,38 L-5,43 L-8,45 L-3,44 L-3,50 L-6,51 L-9,50 L-14,52 L-10,36 L-6,19 L-2,6 Z " fill="#ABAEB2" transform="translate(598,566)"/>
<path d="M0,0 L3,3 L5,3 L4,6 L9,6 L10,3 L16,2 L13,8 L8,9 L7,12 L3,13 L2,18 L4,18 L5,23 L4,25 L2,25 L0,32 L-2,32 L-2,39 L-6,39 L-8,48 L-10,48 L-11,46 L-13,48 L-14,45 L-14,35 L-16,35 L-17,31 L-12,21 L-9,16 L-10,12 L-5,3 L-1,2 Z M-16,32 Z M-14,34 Z M2,0 Z " fill="#D0D4D7" transform="translate(798,397)"/>
<path d="M0,0 L5,1 L2,10 L1,13 L3,15 L0,17 L-1,21 L1,21 L4,30 L2,31 L0,34 L1,35 L5,36 L6,38 L8,38 L8,43 L5,46 L4,48 L7,49 L9,50 L8,52 L4,53 L4,50 L-1,50 L-2,46 L-4,48 L-6,46 L-8,51 L-7,52 L-7,59 L-9,66 L-11,65 L-12,67 L-7,68 L-9,70 L-11,76 L-12,77 L-13,88 L-16,91 L-16,82 L-13,61 L-10,45 L-7,30 Z M8,37 L12,38 Z " fill="#B7BBBF" transform="translate(583,619)"/>
<path d="M0,0 L2,0 L3,3 L-1,4 L-2,8 L-1,12 L2,13 L1,14 L1,24 L0,28 L5,29 L1,33 L0,39 L-8,40 L-8,38 L-16,39 L-18,39 L-19,44 L-21,44 L-22,48 L-22,41 L-17,25 L-10,12 L-3,3 Z " fill="#B1B7BC" transform="translate(224,740)"/>
<path d="M0,0 L13,0 L14,3 L16,4 L17,0 L22,1 L22,3 L18,3 L19,6 L15,6 L19,7 L18,11 L27,11 L25,17 L23,17 L23,19 L27,18 L27,21 L30,22 L29,25 L34,22 L38,23 L37,28 L32,29 L32,32 L29,32 L29,30 L24,29 L20,26 L20,24 L23,24 L18,21 L18,14 L13,15 L7,15 L6,16 L-6,17 L-8,16 L-9,20 L-10,18 L-15,17 L-15,15 L-12,15 L-13,13 L-6,13 L-5,14 L2,15 L3,7 L3,5 L-4,4 L-4,1 Z " fill="#B0B2B5" transform="translate(637,563)"/>
<path d="M0,0 L5,2 L9,4 L8,7 L7,8 L12,7 L13,2 L17,1 L21,1 L22,7 L23,9 L26,9 L25,21 L23,28 L18,51 L16,51 L16,48 L13,47 L14,42 L17,37 L21,25 L22,14 L20,13 L19,16 L3,18 L-1,20 L-2,14 L0,11 L5,12 L5,10 L-2,8 L0,4 L2,4 L2,2 L0,2 Z M17,13 Z " fill="#CACED1" transform="translate(674,559)"/>
<path d="M0,0 L2,1 L2,3 L4,3 L4,5 L0,5 L0,7 L5,7 L6,9 L5,13 L7,14 L6,15 L9,15 L9,11 L14,12 L10,16 L6,19 L1,24 L-19,32 L-27,33 L-25,31 L-19,29 L-17,24 L-14,24 L-15,20 L-13,20 L-11,16 L-10,14 L-7,13 L-5,9 L-11,9 L-10,5 L-9,3 L-3,4 Z " fill="#C5C7C8" transform="translate(331,853)"/>
<path d="M0,0 L6,0 L6,2 L-2,2 L-2,4 L-14,7 L-15,14 L-16,17 L-25,17 L-28,18 L-31,21 L-34,21 L-36,25 L-39,26 L-41,33 L-46,35 L-47,33 L-50,36 L-49,40 L-53,40 L-57,45 L-60,49 L-63,48 L-61,44 L-53,34 L-45,25 L-31,14 L-22,8 L-5,1 Z " fill="#ABB6BD" transform="translate(880,319)"/>
<path d="M0,0 L4,0 L4,2 L-1,4 L-3,9 L-12,11 L-17,15 L-20,15 L-21,22 L-24,23 L-26,22 L-28,27 L-26,30 L-36,32 L-37,38 L-42,38 L-42,40 L-40,40 L-40,42 L-44,42 L-43,45 L-47,47 L-51,54 L-55,55 L-56,58 L-57,54 L-46,38 L-43,34 L-41,34 L-39,30 L-31,22 L-20,13 L-4,2 Z " fill="#A1AAB0" transform="translate(300,321)"/>
<path d="M0,0 L5,5 L3,5 L3,7 L8,6 L15,9 L17,15 L21,16 L21,18 L12,15 L12,18 L9,19 L8,22 L15,23 L15,25 L19,26 L16,26 L15,29 L13,29 L11,32 L8,32 L8,28 L11,28 L11,26 L9,26 L9,24 L3,24 L3,22 L0,22 L1,17 L-4,16 L-4,13 L-6,13 L-6,11 L-3,11 L-2,7 L-4,2 L0,2 Z " fill="#B2B4B7" transform="translate(528,368)"/>
<path d="M0,0 L2,1 L6,12 L12,23 L17,29 L24,33 L33,34 L33,35 L24,36 L22,37 L19,37 L16,37 L15,32 L12,29 L9,29 L5,25 L3,24 L3,26 L5,26 L5,28 L7,30 L5,30 L6,36 L12,38 L12,39 L5,38 L0,37 L-4,36 L-5,32 L-8,30 L-2,28 L1,21 L3,20 L4,21 L3,14 L2,13 L-1,16 L-2,14 L0,14 Z " fill="#BAC2C8" transform="translate(864,794)"/>
<path d="M0,0 L2,0 L0,9 L-3,20 L-6,29 L-9,39 L-17,37 L-18,35 L-18,28 L-14,13 L-11,13 L-10,21 L-9,13 L-7,13 L-7,17 L-5,15 L-3,9 L-3,4 Z " fill="#E0EDF5" transform="translate(708,587)"/>
<path d="M0,0 L2,1 L2,5 L8,6 L9,4 L11,5 L11,8 L10,14 L8,14 L8,17 L6,17 L6,12 L3,11 L3,16 L2,21 L2,24 L-2,24 L-2,22 L-6,22 L-5,18 L-10,14 L-10,4 L-12,3 L-6,1 L-5,4 L-2,3 Z " fill="#B3B7BA" transform="translate(470,539)"/>
<path d="M0,0 L5,0 L5,2 L7,2 L7,7 L10,7 L10,5 L17,5 L17,7 L15,8 L17,9 L16,13 L13,13 L13,15 L2,15 L1,14 L-3,21 L-3,23 L-6,24 L-8,22 L-11,21 L-11,13 L-6,12 L-6,16 L-3,11 L-2,9 L-5,9 L-5,4 L0,3 L2,8 L3,4 L1,4 Z M3,2 L4,4 Z " fill="#A9AAAC" transform="translate(435,610)"/>
<path d="M0,0 L7,0 L12,3 L16,8 L15,11 L12,9 L10,11 L10,9 L-1,9 L-2,8 L-6,10 L-6,14 L-9,16 L-14,16 L-15,20 L-14,23 L-15,25 L-20,24 L-23,28 L-24,25 L-15,13 L-13,10 L-11,10 L-11,8 L-9,8 L-8,5 Z M-25,27 L-23,31 L-25,30 Z " fill="#DDEBF4" transform="translate(598,375)"/>
<path d="M0,0 L1,0 L1,9 L4,9 L3,14 L0,15 L-1,17 L1,17 L2,20 L4,21 L4,24 L1,23 L-1,25 L-5,25 L-5,28 L-1,27 L1,28 L4,29 L3,32 L-4,32 L-4,36 L-9,41 L-7,45 L-6,48 L-9,52 L-13,56 L-15,56 L-15,50 L-10,34 L-5,18 Z M-3,16 L-3,18 L-1,17 Z M3,19 L5,19 L4,21 Z " fill="#ABB2B7" transform="translate(615,508)"/>
<path d="M0,0 L1,2 L-7,7 L-8,10 L-6,14 L-9,14 L-6,16 L-7,19 L-7,17 L-12,15 L-15,16 L-14,18 L-16,23 L-17,26 L-19,26 L-20,24 L-21,26 L-24,28 L-25,33 L-29,32 L-30,36 L-31,35 L-38,37 L-36,33 L-28,23 L-26,23 L-26,21 L-24,21 L-22,17 L-11,7 L-3,1 Z " fill="#A8B1B8" transform="translate(535,342)"/>
<path d="M0,0 L4,1 L4,3 L6,4 L3,4 L4,14 L-1,17 L-4,17 L-4,19 L-8,19 L-8,24 L-13,23 L-13,21 L-17,21 L-21,23 L-22,20 L-21,16 L-22,11 L-20,11 L-18,13 L-16,14 L-16,8 L-13,9 L-13,14 L-11,14 L-12,11 L-9,12 L-7,10 L-4,11 L-2,10 L-1,1 Z M-21,13 Z M-13,19 L-12,21 L-11,19 Z " fill="#ABADB0" transform="translate(456,580)"/>
<path d="M0,0 L10,0 L9,4 L12,8 L10,18 L9,36 L6,34 L8,34 L7,21 L8,14 L-4,15 L-4,13 L-2,11 L-2,8 L-8,8 L-9,5 L-8,3 L-2,3 Z M-7,4 Z " fill="#C1C7CB" transform="translate(232,788)"/>
<path d="M0,0 L5,1 L5,8 L-6,27 L-13,38 L-15,41 L-17,41 L-18,37 L-15,35 L-15,33 L-19,31 L-22,29 L-21,25 L-21,27 L-18,26 L-19,24 L-14,25 L-13,27 L-10,28 L-10,25 L-12,24 L-9,23 L-8,24 L-7,21 L-5,20 L-6,16 L-3,15 L-1,9 L-3,7 L-2,2 Z " fill="#B0B4B7" transform="translate(426,752)"/>
<path d="M0,0 L7,0 L7,3 L9,4 L5,5 L5,7 L10,6 L17,6 L17,15 L15,19 L11,20 L12,17 L7,17 L7,15 L9,14 L9,11 L2,12 L-2,12 L-2,10 L-7,9 L-6,5 L-1,4 Z M2,12 Z " fill="#CCD0D4" transform="translate(223,796)"/>
<path d="M0,0 L1,2 L-2,8 L2,9 L2,11 L4,11 L4,13 L6,13 L5,19 L3,19 L1,23 L-3,31 L-4,38 L-6,37 L-7,30 L-7,17 L-5,10 L-1,1 Z " fill="#ECF5FA" transform="translate(248,789)"/>
<path d="M0,0 L5,5 L6,8 L10,9 L10,20 L12,20 L15,23 L15,21 L17,21 L19,29 L19,32 L24,33 L27,39 L30,41 L30,44 L34,43 L34,45 L36,45 L39,51 L42,52 L41,55 L30,47 L22,39 L22,37 L20,37 L10,23 L2,8 Z " fill="#B1BBC3" transform="translate(774,792)"/>
<path d="M0,0 L3,1 L2,4 L0,4 L-1,6 L-5,7 L-5,10 L-12,10 L-17,15 L-19,15 L-20,19 L-21,21 L-24,21 L-24,23 L-21,24 L-21,28 L-23,28 L-23,26 L-28,27 L-30,34 L-37,34 L-36,29 L-24,16 L-17,10 L-11,6 Z M-3,4 Z " fill="#DAE7F0" transform="translate(341,350)"/>
<path d="M0,0 L2,3 L4,6 L8,5 L10,5 L11,2 L14,1 L14,3 L17,3 L18,10 L10,11 L10,14 L0,14 L-1,16 L-3,15 L-3,12 L-7,12 L-8,4 L-4,5 L-4,3 L-1,3 Z M7,14 Z M6,15 Z " fill="#B3B7BA" transform="translate(614,714)"/>
<path d="M0,0 L1,2 L6,3 L5,7 L6,14 L4,14 L3,18 L-4,16 L-9,15 L-9,17 L-16,22 L-19,22 L-19,24 L-25,25 L-20,20 L-15,16 L-8,10 Z " fill="#C7CDD1" transform="translate(329,824)"/>
<path d="M0,0 L5,1 L2,10 L1,13 L3,15 L0,17 L-1,21 L1,21 L4,30 L2,31 L-1,37 L-7,38 L-7,40 L-5,41 L-8,42 L-8,33 L-1,5 Z " fill="#B1B6BA" transform="translate(583,619)"/>
<path d="M0,0 L1,2 L6,2 L3,4 L5,6 L1,7 L4,10 L4,14 L8,13 L10,15 L10,17 L12,21 L2,22 L1,18 L2,16 L0,16 L0,18 L-4,16 L-2,14 L-6,15 L-7,10 L-5,4 L-14,7 L-15,5 L-11,4 L-13,3 L-13,1 L-1,1 Z " fill="#D9DEE3" transform="translate(229,842)"/>
<path d="M0,0 L6,1 L4,2 L7,5 L9,0 L13,0 L11,5 L2,20 L-2,28 L-4,28 L-5,30 L-7,27 L-8,24 L-8,19 L-9,17 L-4,16 L-4,14 L0,12 L1,8 L0,4 Z " fill="#B4B9BE" transform="translate(560,400)"/>
<path d="M0,0 L7,3 L8,6 L11,8 L4,8 L6,13 L4,15 L0,15 L-1,18 L-3,18 L-4,23 L-8,24 L-7,21 L-12,21 L-11,19 L-9,19 L-13,16 L-9,15 L-12,14 L-10,10 L-7,9 L-7,12 L-5,12 L-6,8 L-1,8 L-2,4 Z " fill="#C5C6C8" transform="translate(683,422)"/>
<path d="M0,0 L2,1 L0,11 L-1,14 L-1,20 L0,22 L-3,22 L-5,28 L-7,31 L-8,57 L-13,61 L-16,66 L-17,64 L-12,43 L-6,19 L-1,1 Z " fill="#DDECF6" transform="translate(888,538)"/>
<path d="M0,0 L1,0 L3,9 L8,18 L8,21 L11,22 L11,24 L15,26 L23,32 L29,34 L47,36 L47,37 L27,37 L27,35 L23,37 L15,33 L15,31 L11,30 L7,28 L3,29 L3,23 L4,18 L3,16 L0,17 Z M2,29 Z " fill="#CAD4DB" transform="translate(241,819)"/>
<path d="M0,0 L2,0 L3,3 L-1,4 L-2,8 L-1,12 L2,13 L1,14 L1,22 L-2,23 L-6,21 L-8,21 L-10,23 L-10,26 L-12,28 L-12,26 L-15,27 L-17,29 L-16,24 L-10,12 L-3,3 Z " fill="#ACB1B5" transform="translate(224,740)"/>
<path d="M0,0 L4,2 L8,4 L7,3 L8,0 L11,1 L12,7 L8,9 L11,19 L5,21 L5,15 L7,14 L4,14 L0,15 L0,13 L-3,12 L-2,8 L-6,8 L-7,10 L-9,9 L-6,1 L0,2 Z M8,17 Z " fill="#AFB3B6" transform="translate(616,672)"/>
<path d="M0,0 L6,1 L3,11 L-2,26 L-5,23 L-6,17 L-4,10 L-7,10 L-7,14 L-9,14 L-9,2 L-6,1 L-4,2 L-4,4 L0,3 Z " fill="#B9BFC2" transform="translate(520,495)"/>
<path d="M0,0 L2,0 L3,5 L10,6 L11,10 L10,14 L-1,15 L-7,17 L-9,12 L-11,12 L-10,7 L-1,3 L1,3 Z " fill="#D6DADD" transform="translate(630,818)"/>
<path d="M0,0 L3,0 L-1,16 L-10,43 L-11,43 L-11,33 L-15,31 L-12,31 L-10,22 L-6,18 L-8,16 L-4,13 L-3,5 Z " fill="#A1A8AD" transform="translate(491,600)"/>
<path d="M0,0 L4,0 L3,7 L-4,32 L-6,34 L-7,30 L-8,26 L-10,26 L-9,22 L-8,21 L-10,20 L-10,15 L-10,11 L-6,11 L-5,13 L-1,13 L-3,9 L-2,5 L2,3 L3,1 Z " fill="#AFB5B9" transform="translate(506,544)"/>
<path d="M0,0 L5,2 L8,5 L1,11 L-11,17 L-26,21 L-46,21 L-51,20 L-51,19 L-42,18 L-18,18 L-16,14 L-12,12 L-9,12 L-10,9 L-2,8 L-1,6 L2,7 L3,8 L4,3 L0,1 Z " fill="#ABB5BC" transform="translate(338,521)"/>
<path d="M0,0 L2,0 L2,2 L4,2 L5,6 L7,6 L7,4 L9,4 L10,2 L12,4 L12,7 L16,6 L14,10 L17,9 L19,10 L17,15 L10,14 L6,17 L2,15 L1,9 L-2,8 L0,6 L-1,4 Z " fill="#B8B9BB" transform="translate(415,682)"/>
<path d="M0,0 L3,0 L1,9 L-5,27 L-14,53 L-16,55 L-17,49 L-17,40 L-12,38 L-10,34 L-16,34 L-15,32 L-11,32 L-6,17 L-4,17 L-4,10 L-1,7 Z " fill="#AFB7BE" transform="translate(714,639)"/>
<path d="M0,0 L5,1 L3,3 L6,5 L4,11 L2,16 L5,17 L3,18 L4,22 L2,23 L3,25 L-1,26 L-1,24 L-4,26 L-9,25 L-12,26 L-14,22 L-13,19 L-11,19 L-10,17 L-10,19 L-2,16 L0,17 L1,10 L-1,9 L2,9 L2,7 L0,7 L-1,1 Z " fill="#ADB1B4" transform="translate(476,567)"/>
<path d="M0,0 L1,4 L6,4 L5,14 L-2,49 L-4,49 L-4,41 L-2,37 L-4,36 L-2,34 L-2,27 L-1,25 L-1,15 L-3,7 L-4,4 Z " fill="#A8AFB5" transform="translate(682,620)"/>
<path d="M0,0 L1,4 L3,4 L4,0 L8,3 L8,1 L10,1 L8,6 L-4,19 L-7,23 L-9,23 L-9,16 L-7,16 L-7,13 L-9,9 L-6,9 L-4,4 L-2,4 L-2,1 Z " fill="#AFB4B7" transform="translate(377,824)"/>
<path d="M0,0 L1,0 L2,7 L0,12 L2,13 L1,17 L1,27 L2,31 L1,33 L3,34 L1,39 L0,45 L1,47 L1,63 L2,68 L0,68 L-2,66 L-3,54 L-3,38 L-1,6 Z M1,52 Z " fill="#C2CBD3" transform="translate(566,746)"/>
<path d="M0,0 L3,0 L4,6 L-6,29 L-8,30 L-8,17 L-5,13 L-8,13 L-9,6 L-5,7 L-5,3 L-1,2 Z " fill="#C0C3C7" transform="translate(456,693)"/>
<path d="M0,0 L9,6 L18,15 L21,18 L25,24 L24,29 L21,29 L20,22 L17,19 L17,17 L13,16 L6,18 L3,18 L4,14 L5,8 L2,9 L3,5 L0,5 Z " fill="#C9D0D5" transform="translate(659,335)"/>
<path d="M0,0 L4,1 L8,0 L9,3 L13,4 L13,6 L11,6 L12,10 L11,14 L12,17 L8,17 L7,16 L6,18 L1,19 L0,17 L-6,21 L-6,17 L-8,16 L-5,14 L2,14 L2,11 L5,10 L5,7 L2,6 Z M7,1 Z " fill="#B1B2B4" transform="translate(462,599)"/>
<path d="M0,0 L4,1 L4,5 L1,14 L-2,17 L-7,16 L-11,15 L-12,11 L-10,7 L-6,8 L-6,6 L-8,5 L-6,2 L-2,3 L-2,1 Z " fill="#C2C7CA" transform="translate(547,336)"/>
<path d="M0,0 L2,4 L5,25 L7,36 L5,36 L5,38 L3,38 L2,34 L4,31 L3,29 L0,30 L-1,27 L1,27 L2,25 L-2,26 L-1,23 L1,23 L1,21 L-1,20 L-2,17 L-5,18 L-9,14 L-8,10 L-6,11 L-7,13 L-1,11 L-2,3 L0,3 Z " fill="#B2BABE" transform="translate(857,756)"/>
<path d="M0,0 L1,0 L2,24 L3,40 L0,40 L-2,41 L-4,39 L-3,34 L-6,30 L-5,28 L-7,27 L-8,30 L-8,28 L-10,28 L-9,24 L-12,25 L-13,21 L-15,21 L-15,19 L-12,19 L-12,21 L-9,21 L-9,23 L-6,24 L-4,25 L-2,21 L0,21 L-1,7 Z " fill="#BCC3C9" transform="translate(856,720)"/>
<path d="M0,0 L1,4 L1,14 L0,19 L-4,24 L-6,28 L-7,35 L-9,35 L-9,40 L-11,45 L-12,50 L-17,54 L-15,46 L-9,28 L-5,14 Z " fill="#D8E8F4" transform="translate(919,436)"/>
<path d="M0,0 L4,0 L2,7 L-5,18 L-14,28 L-18,28 L-20,25 L-16,23 L-13,23 L-11,23 L-11,16 L-9,16 L-10,10 L-8,11 L-8,8 L-5,7 L-3,4 L-3,2 Z M-11,13 Z " fill="#A6B2BA" transform="translate(363,496)"/>
<path d="M0,0 L3,0 L-1,16 L-13,51 L-15,52 L-15,47 L-13,47 L-13,34 L-11,29 L-9,29 L-10,24 L-5,23 L-6,16 L-4,15 L-3,9 L-2,5 L-2,2 L0,2 Z " fill="#B3BDC4" transform="translate(925,408)"/>
<path d="M0,0 L10,1 L11,2 L11,21 L7,34 L6,30 L3,29 L0,27 L2,26 L0,25 L0,23 L6,22 L8,17 L9,16 L10,3 L3,3 L1,8 L-1,8 L0,14 L-6,16 L-4,10 Z M-2,28 L0,29 Z " fill="#B5BBC0" transform="translate(362,459)"/>
<path d="M0,0 L1,2 L0,10 L-1,13 L-2,19 L0,19 L-1,21 L-5,23 L-5,26 L-3,26 L-5,33 L-7,36 L-9,47 L-9,54 L-11,55 L-9,60 L-9,63 L-14,63 L-13,51 L-4,12 L-1,1 Z " fill="#BDC5CB" transform="translate(784,521)"/>
<path d="M0,0 L1,2 L3,3 L1,8 L2,9 L2,16 L0,23 L-2,22 L-3,24 L2,25 L0,27 L-2,33 L-3,34 L-4,45 L-7,48 L-7,39 L-4,18 L-1,2 Z " fill="#AAAFB3" transform="translate(574,662)"/>
<path d="M0,0 L2,3 L5,5 L0,9 L-3,8 L-1,13 L1,13 L4,16 L5,12 L8,13 L7,15 L9,16 L7,19 L7,21 L12,19 L10,25 L4,21 L1,19 L1,17 L-4,15 L-12,10 L-10,9 L-8,5 L-2,5 L-3,4 Z M9,14 Z " fill="#BEC7CE" transform="translate(420,344)"/>
<path d="M0,0 L2,0 L3,6 L3,48 L2,57 L0,56 L1,22 L-2,21 L1,21 L0,16 L-4,16 L-3,12 L-4,9 L-1,4 L1,4 Z " fill="#B5BBC0" transform="translate(707,440)"/>
<path d="M0,0 L1,0 L1,8 L0,11 L-2,11 L-3,16 L-1,17 L-5,18 L-5,26 L-8,26 L-8,28 L-6,28 L-5,33 L-7,31 L-9,33 L-10,36 L-8,36 L-10,41 L-9,43 L-13,43 L-16,46 L-17,42 L-11,29 L-4,10 Z " fill="#ADB6BD" transform="translate(356,766)"/>
<path d="M0,0 L5,1 L5,3 L9,5 L17,12 L17,14 L20,15 L20,17 L22,17 L25,23 L22,23 L18,23 L16,19 L16,16 L12,16 L12,14 L10,14 L8,7 L4,8 L0,8 Z " fill="#DCEAF4" transform="translate(416,360)"/>
<path d="M0,0 L5,0 L6,3 L10,4 L10,9 L12,9 L12,13 L15,12 L15,14 L17,14 L17,17 L21,18 L22,21 L13,20 L13,26 L8,25 L8,23 L11,22 L11,19 L7,17 L11,15 L5,12 L5,10 L3,10 L2,2 L0,2 Z M4,3 L5,5 Z M13,14 L14,16 L15,14 Z M20,16 Z " fill="#B4B5B7" transform="translate(387,675)"/>
<path d="M0,0 L1,3 L0,6 L2,7 L0,7 L1,12 L-1,13 L2,16 L1,18 L-1,18 L-1,20 L1,20 L1,22 L-3,24 L-7,31 L-11,31 L-9,22 L-1,1 Z M1,19 Z " fill="#B2B6BB" transform="translate(422,498)"/>
<path d="M0,0 L2,0 L3,5 L1,5 L1,7 L6,5 L7,8 L3,16 L-2,17 L-2,19 L-5,22 L-7,26 L-9,26 L-6,14 Z " fill="#BCC2C6" transform="translate(826,392)"/>
<path d="M0,0 L9,0 L11,2 L11,5 L9,6 L13,9 L8,13 L6,13 L4,11 L0,13 L-4,12 L-2,5 Z " fill="#B6BABD" transform="translate(435,532)"/>
<path d="M0,0 Z M4,0 L7,0 L13,2 L11,7 L-8,7 L-24,5 L-23,2 L-17,1 L-13,3 L-8,4 L-8,2 L-5,1 L-3,3 L0,2 L3,3 Z " fill="#CAD3DA" transform="translate(605,858)"/>
<path d="M0,0 L7,0 L8,4 L6,4 L6,6 L8,7 L8,12 L11,13 L12,18 L15,17 L16,21 L15,24 L17,24 L17,26 L20,27 L15,28 L15,33 L13,33 L9,21 L2,6 Z " fill="#AFB5B9" transform="translate(448,392)"/>
<path d="M0,0 L5,1 L5,3 L0,4 L-3,8 L-6,16 L-7,17 L-7,24 L-6,31 L-7,36 L1,38 L4,35 L5,31 L7,31 L6,37 L3,41 L-5,40 L-9,36 L-10,33 L-10,19 L-6,8 L-5,6 L-3,6 L-1,1 Z " fill="#C5CFD6" transform="translate(879,680)"/>
<path d="M0,0 L1,3 L-9,34 L-13,47 L-15,45 L-16,41 L-13,38 L-13,33 L-11,33 L-11,28 L-8,23 L-7,13 L-5,11 L-8,11 L-7,5 L-1,5 Z " fill="#A7B2BA" transform="translate(689,719)"/>
<path d="M0,0 L3,0 L3,3 L11,6 L11,4 L17,3 L17,5 L5,10 L-9,13 L-29,13 L-32,11 L-23,10 L-23,12 L-14,12 L-15,9 L-8,10 L-10,8 L-5,9 L-4,7 L0,8 L4,6 L1,5 Z " fill="#B3BEC5" transform="translate(877,846)"/>
<path d="M0,0 L1,0 L1,19 L0,35 L-3,35 L-4,31 L-4,28 L-7,29 L-7,25 L-5,25 L-5,11 L-3,11 Z " fill="#ECF7FD" transform="translate(757,661)"/>
<path d="M0,0 L9,0 L9,6 L11,9 L6,13 L12,16 L10,20 L8,20 L8,22 L2,22 L5,21 L3,17 L1,15 L2,8 L2,2 Z " fill="#D3D7DA" transform="translate(622,840)"/>
<path d="M0,0 L2,0 L3,10 L1,8 L-2,11 L-5,20 L-5,33 L-5,36 L-5,41 L-7,41 L-9,23 L-10,19 L-4,7 Z " fill="#DAE5ED" transform="translate(301,385)"/>
<path d="M0,0 L5,2 L14,9 L16,10 L16,12 L20,14 L28,22 L33,26 L35,31 L34,35 L31,32 L31,30 L27,28 L25,22 L20,18 L20,16 L17,17 L12,14 L12,12 L10,11 L10,9 L5,7 L5,5 L0,2 Z " fill="#A8B3BA" transform="translate(447,328)"/>
<path d="M0,0 L3,2 L-2,7 L-8,15 L-10,17 L-12,16 L-13,23 L-17,24 L-24,21 L-24,19 L-19,18 L-17,14 L-13,12 L-12,14 L-10,13 L-9,9 L-7,10 L-7,5 L-3,2 L-1,2 Z " fill="#CCD3D8" transform="translate(896,695)"/>
<path d="M0,0 L1,4 L-7,26 L-11,36 L-14,34 L-15,26 L-13,28 L-9,24 L-7,18 L-16,17 L-15,15 L-8,15 L-8,10 L-3,9 L-2,2 Z " fill="#C3C8CC" transform="translate(744,558)"/>
<path d="M0,0 L6,1 L8,0 L11,1 L9,9 L6,11 L3,13 L4,6 L5,3 L3,3 L2,7 L-1,10 L-8,8 L-9,5 L-4,2 L0,2 Z " fill="#CDD1D5" transform="translate(908,823)"/>
<path d="M0,0 L5,1 L6,5 L8,5 L5,17 L-1,15 L-3,15 L-4,12 L-3,9 L-4,2 L1,2 Z M-1,7 L-2,9 L2,8 Z " fill="#C6CED4" transform="translate(939,345)"/>
<path d="M0,0 L1,4 L4,5 L4,18 L2,27 L1,49 L-1,48 L-1,24 Z " fill="#E0F0FA" transform="translate(858,688)"/>
<path d="M0,0 L3,0 L7,1 L3,14 L-2,26 L-4,27 L-4,24 L-6,24 L-6,21 L-8,20 L-6,19 L-4,20 L-4,15 L0,14 L0,8 L1,4 L-1,3 Z " fill="#A4ABB0" transform="translate(473,644)"/>
<path d="M0,0 L3,2 L2,12 L-2,16 L-12,19 L-28,20 L-26,18 L-18,18 L-18,16 L-10,13 L-8,12 L-5,13 L-4,11 L-2,11 L0,5 Z " fill="#C1CCD4" transform="translate(648,844)"/>
<path d="M0,0 L2,0 L0,4 L-5,9 L-11,14 L-13,17 L-16,17 L-16,19 L-22,22 L-24,22 L-25,18 L-24,17 L-26,15 L-24,13 L-24,15 L-15,12 L-14,10 L-10,11 L-9,8 L-7,6 L-3,5 L-2,2 L0,2 Z " fill="#B8C5CD" transform="translate(920,827)"/>
<path d="M0,0 L1,2 L3,2 L3,0 L7,2 L7,7 L7,10 L0,15 L-2,15 L-2,17 L-6,16 L-5,11 L-1,11 L-1,9 L-4,8 L-2,8 L-1,1 Z M4,1 Z " fill="#CBCED1" transform="translate(409,331)"/>
<path d="M0,0 L3,1 L3,8 L6,7 L5,5 L9,4 L9,7 L11,7 L10,11 L7,11 L10,13 L9,15 L4,13 L2,12 L1,17 L0,15 L-3,15 L-2,11 L-3,8 L-2,4 Z " fill="#C5CACE" transform="translate(446,451)"/>
<path d="M0,0 L5,3 L8,4 L9,2 L11,2 L14,6 L14,8 L19,8 L19,9 L14,9 L12,13 L12,11 L4,11 L-1,8 L-1,2 Z " fill="#DBE0E5" transform="translate(240,864)"/>
<path d="M0,0 L17,0 L31,3 L36,5 L33,8 L30,8 L30,6 L23,7 L22,3 L20,4 L6,4 L6,1 L0,1 Z " fill="#DFEBF3" transform="translate(362,344)"/>
<path d="M0,0 L3,1 L3,11 L0,11 L-1,17 L-5,17 L-5,27 L-9,27 L-10,25 L-3,7 Z M1,1 Z " fill="#D7E5EE" transform="translate(533,479)"/>
<path d="M0,0 L5,1 L5,9 L4,11 L7,11 L7,17 L5,19 L5,22 L3,21 L1,16 L1,10 L-2,10 L-3,8 L-3,1 Z " fill="#C6CBCF" transform="translate(235,480)"/>
<path d="M0,0 L2,1 L2,12 L4,16 L6,21 L7,27 L8,31 L8,37 L5,37 L1,22 L-1,7 Z " fill="#C0CDD5" transform="translate(567,819)"/>
<path d="M0,0 L1,0 L2,8 L-1,9 L0,13 L5,13 L6,15 L2,14 L2,20 L3,23 L-2,23 L-2,26 L0,26 L-1,31 L1,31 L0,36 L-2,33 L-5,20 L-4,16 L-2,16 L-3,6 L-1,6 Z M2,17 Z " fill="#CBD1D5" transform="translate(206,793)"/>
<path d="M0,0 L23,0 L36,4 L39,6 L39,8 L36,8 L36,10 L34,9 L24,3 L18,3 L18,2 L-1,2 L-1,4 L1,4 L1,6 L-9,4 L-7,2 Z " fill="#AAB4BB" transform="translate(260,719)"/>
<path d="M0,0 L2,4 L0,8 L-3,8 L-4,13 L-8,15 L-13,16 L-13,18 L-16,19 L-17,22 L-19,22 L-20,20 L-27,20 L-25,18 L-15,14 L-9,10 Z " fill="#A5B2BA" transform="translate(355,475)"/>
<path d="M0,0 L2,0 L1,7 L-5,23 L-11,40 L-13,41 L-13,30 L-10,29 L-5,12 L-3,7 L-4,5 Z " fill="#DEEEF8" transform="translate(733,515)"/>
<path d="M0,0 L5,1 L6,5 L6,7 L9,7 L10,10 L6,10 L5,12 L5,9 L-1,8 L-4,5 L-5,6 L-11,6 L-12,10 L-12,4 L-9,1 L-1,2 Z " fill="#BABEC1" transform="translate(634,489)"/>
<path d="M0,0 L4,0 L4,2 L-1,4 L-3,9 L-12,11 L-17,15 L-20,15 L-21,22 L-24,23 L-25,17 L-13,8 L-2,1 Z " fill="#ADB7BF" transform="translate(300,321)"/>
<path d="M0,0 L7,1 L10,3 L9,9 L4,9 L4,7 L-1,8 L-2,7 L-3,11 L-5,7 L-5,5 L-3,5 L-3,2 L5,3 L0,1 Z M-7,11 L-4,12 L-5,18 L-9,21 L-11,21 L-10,18 L-7,18 Z " fill="#CED3D6" transform="translate(239,392)"/>
<path d="M0,0 L1,2 L-1,2 L-1,4 L1,5 L0,12 L-4,12 L-3,18 L-5,18 L-4,22 L-8,21 L-9,26 L-14,29 L-13,24 L-2,1 Z M0,8 Z " fill="#B8BEC3" transform="translate(935,778)"/>
<path d="M0,0 L3,1 L2,4 L0,4 L-1,6 L-5,7 L-5,10 L-12,10 L-17,15 L-19,15 L-20,19 L-25,19 L-23,15 L-17,10 L-11,6 Z M-3,4 Z " fill="#DDECF5" transform="translate(341,350)"/>
<path d="M0,0 L1,4 L1,12 L2,16 L4,17 L0,18 L-2,17 L-3,19 L-6,12 L-8,10 L-7,9 L-9,7 L-4,6 L-5,4 L-3,4 L-3,2 Z " fill="#C7CCD1" transform="translate(272,793)"/>
<path d="M0,0 L1,3 L8,3 L8,7 L10,7 L11,10 L1,9 L-13,2 L-9,1 L-7,2 L-1,2 Z " fill="#B7C1C9" transform="translate(832,847)"/>
<path d="M0,0 L2,0 L2,10 L0,13 L-2,13 L-1,19 L-4,27 L-9,40 L-10,40 L-9,30 L-3,11 Z M0,6 Z " fill="#D9E6EE" transform="translate(504,565)"/>
<path d="M0,0 L3,1 L3,3 L6,3 L6,5 L4,5 L5,8 L2,8 L2,10 L-2,11 L-1,5 L-2,2 L-4,1 Z M5,6 Z M-4,10 L-1,13 L-3,15 L-2,20 L-2,23 L-6,22 L-6,18 L-9,19 L-10,14 L-5,13 Z " fill="#AFB2B4" transform="translate(435,562)"/>
<path d="M0,0 L3,1 L1,13 L-2,17 L-3,25 L-5,25 L-5,27 L-3,27 L-4,33 L-8,34 L-7,25 L-1,2 Z " fill="#AEB9C0" transform="translate(365,731)"/>
<path d="M0,0 L7,6 L10,7 L11,10 L9,16 L5,15 L5,18 L0,17 L1,10 L1,6 L2,4 L0,4 Z M3,8 Z M5,3 Z " fill="#CCD0D3" transform="translate(287,479)"/>
<path d="M0,0 L2,1 L6,12 L12,23 L12,27 L8,25 L5,22 L3,14 L2,13 L-1,16 L-2,14 L0,14 Z " fill="#AEBBC4" transform="translate(864,794)"/>
<path d="M0,0 L3,0 L3,5 L0,6 L1,8 L2,11 L1,13 L2,16 L-2,17 L-6,16 L-5,1 Z M-2,8 Z M-1,13 Z " fill="#CAD2D8" transform="translate(230,423)"/>
<path d="M0,0 L3,1 L-1,10 L-9,26 L-11,27 L-10,21 L-11,18 L-9,18 L-8,14 L-6,14 L-5,10 L-6,8 L-3,8 L-3,1 Z " fill="#AAB3B9" transform="translate(443,728)"/>
<path d="M0,0 L1,4 L4,4 L4,13 L8,14 L6,16 L2,17 L-2,17 L-6,15 L-2,14 L-3,10 L-1,1 Z " fill="#C3C8CC" transform="translate(874,838)"/>
<path d="M0,0 L3,0 L7,4 L7,6 L5,6 L4,12 L2,12 L2,10 L0,10 L0,12 L-2,12 L-2,9 L-6,8 L-5,2 L0,2 Z " fill="#CED1D4" transform="translate(924,807)"/>
<path d="M0,0 L4,2 L4,4 L8,5 L9,9 L8,11 L5,11 L5,13 L1,11 L-2,10 L-2,5 L-4,5 L-4,9 L-6,9 L-7,5 L-6,3 L2,4 Z " fill="#C3C4C5" transform="translate(815,572)"/>
<path d="M0,0 L2,1 L0,7 L-3,12 L-6,17 L-8,17 L-10,24 L-14,30 L-14,32 L-16,32 L-18,40 L-20,40 L-21,42 L-20,37 L-5,8 Z " fill="#BBC5CC" transform="translate(788,410)"/>
<path d="M0,0 L1,0 L1,6 L6,7 L7,10 L2,11 L-2,18 L-4,26 L-8,28 L-4,12 L-1,4 Z " fill="#DDECF7" transform="translate(939,374)"/>
<path d="M0,0 L6,0 L3,1 L1,5 L-9,20 L-17,33 L-20,38 L-22,38 L-22,35 L-20,35 L-18,30 L-14,21 L-12,20 L-10,16 L-7,12 L-5,8 L-2,5 L-1,1 Z " fill="#B7C2CA" transform="translate(828,376)"/>
<path d="M0,0 L6,0 L4,4 L-3,11 L-4,9 L-11,9 L-9,3 L-2,1 Z " fill="#B4B7B9" transform="translate(252,776)"/>
<path d="M0,0 L2,4 L3,8 L-2,10 L-4,15 L-3,18 L-5,18 L-6,22 L-5,24 L-8,26 L-9,30 L-12,33 L-14,32 L-8,17 L-1,2 Z " fill="#B9C1C7" transform="translate(748,488)"/>
<path d="M0,0 L1,0 L0,10 L-7,38 L-9,39 L-8,26 L-7,23 L-5,23 L-6,15 L-4,12 L-2,5 Z " fill="#D7E7F1" transform="translate(617,492)"/>
<path d="M0,0 L2,1 L1,3 L3,3 L3,5 L-1,5 L0,8 L-4,10 L-8,17 L-12,18 L-13,21 L-14,17 L-3,1 Z " fill="#ACB5BC" transform="translate(257,358)"/>
<path d="M0,0 L2,1 L7,0 L3,3 L-4,6 L-19,7 L-29,5 L-29,1 L-24,2 L-24,4 L-18,3 L-12,4 L-3,2 Z " fill="#DEEEF9" transform="translate(296,848)"/>
<path d="M0,0 L2,1 L2,4 L7,4 L7,6 L9,8 L7,17 L9,17 L10,21 L8,25 L6,22 L1,7 Z " fill="#B2BBC1" transform="translate(766,767)"/>
<path d="M0,0 L5,1 L2,10 L1,13 L3,15 L0,17 L-2,26 L-5,27 L-4,17 Z " fill="#9DA7AE" transform="translate(583,619)"/>
<path d="M0,0 L4,1 L8,0 L6,10 L1,26 L0,23 L1,18 L0,16 L1,6 Z " fill="#ACB6BD" transform="translate(664,776)"/>
<path d="M0,0 L6,1 L3,3 L-4,3 L-4,5 L-9,7 L-11,8 L-16,9 L-19,11 L-26,11 L-23,8 L-8,2 Z " fill="#AFBAC2" transform="translate(332,309)"/>
<path d="M0,0 L6,1 L2,2 L2,4 L4,5 L3,8 L5,14 L7,14 L7,16 L5,16 L6,18 L9,15 L8,25 L4,27 L1,10 L-2,1 Z " fill="#DBE9F3" transform="translate(950,698)"/>
<path d="M0,0 L2,2 L5,15 L4,19 L-3,19 L-3,16 L-3,13 L-1,9 L0,7 L-3,6 Z " fill="#C0C8CE" transform="translate(699,388)"/>
<path d="M0,0 L5,0 L4,10 L-1,28 L-2,28 L-1,7 Z " fill="#BDC3C9" transform="translate(874,568)"/>
<path d="M0,0 L2,0 L1,5 L0,7 L1,12 L-1,11 L-3,14 L-3,11 L-5,11 L-7,20 L-9,22 L-10,20 L-13,22 L-12,18 L-5,7 Z " fill="#B6BFC7" transform="translate(814,369)"/>
<path d="M0,0 L2,1 L5,9 L6,15 L6,28 L4,35 L2,31 L2,11 L0,4 Z " fill="#B0BBC4" transform="translate(320,748)"/>
<path d="M0,0 L6,1 L5,11 L4,14 L-1,13 L-2,17 L-3,3 L-1,3 Z " fill="#CAD0D5" transform="translate(227,451)"/>
<path d="M0,0 L1,3 L-5,18 L-6,16 L-10,16 L-11,10 L-14,10 L-14,7 L-9,7 L-8,8 L-3,8 L-2,4 Z " fill="#B5BCC1" transform="translate(467,676)"/>
<path d="M0,0 L2,1 L0,12 L-1,37 L-4,40 L-5,38 L-3,33 L-3,23 L-4,20 L-5,13 L-3,13 L-3,5 L-1,5 Z " fill="#C7D0D5" transform="translate(285,417)"/>
<path d="M0,0 L3,0 L2,4 L0,9 L-2,9 L-3,13 L-5,11 L-5,9 L-10,10 L-16,12 L-16,9 L-3,2 L0,2 Z " fill="#D3E1EC" transform="translate(904,844)"/>
<path d="M0,0 L4,4 L4,8 L-1,8 L-3,10 L-1,14 L-6,15 L-10,15 L-10,10 L-8,10 L-7,7 L-3,5 L-2,2 L0,3 Z " fill="#B6BABD" transform="translate(643,705)"/>
<path d="M0,0 L3,0 L0,10 L-6,25 L-9,32 L-11,29 L-9,29 L-12,24 L-12,21 L-8,22 L-7,19 L-5,16 L-3,8 L-2,5 Z " fill="#BCC3C9" transform="translate(772,480)"/>
<path d="M0,0 L3,3 L10,16 L9,21 L7,20 L6,17 L4,15 L5,13 L0,11 L-1,3 Z " fill="#D7E7F1" transform="translate(442,384)"/>
<path d="M0,0 L4,1 L8,4 L14,4 L18,5 L18,8 L22,10 L22,12 L15,11 L7,7 L2,4 L2,2 L0,2 Z " fill="#CAD4DB" transform="translate(236,870)"/>
<path d="M0,0 L3,1 L12,14 L13,18 L11,18 L10,16 L6,16 L6,14 L3,14 L1,5 Z " fill="#A2ABB2" transform="translate(483,360)"/>
<path d="M0,0 L2,0 L3,2 L5,2 L6,8 L-1,16 L-8,22 L-13,23 L-9,19 L-4,17 L-4,15 L-1,13 Z " fill="#DEEEF7" transform="translate(911,803)"/>
<path d="M0,0 L2,0 L1,14 L0,22 L-1,27 L-5,31 L-5,24 Z " fill="#E0EEF8" transform="translate(870,608)"/>
<path d="M0,0 L6,2 L3,4 L11,5 L14,6 L14,9 L12,9 L12,11 L5,11 L5,9 L2,10 L2,13 L-1,12 L0,5 L-3,3 Z " fill="#B9BEC3" transform="translate(230,736)"/>
<path d="M0,0 L6,0 L6,8 L7,12 L3,12 L4,16 L2,17 L2,21 L0,23 L0,13 L1,4 Z " fill="#CFD2D5" transform="translate(761,632)"/>
<path d="M0,0 L6,2 L8,4 L9,8 L12,10 L10,10 L10,12 L14,14 L16,17 L11,17 L3,7 L0,3 Z " fill="#EBF3F7" transform="translate(479,351)"/>
<path d="M0,0 L2,4 L4,8 L-1,10 L-7,12 L-10,10 L-9,7 L-8,8 L-7,6 L-4,6 L-4,4 L-6,3 L-1,2 Z " fill="#B3B6B9" transform="translate(399,597)"/>
<path d="M0,0 L9,1 L6,4 L3,6 L-1,8 L-5,8 L-8,2 Z " fill="#CCD1D5" transform="translate(581,320)"/>
<path d="M0,0 L1,2 L0,4 L-2,4 L-2,7 L-4,7 L-4,13 L-6,13 L-9,10 L-14,5 L-15,2 L-11,2 L-10,5 L-8,6 L-7,4 L-3,2 Z " fill="#CED4D8" transform="translate(656,830)"/>
<path d="M0,0 L5,0 L4,4 L5,6 L3,11 L6,12 L-4,12 L-4,9 L-9,8 L-7,5 L-6,6 L2,6 L2,2 L0,2 Z " fill="#D2D3D5" transform="translate(679,389)"/>
<path d="M0,0 L6,1 L11,4 L11,11 L7,25 L5,25 L5,20 L7,20 L6,15 L8,10 L6,8 L6,4 L0,1 Z " fill="#B1C0CA" transform="translate(940,325)"/>
<path d="M0,0 L2,0 L1,6 L1,20 L4,27 L-2,26 L-2,21 L-4,20 L-2,4 Z M-3,26 Z " fill="#E3F0F9" transform="translate(869,693)"/>
<path d="M0,0 L10,1 L11,2 L11,15 L10,15 L10,3 L3,3 L1,8 L-1,8 L0,14 L-6,16 L-4,10 Z " fill="#A6B2BA" transform="translate(362,459)"/>
<path d="M0,0 L2,0 L0,9 L-6,27 L-7,27 L-7,18 L-5,7 L-2,6 Z " fill="#B3BDC4" transform="translate(935,381)"/>
<path d="M0,0 L3,1 L3,3 L-1,5 L-8,7 L-11,10 L-16,11 L-16,9 L-18,7 L-4,1 Z " fill="#C3CCD3" transform="translate(570,323)"/>
<path d="M0,0 L20,0 L36,3 L36,4 L-4,2 Z " fill="#B1BDC5" transform="translate(892,317)"/>
<path d="M0,0 L2,3 L3,1 L7,2 L5,4 L3,10 L2,11 L1,22 L-2,25 L-2,16 Z " fill="#A5B2B9" transform="translate(569,685)"/>
<path d="M0,0 L3,0 L1,9 L-4,25 L-8,24 L-6,17 L-4,17 L-4,10 L-1,7 Z " fill="#B0BBC3" transform="translate(714,639)"/>
<path d="M0,0 L4,1 L4,5 L2,12 L-1,11 L-1,9 L-3,9 L-4,6 L-6,4 L-6,2 L-2,3 L-2,1 Z M0,12 L0,15 L-2,14 Z " fill="#C9CED1" transform="translate(547,336)"/>
<path d="M0,0 L6,2 L10,4 L11,6 L14,7 L15,12 L12,13 L4,6 L0,3 Z " fill="#D1DDE7" transform="translate(818,849)"/>
<path d="M0,0 L5,5 L7,17 L9,19 L9,24 L12,25 L9,27 L8,36 L7,36 L5,18 L1,4 Z " fill="#BAC4CC" transform="translate(934,708)"/>
<path d="M0,0 L4,1 L12,8 L16,14 L17,19 L14,22 L13,18 L12,14 L9,11 L9,9 L6,9 L6,7 L4,7 L3,3 Z " fill="#BDCAD2" transform="translate(667,343)"/>
<path d="M0,0 L3,1 L3,4 L1,5 L5,8 L0,12 L-2,12 L-4,10 L-9,7 L-9,5 L-5,4 L-6,7 L-3,5 L-4,2 L0,2 Z " fill="#AFB3B6" transform="translate(443,533)"/>
<path d="M0,0 L7,2 L7,3 L0,4 L1,10 L-5,11 L-5,9 L-9,8 L-7,8 L-7,3 Z " fill="#CED1D4" transform="translate(384,334)"/>
<path d="M0,0 L6,1 L5,6 L-4,6 L-7,7 L-10,10 L-12,7 L-5,3 L-3,3 L-3,1 Z M-13,8 Z M-15,9 L-13,10 Z " fill="#BCC2C6" transform="translate(859,330)"/>
<path d="M0,0 L2,0 L3,2 L7,0 L6,5 L7,8 L14,8 L15,13 L14,17 L12,17 L12,14 L8,12 L0,1 Z " fill="#C5CDD3" transform="translate(241,504)"/>
<path d="M0,0 L2,4 L0,8 L2,8 L0,13 L1,15 L-3,15 L-6,18 L-7,14 Z " fill="#ABB1B5" transform="translate(346,794)"/>
<path d="M0,0 L1,2 L6,3 L5,11 L3,12 L3,17 L0,17 L-1,10 L-1,7 Z " fill="#C4CACE" transform="translate(536,446)"/>
<path d="M0,0 L5,1 L8,2 L10,4 L10,7 L7,8 L5,10 L5,8 L1,9 L2,5 L-6,5 L-5,3 L-1,2 Z " fill="#C6CACD" transform="translate(558,355)"/>
<path d="M0,0 L2,0 L1,2 Z M-14,2 L-7,2 L-7,5 L1,2 L1,7 L4,7 L3,9 L-14,6 Z " fill="#CBCED2" transform="translate(607,368)"/>
<path d="M0,0 L2,1 L3,5 L-2,10 L2,9 L4,11 L3,16 L-1,14 L0,13 L-3,12 L-4,5 L0,3 Z M-5,10 L-4,14 L-6,14 Z " fill="#BFC0C2" transform="translate(839,552)"/>
<path d="M0,0 L6,0 L8,4 L7,7 L9,8 L7,11 L3,10 L3,8 L0,8 Z M6,7 Z " fill="#CCD1D6" transform="translate(225,440)"/>
<path d="M0,0 L7,3 L8,6 L11,8 L4,9 L2,10 L-1,9 L-2,4 Z " fill="#CCCDCF" transform="translate(683,422)"/>
<path d="M0,0 L3,3 L3,5 L5,5 L5,7 L3,7 L1,9 L1,12 L-1,14 L-1,12 L-4,13 L-6,15 L-5,10 Z " fill="#A2ABB1" transform="translate(213,754)"/>
<path d="M0,0 L1,3 L-4,20 L-9,19 L-10,21 L-11,16 L-10,13 L-4,13 L-1,1 Z " fill="#A5ACB1" transform="translate(499,579)"/>
<path d="M0,0 L1,4 L3,4 L2,8 L4,8 L4,10 L7,12 L6,14 L4,14 L4,12 L-3,13 L-3,7 Z " fill="#B2B7BB" transform="translate(404,549)"/>
<path d="M0,0 L2,1 L-3,14 L-6,20 L-7,24 L-10,27 L-9,21 L-3,4 Z " fill="#DFEFF9" transform="translate(761,520)"/>
<path d="M0,0 L1,3 L-3,12 L-6,17 L-7,24 L-13,29 L-12,25 L-4,7 Z " fill="#C2CCD3" transform="translate(764,455)"/>
<path d="M0,0 L2,0 L4,4 L6,5 L6,7 L10,9 L10,12 L1,12 L1,4 L-1,3 Z " fill="#E0EDF5" transform="translate(223,860)"/>
<path d="M0,0 L7,0 L8,2 L8,7 L12,9 L12,10 L6,10 L6,8 L0,9 L2,4 L0,4 Z " fill="#BFC5CB" transform="translate(848,848)"/>
<path d="M0,0 L1,0 L3,12 L11,14 L14,11 L15,7 L17,7 L16,13 L13,17 L5,16 L1,12 L0,9 Z " fill="#BFC9D0" transform="translate(869,704)"/>
<path d="M0,0 L2,1 L2,3 L1,8 L0,12 L-5,12 L-6,5 L-2,1 Z " fill="#B2B6B9" transform="translate(627,535)"/>
<path d="M0,0 L2,4 L4,9 L5,25 L3,25 L2,17 L0,15 L0,9 L-6,8 L-6,7 L-1,7 Z " fill="#C1C9CE" transform="translate(704,415)"/>
<path d="M0,0 L1,4 L-3,18 L-8,20 L-14,20 L-15,18 L-6,17 L-5,10 L-3,10 L-4,7 L-2,2 L0,2 Z " fill="#BCC5CC" transform="translate(942,360)"/>
<path d="M0,0 L2,3 L5,5 L0,9 L-3,8 L-3,12 L-8,10 L-9,8 L-8,5 L-2,5 L-3,4 Z " fill="#CFD1D3" transform="translate(420,344)"/>
<path d="M0,0 L3,1 L2,3 L4,7 L4,10 L3,14 L-2,13 L-2,9 L-5,8 L-5,6 L-2,6 Z " fill="#B1B5B8" transform="translate(423,542)"/>
<path d="M0,0 L2,2 L2,6 L0,6 L1,13 L0,16 L0,20 L-5,19 L-4,12 Z " fill="#DDEBF6" transform="translate(894,516)"/>
<path d="M0,0 L3,0 L3,3 L9,2 L12,2 L15,3 L11,7 L2,11 L-1,10 L3,7 L7,5 L7,4 L1,4 L-1,3 Z " fill="#BBC0C3" transform="translate(321,870)"/>
<path d="M0,0 L3,0 L3,4 L1,6 L-2,6 L-1,10 L-6,8 L-12,7 L-12,5 L-4,2 Z " fill="#CAD1D6" transform="translate(301,849)"/>
<path d="M0,0 L3,0 L3,2 L1,2 L1,11 L-5,12 L-8,12 L-10,10 L-9,8 L-6,8 L-2,4 Z " fill="#A9ABAF" transform="translate(647,638)"/>
<path d="M0,0 L1,4 L-3,24 L-5,26 L-5,13 L-3,6 L-1,1 Z " fill="#DEEEF8" transform="translate(773,560)"/>
<path d="M0,0 L1,3 L1,8 L-2,12 L-3,21 L-5,22 L-7,21 L-3,5 Z " fill="#D7E7F2" transform="translate(523,507)"/>
<path d="M0,0 L1,0 L1,13 L-1,24 L-3,29 L-4,29 L-4,21 L-1,3 Z " fill="#A6B1B9" transform="translate(379,659)"/>
<path d="M0,0 L2,0 L1,10 L-1,18 L-3,18 L-3,20 L-6,21 L-5,18 L-2,8 L-3,6 L-5,5 L-2,4 Z " fill="#B8BDC1" transform="translate(870,598)"/>
<path d="M0,0 L5,0 L5,10 L-2,8 L-3,2 L0,2 Z " fill="#AFB5B8" transform="translate(603,568)"/>
<path d="M0,0 L2,0 L1,5 L-13,20 L-16,19 L-15,16 L-12,16 L-10,13 L-8,13 L-8,9 L-5,9 L-3,5 L0,4 Z " fill="#E1EBF1" transform="translate(360,423)"/>
<path d="M0,0 L2,0 L3,3 L1,7 L4,11 L-1,11 L0,16 L-5,16 L-4,9 Z " fill="#AAB5BD" transform="translate(429,480)"/>
<path d="M0,0 L27,0 L27,1 L-3,3 L-4,4 L-11,4 L-8,1 Z " fill="#AAB7C0" transform="translate(352,305)"/>
<path d="M0,0 L1,3 L-5,7 L-6,9 L-11,11 L-10,12 L-11,15 L-14,15 L-14,13 L-16,12 L-8,5 L-3,1 Z " fill="#ACB9C2" transform="translate(240,727)"/>
<path d="M0,0 L1,0 L2,7 L0,11 L-1,18 L0,21 L-4,22 L-3,10 L-1,1 Z " fill="#E1EDF6" transform="translate(708,523)"/>
<path d="M0,0 L6,1 L3,11 L1,17 L-1,16 L-2,13 L0,11 L-2,10 L2,8 L-1,1 Z " fill="#ABB5BB" transform="translate(520,495)"/>
<path d="M0,0 L2,1 L4,1 L3,6 L-2,16 L-4,15 L-3,6 L-1,4 Z " fill="#DCECF6" transform="translate(436,456)"/>
<path d="M0,0 L3,1 L1,7 L1,9 L-1,9 L1,15 L-3,19 L-5,19 L-3,9 Z " fill="#DFEEF9" transform="translate(735,586)"/>
<path d="M0,0 L3,4 L-1,20 L-4,30 L-5,30 L-4,19 L0,6 Z " fill="#DEEDF7" transform="translate(792,476)"/>
<path d="M0,0 L13,0 L14,5 L12,6 L-4,2 Z M1,1 Z " fill="#EBF6FA" transform="translate(402,306)"/>
<path d="M0,0 L6,0 L7,2 L6,6 L9,7 L1,8 L0,7 Z M7,0 L11,1 L7,1 Z " fill="#C7CCD0" transform="translate(288,808)"/>
<path d="M0,0 L3,1 L3,15 L1,14 L-1,9 L-2,11 L-4,5 L-2,1 Z " fill="#B5BCC1" transform="translate(676,671)"/>
<path d="M0,0 L2,0 L2,5 L6,7 L6,9 L2,8 L2,10 L5,11 L0,12 L0,10 L-3,9 L-2,2 L0,2 Z " fill="#B5B6B8" transform="translate(650,479)"/>
<path d="M0,0 L1,3 L-5,17 L-6,15 L-8,16 L-9,18 L-11,16 Z " fill="#EAF2F6" transform="translate(831,377)"/>
<path d="M0,0 L8,0 L4,4 L1,4 L1,6 L-4,8 L-7,8 L-7,4 L0,1 Z " fill="#DFEBF2" transform="translate(295,887)"/>
<path d="M0,0 L4,0 L4,2 L8,2 L7,8 L4,9 L4,7 L-1,7 L-2,4 Z " fill="#D3D7DA" transform="translate(633,808)"/>
<path d="M0,0 L3,1 L1,6 L1,13 L-2,17 L-4,16 L-4,9 Z " fill="#DCECF7" transform="translate(766,503)"/>
<path d="M0,0 L9,0 L10,4 L9,7 L2,6 Z " fill="#CBCED1" transform="translate(607,320)"/>
<path d="M0,0 L7,1 L5,6 L0,12 L-2,10 L-1,5 Z " fill="#ACB1B5" transform="translate(313,791)"/>
<path d="M0,0 L2,0 L3,6 L1,7 L4,9 L-2,8 L-6,7 L-6,5 L-9,5 L-9,3 L0,2 Z " fill="#CBCFD2" transform="translate(279,748)"/>
<path d="M0,0 L4,0 L5,4 L4,9 L0,9 L0,7 L-4,7 L-3,3 L-4,1 Z " fill="#ADB1B4" transform="translate(468,554)"/>
<path d="M0,0 L2,0 L1,13 L-1,15 L-5,16 L-4,10 Z M-6,16 Z " fill="#E0F0FA" transform="translate(774,482)"/>
<path d="M0,0 L2,0 L2,2 L0,2 L0,7 L2,7 L2,9 L-2,9 L-2,11 L1,11 L1,13 L-3,13 L-4,15 L-6,15 L-5,9 Z " fill="#B1B9BF" transform="translate(437,465)"/>
<path d="M0,0 L9,0 L7,3 L8,9 L3,5 L4,9 L0,7 L0,9 L-2,9 L-3,5 L2,3 L3,1 Z " fill="#B7B8BA" transform="translate(648,463)"/>
<path d="M0,0 L4,1 L-2,13 L-4,13 L-5,15 L-7,12 L-8,9 L-8,7 L-3,7 L0,6 Z " fill="#ACB6BD" transform="translate(560,415)"/>
<path d="M0,0 L3,1 L3,10 L2,11 L-6,11 L-2,7 L-1,1 Z " fill="#D0D4D8" transform="translate(934,367)"/>
<path d="M0,0 L9,2 L11,4 L10,5 L12,7 L10,8 L3,8 L3,5 L-1,3 L1,2 Z " fill="#B9C0C6" transform="translate(929,321)"/>
<path d="M0,0 L1,3 L3,3 L4,7 L1,18 L-1,16 L-1,2 Z " fill="#BFCCD4" transform="translate(657,812)"/>
<path d="M0,0 L5,2 L9,4 L14,9 L13,11 L7,8 L2,8 L2,6 L0,4 L2,4 L2,2 L0,2 Z " fill="#CBCFD2" transform="translate(867,818)"/>
<path d="M0,0 L3,1 L2,4 L0,5 L1,8 L7,8 L6,11 L3,12 L-2,10 L-4,3 L-2,3 Z " fill="#AFB2B5" transform="translate(481,556)"/>
<path d="M0,0 L1,4 L0,8 L-2,8 L-3,16 L-5,23 L-8,24 L-7,18 L-1,2 Z " fill="#BFC8CE" transform="translate(816,420)"/>
<path d="M0,0 L5,3 L6,6 L4,6 L4,4 L2,4 L3,8 L-1,9 L-2,11 L-5,11 L-4,6 Z " fill="#B4BBC1" transform="translate(460,424)"/>
<path d="M0,0 L2,1 L1,12 L-2,15 L-4,19 L-6,19 L-3,7 Z " fill="#B2BCC3" transform="translate(823,399)"/>
<path d="M0,0 L4,1 L4,3 L5,7 L7,9 L5,9 L6,12 L4,12 L2,15 L0,6 L-2,5 Z " fill="#CACFD3" transform="translate(619,384)"/>
<path d="M0,0 L6,1 L14,6 L13,9 L8,9 L7,6 L0,2 Z " fill="#C1CCD3" transform="translate(640,326)"/>
<path d="M0,0 L1,2 L3,2 L2,6 L0,7 L-5,19 L-7,18 L-6,13 Z " fill="#D9E8F3" transform="translate(460,698)"/>
<path d="M0,0 L1,0 L1,8 L3,8 L3,22 L1,24 L1,17 L-2,18 L-2,14 L0,14 Z " fill="#F3F8F6" transform="translate(752,672)"/>
<path d="M0,0 L5,1 L8,2 L9,7 L4,8 L0,9 L1,4 Z " fill="#A4A6AA" transform="translate(600,617)"/>
<path d="M0,0 L4,2 L4,6 L4,11 L2,12 L1,9 L-2,9 L-2,1 Z " fill="#ABACAE" transform="translate(413,583)"/>
<path d="M0,0 L3,2 L2,8 L-1,16 L-4,16 L-6,13 L-6,10 L-2,10 L-2,7 L1,7 Z " fill="#BCC2C6" transform="translate(759,510)"/>
<path d="M0,0 L2,2 L1,10 L-2,17 L-4,16 L-3,6 L-1,1 Z " fill="#BCC4CB" transform="translate(908,459)"/>
<path d="M0,0 L4,1 L2,5 L-1,7 L-2,12 L-6,10 L-4,10 L-4,8 L-6,7 L-5,2 L-1,1 Z " fill="#B2B8BC" transform="translate(512,363)"/>
<path d="M0,0 L2,4 L2,13 L-1,15 L-3,14 L-3,7 Z " fill="#DCE4EB" transform="translate(510,547)"/>
<path d="M0,0 L2,4 L4,6 L0,13 L-4,13 L-2,4 Z " fill="#A9B1B7" transform="translate(415,516)"/>
<path d="M0,0 L4,2 L2,8 L0,6 L-2,12 L-4,10 L-5,1 L-3,1 L-3,3 Z " fill="#D9E6EE" transform="translate(429,472)"/>
<path d="M0,0 L1,4 L1,9 L-4,17 L-6,18 L-4,9 Z " fill="#DAEAF5" transform="translate(471,670)"/>
<path d="M0,0 L2,0 L2,14 L-1,20 L-2,16 L-1,13 L-3,11 L-1,9 L-3,4 L-4,1 L-1,2 Z M0,11 Z " fill="#A5A8AA" transform="translate(641,604)"/>
<path d="M0,0 L4,1 L8,0 L9,4 L8,9 L5,9 L5,7 L2,6 Z M7,1 Z " fill="#B1B3B5" transform="translate(462,599)"/>
<path d="M0,0 L6,0 L5,6 L2,13 L0,11 Z " fill="#DDECF6" transform="translate(713,560)"/>
<path d="M0,0 L5,1 L4,5 L4,8 L-1,6 L-6,4 L-4,1 Z " fill="#C9CFD4" transform="translate(272,527)"/>
<path d="M0,0 L3,1 L6,13 L4,15 L0,11 L1,8 L-1,2 Z M1,14 L3,15 Z " fill="#C1CCD5" transform="translate(282,457)"/>
<path d="M0,0 L4,2 L4,4 L8,3 L8,7 L1,9 L-2,9 L-1,5 Z " fill="#D8D9DB" transform="translate(664,344)"/>
<path d="M0,0 L5,1 L7,3 L5,4 L2,3 L4,7 L7,9 L2,10 L-2,4 Z " fill="#C7D0D7" transform="translate(212,837)"/>
<path d="M0,0 L4,1 L2,5 L-8,16 L-11,15 L-9,15 L-7,11 L-5,11 L-3,6 L-2,4 L0,5 L-1,1 Z " fill="#DCEEF9" transform="translate(324,824)"/>
<path d="M0,0 Z M-1,1 L1,2 L1,10 L-1,11 L-1,9 L-5,12 L-8,11 L-8,9 L-4,6 Z " fill="#ACADAF" transform="translate(424,638)"/>
<path d="M0,0 L7,0 L7,2 L4,2 L5,6 L5,3 L7,3 L7,12 L9,13 L5,12 L2,7 L2,2 L0,2 Z " fill="#A5A9AD" transform="translate(593,585)"/>
<path d="M0,0 L3,0 L2,6 L4,10 L4,17 L2,18 L-1,5 Z " fill="#DEEDF6" transform="translate(704,398)"/>
<path d="M0,0 L3,2 L4,7 L0,9 L-1,2 Z M5,3 L7,3 L9,6 L8,10 L6,10 L4,4 Z " fill="#EDF5F8" transform="translate(784,820)"/>
<path d="M0,0 L2,0 L3,3 L-1,4 L-2,10 L-3,12 L-9,13 L-7,8 Z " fill="#9FA8AE" transform="translate(224,740)"/>
<path d="M0,0 L3,1 L0,2 L-2,6 L-8,14 L-9,14 L-9,9 L-7,4 L-1,1 Z " fill="#E6F0F5" transform="translate(224,737)"/>
<path d="M0,0 L1,3 L-2,13 L-3,11 L-8,11 L-7,5 L-1,5 Z " fill="#B0B8BF" transform="translate(689,719)"/>
<path d="M0,0 L5,1 L6,5 L6,7 L9,7 L10,10 L6,10 L5,12 L5,9 L2,9 L1,4 L3,4 Z " fill="#B7BABC" transform="translate(634,489)"/>
<path d="M0,0 L2,0 L2,2 L4,2 L2,7 L-5,5 L-5,2 L-8,1 Z " fill="#C9C9CC" transform="translate(701,494)"/>
<path d="M0,0 L1,2 L-1,3 L-4,10 L-2,11 L-2,14 L-8,15 L-7,8 L-2,1 Z " fill="#B3C2CC" transform="translate(447,449)"/>
<path d="M0,0 L4,1 L6,2 L4,7 L-2,16 L-4,14 L-2,14 L-1,10 L1,5 Z " fill="#EAF3F6" transform="translate(800,378)"/>
<path d="M0,0 L2,2 L1,4 L10,4 L12,6 L6,8 L2,9 L1,6 L-2,7 L-3,4 L-1,4 Z " fill="#C9CBCB" transform="translate(319,869)"/>
<path d="M0,0 L2,3 L0,12 L-5,17 L-4,11 L-1,1 Z " fill="#A8B2BA" transform="translate(695,637)"/>
<path d="M0,0 L5,5 L9,11 L6,11 L3,9 L4,7 L0,6 L-2,5 Z " fill="#E8F2F6" transform="translate(242,510)"/>
<path d="M0,0 L6,1 L2,2 L1,9 L4,9 L4,11 L8,13 L4,13 L2,17 L2,15 L0,15 Z " fill="#BEC8CF" transform="translate(224,439)"/>
<path d="M0,0 L2,3 L4,11 L4,19 L3,19 L3,14 L-1,13 L0,10 L-1,3 Z " fill="#DCEEF9" transform="translate(618,394)"/>
<path d="M0,0 L1,0 L1,15 L-2,14 L-2,12 L-4,12 L-4,10 L-2,10 L-2,1 Z " fill="#C7CCCE" transform="translate(322,762)"/>
<path d="M0,0 L6,1 L10,3 L9,6 L6,4 L6,7 L0,5 L3,1 Z M8,0 L12,0 L12,3 L10,3 L10,1 Z " fill="#BFC3C6" transform="translate(254,759)"/>
<path d="M0,0 L1,2 L3,2 L4,0 L5,4 L0,14 L-1,11 L-1,1 Z " fill="#A8B1B7" transform="translate(449,709)"/>
<path d="M0,0 L8,1 L7,6 L6,8 L1,8 L1,4 Z " fill="#CACED1" transform="translate(248,480)"/>
<path d="M0,0 L1,0 L1,13 L-1,25 L-2,25 L-2,11 L-1,1 Z " fill="#D7E7F4" transform="translate(622,456)"/>
<path d="M0,0 L1,4 L-1,6 L-1,13 L-5,16 L-6,11 L-2,2 Z " fill="#DDEAF3" transform="translate(926,421)"/>
<path d="M0,0 L9,2 L10,7 L6,7 L6,5 L3,5 L3,3 L0,3 L0,5 L-2,5 L-3,2 Z " fill="#CAD2D8" transform="translate(626,321)"/>
<path d="M0,0 L7,2 L8,6 L7,8 L4,8 L4,6 L1,6 L-1,1 Z " fill="#B3B3B3" transform="translate(352,807)"/>
<path d="M0,0 L1,2 L4,3 L2,3 L2,7 L5,9 L5,11 L-2,10 L-3,5 L-2,2 L0,2 Z " fill="#D3D7DA" transform="translate(599,799)"/>
<path d="M0,0 L1,4 L3,4 L4,8 L2,14 L-1,15 L-2,9 Z " fill="#D1E1EC" transform="translate(325,776)"/>
<path d="M0,0 L3,1 L3,8 L5,9 L2,15 L6,16 L2,16 L1,19 Z " fill="#E4F1FA" transform="translate(858,744)"/>
<path d="M0,0 L10,0 L9,4 L2,7 Z " fill="#CDD1D4" transform="translate(239,465)"/>
<path d="M0,0 L5,0 L5,2 L3,2 L2,7 L-2,13 L-3,9 Z " fill="#DCEBF5" transform="translate(443,444)"/>
<path d="M0,0 L7,0 L9,2 L7,7 L0,5 L-1,1 Z " fill="#C5C8CA" transform="translate(297,802)"/>
<path d="M0,0 L1,2 L3,2 L3,7 L5,8 L7,12 L7,15 L5,15 L3,10 L0,11 L0,6 L2,6 L2,4 L-1,5 Z " fill="#B1B5BA" transform="translate(592,585)"/>
<path d="M0,0 L3,0 L4,7 L2,6 L2,4 L-4,3 L-5,6 L-10,4 L-10,2 Z " fill="#C5CACE" transform="translate(509,532)"/>
<path d="M0,0 L2,3 L2,5 L16,6 L16,7 L1,8 L-4,9 L-2,3 Z " fill="#DDEBF3" transform="translate(549,443)"/>
<path d="M0,0 L2,2 L0,9 L-5,11 L-4,4 L-2,4 Z " fill="#B9BCC0" transform="translate(839,343)"/>
<path d="M0,0 L7,0 L9,2 L22,3 L22,4 L-1,5 L1,2 Z " fill="#E8F2F8" transform="translate(887,313)"/>
<path d="M0,0 L13,1 L15,0 L15,2 L20,2 L20,4 L8,4 L0,2 Z " fill="#CAD4DC" transform="translate(270,884)"/>
<path d="M0,0 L3,0 L0,9 L-3,12 L-4,5 L-2,1 Z " fill="#B4BEC4" transform="translate(940,792)"/>
<path d="M0,0 L3,0 L3,2 L6,2 L7,6 L1,8 L-1,7 Z M2,2 Z M7,3 Z " fill="#B8BCBE" transform="translate(305,769)"/>
<path d="M0,0 L2,0 L2,6 L1,8 L3,9 L1,15 L-1,14 L-2,3 L0,3 Z " fill="#BECDD6" transform="translate(428,768)"/>
<path d="M0,0 L1,4 L-3,14 L-4,11 L-10,11 L-9,9 L-5,9 L-2,1 Z " fill="#AAB2B7" transform="translate(708,662)"/>
<path d="M0,0 L1,3 L0,6 L-2,4 L-8,8 L-8,4 L-10,3 L-7,1 Z " fill="#A8A9AB" transform="translate(464,612)"/>
<path d="M0,0 L2,4 L1,8 L3,8 L1,12 L-2,17 L-3,17 L-2,6 Z M0,8 Z " fill="#DFF0F9" transform="translate(699,575)"/>
<path d="M0,0 L2,1 L2,4 L5,3 L4,6 L1,6 L-1,12 L-3,12 L-2,15 L-4,15 L-3,8 Z " fill="#A4AEB4" transform="translate(410,530)"/>
<path d="M0,0 L1,4 L-1,8 L-2,6 L-6,16 L-7,16 L-6,9 L-3,1 Z " fill="#DAEAF5" transform="translate(518,530)"/>
<path d="M0,0 L2,0 L3,2 L5,2 L4,9 L0,8 L-1,10 L-3,8 L-1,8 L-2,2 L0,3 Z M-3,5 Z " fill="#B3B9BE" transform="translate(355,504)"/>
<path d="M0,0 L1,2 L-6,16 L-7,13 L-5,9 L-5,3 L-3,1 Z " fill="#E0EDF6" transform="translate(751,479)"/>
<path d="M0,0 L3,1 L-3,13 L-7,19 L-8,16 L-7,13 L-5,13 L-3,6 L-1,6 Z " fill="#BBC7D0" transform="translate(803,416)"/>
<path d="M0,0 L2,2 L0,9 L-7,9 L-6,4 L-3,4 Z M2,0 Z " fill="#CEDFEB" transform="translate(311,375)"/>
<path d="M0,0 L1,3 L-1,8 L-8,16 L-8,13 L-4,8 L-3,5 L-1,5 Z M-11,16 L-9,17 L-14,21 L-15,19 Z " fill="#EAF2F7" transform="translate(905,848)"/>
<path d="M0,0 L1,2 L-4,3 L-3,1 Z M-6,3 L-4,3 L-5,6 L-10,9 L-16,11 L-16,8 Z " fill="#D7E9F5" transform="translate(904,845)"/>
<path d="M0,0 L4,1 L2,2 L3,4 L1,4 L1,6 L-3,8 L-7,7 L-7,5 L-4,5 L-4,1 Z " fill="#BCC1C4" transform="translate(271,768)"/>
<path d="M0,0 L2,0 L2,4 L2,6 L0,7 L-1,12 L-3,13 L-5,17 L-6,14 L-1,1 Z " fill="#A5AEB5" transform="translate(689,655)"/>
<path d="M0,0 L1,0 L1,7 L-4,25 L-5,25 L-4,12 L-1,5 Z " fill="#B3BFC6" transform="translate(877,571)"/>
<path d="M0,0 L3,1 L4,8 L-4,8 L-4,5 L0,4 Z " fill="#CCD3D8" transform="translate(700,399)"/>
<path d="M0,0 L2,2 L3,7 L2,10 L-1,9 L-3,3 L-8,3 L-6,1 L-2,1 L-1,3 Z M-3,7 Z " fill="#B6BBBD" transform="translate(482,358)"/>
<path d="M0,0 L10,1 L7,3 L-3,7 L-4,2 L-1,1 Z " fill="#E9F1F6" transform="translate(860,321)"/>
<path d="M0,0 L6,2 L6,4 L8,5 L5,6 L4,8 L4,6 L-2,6 L-1,2 Z " fill="#CDCFD2" transform="translate(322,856)"/>
<path d="M0,0 L2,1 L6,10 L2,12 L2,6 L-3,8 L-3,4 L-1,4 Z " fill="#E3F0F9" transform="translate(210,841)"/>
<path d="M0,0 L1,0 L3,9 L6,15 L5,18 L3,16 L0,17 Z " fill="#C2CED6" transform="translate(241,819)"/>
<path d="M0,0 L2,0 L2,4 L7,4 L7,5 L2,5 L2,8 L4,8 L3,13 L5,13 L4,18 L2,15 L0,7 Z " fill="#B8C4CC" transform="translate(202,811)"/>
<path d="M0,0 L4,2 L4,6 L-1,7 L-1,10 L-4,9 L-2,4 Z " fill="#C8D4DE" transform="translate(429,761)"/>
<path d="M0,0 L2,2 L3,12 L-2,15 L-1,6 L0,4 Z M-3,15 Z " fill="#D8E3EE" transform="translate(877,583)"/>
<path d="M0,0 L2,1 L2,8 L0,13 L-1,20 L-4,24 L-4,16 L-2,16 L-1,9 Z " fill="#D9E5EB" transform="translate(932,480)"/>
<path d="M0,0 L2,0 L3,4 L5,6 L3,10 L10,11 L6,13 L4,13 L3,15 L2,14 L0,4 Z " fill="#CFD0D3" transform="translate(654,389)"/>
<path d="M0,0 L3,1 L1,4 L2,6 L-5,6 L-11,4 L-7,2 Z " fill="#DDECF5" transform="translate(357,345)"/>
<path d="M0,0 L6,2 L8,4 L12,5 L12,7 L2,6 L2,4 L0,3 Z M6,7 Z " fill="#ADB0B2" transform="translate(234,761)"/>
<path d="M0,0 L2,4 L3,19 L1,15 L-1,9 L-2,3 L0,3 Z " fill="#A6B2B9" transform="translate(857,756)"/>
<path d="M0,0 L1,4 L-1,16 L-4,19 L-3,8 Z " fill="#B4C0C8" transform="translate(953,752)"/>
<path d="M0,0 L5,1 L4,5 L-5,7 L-8,5 L-8,2 L-6,2 L-4,4 L0,1 Z " fill="#E1EFF7" transform="translate(896,664)"/>
<path d="M0,0 L2,4 L1,13 L3,13 L2,17 L0,18 L-2,12 L-1,11 L0,4 L-2,3 Z " fill="#CCD2D6" transform="translate(858,652)"/>
<path d="M0,0 L1,0 L2,12 L4,9 L3,15 L0,23 L-1,19 Z " fill="#E4EFF5" transform="translate(545,601)"/>
<path d="M0,0 L7,1 L2,6 L-2,7 L-1,1 Z M-3,7 L-1,10 L-1,12 L-4,12 Z " fill="#C0C7CD" transform="translate(724,548)"/>
<path d="M0,0 L3,0 L2,6 L-1,15 L-2,15 L-3,8 L-1,5 L1,5 L1,3 L-1,3 Z " fill="#AFBBC4" transform="translate(514,522)"/>
<path d="M0,0 L2,0 L2,4 L-3,6 L-7,8 L-7,10 L-9,10 L-9,12 L-12,13 L-10,9 Z " fill="#9CA8B0" transform="translate(274,339)"/>
<path d="M0,0 L4,1 L1,2 L2,8 L4,10 L4,16 L1,13 L-1,7 Z " fill="#C4D2DC" transform="translate(436,814)"/>
<path d="M0,0 L2,0 L3,2 L5,2 L6,8 L1,10 L0,9 Z " fill="#EDF7FC" transform="translate(911,803)"/>
<path d="M0,0 L6,0 L4,4 L-3,11 L-4,9 L-3,6 L-1,6 Z " fill="#A3ACB3" transform="translate(252,776)"/>
<path d="M0,0 L2,1 L5,9 L5,18 L3,15 L0,4 Z " fill="#A7B3BC" transform="translate(320,748)"/>
<path d="M0,0 L2,0 L2,2 L7,4 L6,7 L3,7 L-2,7 L-2,2 L0,2 Z " fill="#AEB2B5" transform="translate(635,713)"/>
<path d="M0,0 L1,2 L3,3 L0,10 L0,16 L-3,20 L-2,8 Z " fill="#99A2AA" transform="translate(574,662)"/>
<path d="M0,0 L17,0 L23,2 L24,4 L15,2 L-1,2 Z " fill="#BCC9D3" transform="translate(900,668)"/>
<path d="M0,0 L3,0 L7,1 L5,7 L2,8 L1,4 L-1,3 Z " fill="#A2A7AB" transform="translate(473,644)"/>
<path d="M0,0 L3,2 L1,2 L1,11 L-1,11 L1,18 L-1,18 L-3,20 L-3,13 Z " fill="#9AA7B0" transform="translate(389,607)"/>
<path d="M0,0 L2,0 L3,6 L3,10 L0,10 L-1,13 L-2,13 L-1,3 Z " fill="#9FA9AF" transform="translate(392,593)"/>
<path d="M0,0 L1,4 L-4,16 L-6,12 L-5,9 L-3,9 L-2,2 Z " fill="#B8C3CB" transform="translate(744,558)"/>
<path d="M0,0 L1,0 L1,11 L-2,21 L-3,21 L-2,8 L-1,1 Z " fill="#DCECF8" transform="translate(703,552)"/>
<path d="M0,0 L2,0 L2,2 L0,2 Z M-3,1 L0,3 L-2,3 L-1,6 L-4,10 L-7,9 L-6,2 Z " fill="#C8C9CB" transform="translate(662,526)"/>
<path d="M0,0 L1,2 L4,2 L3,18 L2,18 L1,5 L-8,3 L-8,2 L-2,1 L-1,2 Z " fill="#D9E1E7" transform="translate(371,456)"/>
<path d="M0,0 L6,1 L2,4 L-1,6 L-10,5 L-8,2 L0,2 Z " fill="#C4D2DB" transform="translate(304,882)"/>
<path d="M0,0 L2,0 L0,4 L-10,13 L-12,13 L-12,11 L-7,7 L-6,4 L-2,4 Z " fill="#A4B1BB" transform="translate(364,849)"/>
<path d="M0,0 L2,2 L5,0 L5,4 L3,9 L5,9 L6,7 L6,10 L2,10 L2,7 L0,6 L1,4 L-1,4 Z " fill="#D5D9DB" transform="translate(792,419)"/>
<path d="M0,0 L1,4 L4,4 L3,9 L-2,9 L-1,1 Z " fill="#BCC1C7" transform="translate(874,838)"/>
<path d="M0,0 L4,3 L4,1 L6,1 L8,9 L5,9 L4,5 L1,6 L-1,1 Z " fill="#BBC1C6" transform="translate(785,812)"/>
<path d="M0,0 L3,4 L4,10 L0,10 L-1,7 L-3,9 L-2,2 Z M2,10 Z " fill="#B2BBC2" transform="translate(387,622)"/>
<path d="M0,0 L3,2 L4,10 L2,12 L-1,12 Z " fill="#CDD3D8" transform="translate(765,604)"/>
<path d="M0,0 L4,1 L2,4 L0,4 L0,6 L2,6 L2,8 L-4,8 L-4,6 L-2,6 L-2,4 L-4,4 L-4,2 Z " fill="#C0C1C3" transform="translate(837,599)"/>
<path d="M0,0 L5,5 L10,11 L13,11 L12,15 L8,13 L0,2 Z " fill="#AFBDC6" transform="translate(241,506)"/>
<path d="M0,0 L4,2 L7,6 L10,3 L9,7 L6,12 L4,11 L3,6 L0,2 Z M4,0 Z " fill="#CBCFD2" transform="translate(253,468)"/>
<path d="M0,0 L5,0 L2,8 L0,8 L0,13 L-1,13 L-1,4 Z " fill="#C1C9CF" transform="translate(227,416)"/>
<path d="M0,0 L6,2 L5,5 L7,5 L6,8 L1,6 L-1,6 L-2,3 Z " fill="#CFD7DD" transform="translate(937,354)"/>
<path d="M0,0 L6,0 L5,4 L0,3 L-9,4 L-6,1 Z " fill="#D7E7F2" transform="translate(874,857)"/>
<path d="M0,0 L2,4 L3,10 L3,16 L1,13 L-2,4 L-2,1 Z " fill="#CED5DC" transform="translate(572,840)"/>
<path d="M0,0 L4,2 L5,4 L4,7 L1,7 L0,5 L-4,7 L-4,5 L-2,5 L-1,1 Z M1,3 Z M-5,7 Z " fill="#D4D8DB" transform="translate(606,808)"/>
<path d="M0,0 L5,2 L7,6 L9,7 L2,6 L-1,5 Z " fill="#C0C1C2" transform="translate(354,777)"/>
<path d="M0,0 L2,0 L2,4 L5,5 L3,8 L6,10 L5,12 L1,10 Z M-2,5 L0,6 L-2,9 Z " fill="#BABBBD" transform="translate(386,736)"/>
<path d="M0,0 L1,0 L3,8 L4,12 L4,14 L2,14 L1,18 L0,12 Z " fill="#CED4D8" transform="translate(762,730)"/>
<path d="M0,0 L1,0 L1,9 L-1,9 L0,12 L-3,21 L-4,21 L-3,11 Z " fill="#A9B4BA" transform="translate(370,709)"/>
<path d="M0,0 L2,3 L3,1 L7,2 L5,4 L3,10 L1,11 Z " fill="#B0B8BE" transform="translate(569,685)"/>
<path d="M0,0 L5,1 L3,9 L2,7 L-1,7 Z M0,9 L2,10 L0,11 Z " fill="#A7ADB1" transform="translate(583,619)"/>
<path d="M0,0 L7,2 L7,4 L2,6 L-1,10 Z " fill="#A7ADB2" transform="translate(399,563)"/>
<path d="M0,0 L2,3 L-1,8 L-2,12 L1,13 L-5,15 L-3,6 Z " fill="#C1C8CF" transform="translate(730,532)"/>
<path d="M0,0 L1,2 L-5,15 L-7,13 L-6,9 L-4,9 L-3,3 L-1,3 Z " fill="#B1BDC6" transform="translate(545,448)"/>
<path d="M0,0 L3,1 L-5,8 L-6,6 L-10,7 L-10,5 L-4,2 Z " fill="#E7F1F5" transform="translate(842,336)"/>
<path d="M0,0 L6,0 L6,2 L-2,2 L-2,4 L-9,6 L-10,3 Z " fill="#B4C0C9" transform="translate(880,319)"/>
<path d="M0,0 L4,1 L10,3 L9,5 L2,6 L0,5 L0,3 L-2,2 Z " fill="#C9CBCD" transform="translate(379,306)"/>
<path d="M0,0 L3,1 L2,3 L-2,3 L-2,5 L-7,4 L-10,3 L-10,1 L-1,1 Z " fill="#BEC7CC" transform="translate(890,847)"/>
<path d="M0,0 L1,2 L-1,6 L-3,6 L-4,10 L-7,10 L-7,12 L-10,13 L-8,9 Z " fill="#B7C5CF" transform="translate(327,827)"/>
<path d="M0,0 L2,0 L2,2 L7,3 L7,7 L2,8 L0,4 L-1,3 Z " fill="#AFB1B2" transform="translate(337,813)"/>
<path d="M0,0 L2,0 L1,4 L-4,11 L-5,8 L-4,5 L-2,5 L-2,3 L-4,3 L-4,1 Z " fill="#B8C3CB" transform="translate(933,808)"/>
<path d="M0,0 L2,1 L5,9 L5,12 L2,12 L2,9 L0,8 L-2,3 Z " fill="#D7E8F5" transform="translate(771,788)"/>
<path d="M0,0 L3,0 L3,2 L-1,2 L-1,4 L1,4 L1,6 L-9,4 L-7,2 Z " fill="#B3BEC5" transform="translate(260,719)"/>
<path d="M0,0 L10,0 L10,2 L-2,4 L-6,5 L-5,2 L0,2 Z " fill="#C3CED7" transform="translate(906,691)"/>
<path d="M0,0 L2,0 L2,3 L4,3 L4,5 L1,5 L0,8 L-6,6 L-6,4 L-1,4 L-2,2 L0,2 Z " fill="#D6DADD" transform="translate(888,471)"/>
<path d="M0,0 L2,1 L0,3 Z M-1,3 L1,7 L-3,8 L-2,10 L-2,13 L-5,13 L-6,7 L-5,5 L-1,5 Z " fill="#D3D7DA" transform="translate(805,459)"/>
<path d="M0,0 L2,4 L-4,13 L-6,13 L-5,8 Z " fill="#D5E5EF" transform="translate(572,402)"/>
<path d="M0,0 L4,0 L3,5 L-1,7 L-3,6 L-2,2 Z M-3,7 Z " fill="#B5BABE" transform="translate(499,377)"/>
<path d="M0,0 L2,2 L0,5 L2,8 L-4,9 L-5,4 Z " fill="#AFB3B7" transform="translate(272,343)"/>
<path d="M0,0 L2,0 L2,2 L6,4 L5,6 L-1,5 L-4,2 Z " fill="#D4DBE0" transform="translate(243,869)"/>
<path d="M0,0 L3,0 L2,4 L5,4 L4,0 L6,1 L6,5 L1,9 L0,7 L1,4 L-2,4 L-2,2 L0,2 Z " fill="#D4D6D9" transform="translate(879,536)"/>
<path d="M0,0 L1,2 L6,2 L5,7 L1,7 L-2,1 Z " fill="#E3EFF5" transform="translate(494,369)"/>
<path d="M0,0 L3,1 L3,7 L0,7 L-2,4 L-4,6 L-4,1 Z " fill="#C8CACD" transform="translate(437,368)"/>
<path d="M0,0 L2,0 L2,2 L4,2 L2,6 L0,9 L-2,9 L-3,6 L-2,3 L0,3 Z " fill="#BCC4CB" transform="translate(924,817)"/>
<path d="M0,0 L2,0 L3,4 L2,7 L1,13 L0,13 L-2,6 L-1,2 Z " fill="#BECBD4" transform="translate(203,784)"/>
<path d="M0,0 L8,0 L11,2 L11,4 L8,4 L8,6 L6,5 L0,1 Z " fill="#B3BBC2" transform="translate(288,723)"/>
<path d="M0,0 L5,2 L7,5 L5,5 L4,7 L2,6 L1,8 Z " fill="#EBF6FA" transform="translate(921,696)"/>
<path d="M0,0 L3,1 L4,7 L2,13 L1,13 L1,3 L-3,1 Z " fill="#9DA2A6" transform="translate(479,630)"/>
<path d="M0,0 L3,1 L7,3 L8,5 L0,6 L0,4 L-3,3 L-3,1 Z " fill="#C4CBCF" transform="translate(286,535)"/>
<path d="M0,0 L2,4 L1,8 L-3,13 L-2,3 Z " fill="#B8C1C8" transform="translate(788,507)"/>
<path d="M0,0 L3,1 L2,2 L4,3 L3,6 L-2,8 L-3,5 Z " fill="#C9CACC" transform="translate(690,504)"/>
<path d="M0,0 L5,1 L0,6 L-4,9 L-3,4 L-2,2 L0,2 Z " fill="#E7F1F4" transform="translate(267,340)"/>
<path d="M0,0 L4,0 L4,2 L0,1 Z M-4,1 L1,2 L2,4 L-5,6 L-10,4 L-7,3 L-4,2 Z " fill="#CACDCE" transform="translate(324,314)"/>
<path d="M0,0 L5,0 L5,2 L15,2 L15,3 L-1,3 L-4,1 Z " fill="#ABB7C0" transform="translate(849,856)"/>
<path d="M0,0 L8,0 L11,4 L7,6 L5,3 L0,1 Z " fill="#CED2D5" transform="translate(618,813)"/>
<path d="M0,0 L6,1 L11,3 L8,7 L6,7 L5,2 L-1,2 Z " fill="#B3BABF" transform="translate(302,800)"/>
<path d="M0,0 L2,2 L1,7 L-3,10 L-2,2 Z " fill="#D7E4EE" transform="translate(476,658)"/>
<path d="M0,0 L2,0 L2,2 L7,4 L7,8 L3,9 L2,5 L2,3 L0,3 Z " fill="#C3CBD1" transform="translate(257,520)"/>
<path d="M0,0 L1,3 L3,3 L3,1 L6,2 L7,9 L4,10 L3,6 L2,4 L0,4 Z " fill="#CACFD2" transform="translate(296,514)"/>
<path d="M0,0 L4,2 L11,8 L8,9 L4,6 L4,4 L2,4 L1,6 L1,3 L-1,2 Z " fill="#B7BEC4" transform="translate(293,482)"/>
<path d="M0,0 L6,2 L7,5 L6,7 L2,5 L-1,3 Z " fill="#D5D9DC" transform="translate(849,456)"/>
<path d="M0,0 L6,2 L9,4 L8,7 L3,6 Z " fill="#E0ECF5" transform="translate(406,353)"/>
<path d="M0,0 L4,0 L3,3 L-3,4 L-8,3 L-5,1 Z " fill="#C0CED7" transform="translate(581,320)"/>
<path d="M0,0 L1,2 L6,2 L4,3 L4,5 L-8,4 L-8,3 L-3,3 L-3,1 Z " fill="#E3EEF4" transform="translate(920,314)"/>
<path d="M0,0 L8,0 L6,2 L-3,5 L-8,5 L-6,3 L0,1 Z " fill="#B3C1C9" transform="translate(312,881)"/>
<path d="M0,0 L5,1 L6,3 L11,4 L11,6 L3,6 L3,3 L0,3 Z " fill="#CBCECF" transform="translate(321,867)"/>
<path d="M0,0 L2,0 L8,10 L5,13 L3,8 L0,2 Z " fill="#DCEBF4" transform="translate(782,813)"/>
<path d="M0,0 L4,1 L3,6 L0,7 L-4,5 L-4,3 Z " fill="#B6B9BB" transform="translate(671,585)"/>
<path d="M0,0 L7,1 L3,2 L3,9 L0,8 Z " fill="#B9B9B9" transform="translate(700,463)"/>
<path d="M0,0 L2,0 L0,7 L-4,12 L-5,9 Z " fill="#D6E8F4" transform="translate(555,431)"/>
<path d="M0,0 L3,1 L3,9 L-1,7 L-2,4 Z " fill="#C1CBD4" transform="translate(613,375)"/>
<path d="M0,0 L6,1 L11,4 L11,11 L9,8 L9,6 L6,7 L6,4 L0,1 Z " fill="#A8B5BE" transform="translate(940,325)"/>
<path d="M0,0 L2,4 L4,14 L0,14 L1,7 L-1,6 Z " fill="#E2F0F7" transform="translate(202,818)"/>
<path d="M0,0 L2,0 L6,7 L11,8 L11,10 L7,11 L0,2 Z " fill="#A4B1BA" transform="translate(787,817)"/>
<path d="M0,0 L1,4 L-3,15 L-4,11 L-6,10 L-3,8 Z " fill="#B0BCC4" transform="translate(948,774)"/>
<path d="M0,0 L2,1 L2,8 L0,8 L-2,13 L-3,13 L-2,5 Z " fill="#DEEDF8" transform="translate(693,712)"/>
<path d="M0,0 L4,0 L2,7 L-1,7 L-3,7 L-3,2 L-1,3 Z " fill="#B2B9BF" transform="translate(453,704)"/>
<path d="M0,0 L2,1 L-1,6 L-4,9 L-7,10 L-5,6 Z " fill="#DFEFF9" transform="translate(895,700)"/>
<path d="M0,0 L2,1 L2,3 L5,3 L5,6 L3,6 L2,9 L0,9 Z " fill="#D2D5D6" transform="translate(760,673)"/>
<path d="M0,0 L4,0 L2,8 L0,8 L-1,11 L-2,7 Z " fill="#C2D5E0" transform="translate(578,616)"/>
<path d="M0,0 L4,1 L1,9 L-2,8 L-1,3 Z " fill="#D4D7D9" transform="translate(709,598)"/>
<path d="M0,0 L5,0 L5,6 L0,7 L0,3 L3,3 L3,1 Z " fill="#A6AAAD" transform="translate(468,586)"/>
<path d="M0,0 L1,0 L1,7 L-2,15 L-4,11 L-3,9 L-2,5 L-1,5 Z " fill="#E0EDF6" transform="translate(781,523)"/>
<path d="M0,0 L3,0 L2,5 L-2,14 L-4,10 L-2,9 L-2,6 L0,6 Z " fill="#ADBAC2" transform="translate(536,463)"/>
<path d="M0,0 L4,1 L-1,11 L-3,11 L-2,5 L0,5 L-1,1 Z " fill="#DCECF6" transform="translate(451,431)"/>
<path d="M0,0 L5,0 L1,7 L-1,9 L-2,6 Z " fill="#D8E8F3" transform="translate(928,408)"/>
<path d="M0,0 L2,1 L2,4 L7,5 L7,8 L3,8 L3,6 L0,6 Z " fill="#B0B5B9" transform="translate(486,368)"/>
<path d="M0,0 L6,0 L5,5 L3,5 L3,7 L-1,7 Z " fill="#C7C9CD" transform="translate(312,360)"/>
<path d="M0,0 L5,2 L5,6 L-1,6 Z " fill="#CFD3D6" transform="translate(932,339)"/>
<path d="M0,0 L6,0 L8,2 L6,3 L6,6 L3,5 L-1,3 Z " fill="#DAE0E4" transform="translate(288,880)"/>
<path d="M0,0 L1,4 L2,7 L-1,8 L-3,7 L-3,1 Z " fill="#D2D6D9" transform="translate(615,808)"/>
<path d="M0,0 L3,0 L3,6 L-2,7 L-2,4 Z " fill="#B1B3B2" transform="translate(378,809)"/>
<path d="M0,0 L1,3 L3,4 L3,6 L2,11 L0,14 L-1,4 Z " fill="#D4D7DB" transform="translate(765,746)"/>
<path d="M0,0 L1,0 L2,7 L0,12 L2,13 L0,20 L-1,20 L-1,6 Z " fill="#C1C8CE" transform="translate(566,746)"/>
<path d="M0,0 L4,2 L8,7 L2,6 L0,2 Z " fill="#A9B5BD" transform="translate(304,729)"/>
<path d="M0,0 L5,2 L5,5 L3,5 L2,8 L0,7 Z M3,2 Z " fill="#C9D7E1" transform="translate(564,674)"/>
<path d="M0,0 L7,2 L4,8 L3,5 L1,5 L1,2 L-1,1 Z " fill="#ADB4B9" transform="translate(466,663)"/>
<path d="M0,0 L0,3 L-3,10 L-6,6 L-6,2 L-2,1 Z " fill="#D3D6D8" transform="translate(864,638)"/>
<path d="M0,0 L1,2 L4,3 L2,8 L-2,9 Z " fill="#A8A9AB" transform="translate(423,581)"/>
<path d="M0,0 L1,2 L3,3 L-2,5 L-4,5 L-6,8 L-7,4 L-7,2 L-2,2 Z " fill="#ACADAF" transform="translate(415,574)"/>
<path d="M0,0 L7,0 L7,4 L0,4 L-2,2 Z " fill="#C5CACE" transform="translate(296,536)"/>
<path d="M0,0 L5,0 L6,5 L5,9 L3,9 L3,6 L1,6 Z " fill="#CFD2D6" transform="translate(250,512)"/>
<path d="M0,0 L4,1 L3,5 L3,7 L3,10 L-1,8 Z " fill="#D2D6DA" transform="translate(889,512)"/>
<path d="M0,0 L1,0 L1,5 L0,10 L-4,11 L-2,2 Z " fill="#E0EDF6" transform="translate(900,500)"/>
<path d="M0,0 L7,0 L7,7 L1,6 L1,4 L3,3 Z " fill="#C9CED1" transform="translate(318,504)"/>
<path d="M0,0 L5,1 L4,3 L2,3 L2,6 L-1,5 L-1,3 L-3,3 L-3,1 Z " fill="#D0D1D2" transform="translate(235,480)"/>
<path d="M0,0 L6,0 L6,7 L2,8 L3,4 L-1,1 Z " fill="#CED7DD" transform="translate(778,456)"/>
<path d="M0,0 L8,0 L6,2 L7,4 L3,4 L3,6 L0,5 L0,3 L2,3 L2,1 Z " fill="#CDCED0" transform="translate(592,355)"/>
<path d="M0,0 L2,2 L-2,8 L-4,8 L-5,3 L-1,2 Z M-6,5 Z " fill="#A7AFB5" transform="translate(393,814)"/>
<path d="M0,0 L2,0 L1,4 L-2,12 L-4,14 L-2,5 Z " fill="#DAEBF7" transform="translate(942,794)"/>
<path d="M0,0 L2,0 L4,3 L4,8 L2,9 L0,8 L0,3 Z " fill="#D7D8DA" transform="translate(848,630)"/>
<path d="M0,0 L3,3 L3,6 L1,6 L1,10 L-2,10 L-1,2 Z " fill="#9BA5AD" transform="translate(596,574)"/>
<path d="M0,0 L5,0 L5,2 L2,2 L3,5 L-4,4 L-4,1 Z " fill="#ADAFB1" transform="translate(637,563)"/>
<path d="M0,0 L1,0 L1,8 L-4,8 L-3,3 L-1,3 Z " fill="#DFE1E4" transform="translate(519,536)"/>
<path d="M0,0 L2,0 L0,5 L-2,5 L-3,8 L-5,7 L-5,2 Z " fill="#D2D6D9" transform="translate(901,481)"/>
<path d="M0,0 L2,4 L0,8 L-5,12 L-4,8 Z " fill="#BEC5CB" transform="translate(756,472)"/>
<path d="M0,0 L2,0 L2,6 L-3,7 L-2,1 Z " fill="#C5C8CC" transform="translate(534,463)"/>
<path d="M0,0 L1,0 L1,14 L-2,17 L-3,15 L-1,10 Z " fill="#CAD4DA" transform="translate(283,440)"/>
<path d="M0,0 L1,2 L6,3 L5,7 L5,5 L2,6 L0,9 L-1,5 Z " fill="#CDD1D3" transform="translate(536,446)"/>
<path d="M0,0 L2,1 L2,3 L8,2 L7,4 L5,3 L5,6 L0,5 L-1,2 Z " fill="#D4D6D8" transform="translate(576,854)"/>
<path d="M0,0 L3,1 L2,4 L-3,6 L-4,2 Z " fill="#DFEEF8" transform="translate(309,840)"/>
<path d="M0,0 L2,0 L3,10 L1,9 L-2,10 L-3,7 L-1,7 Z " fill="#A9B1B8" transform="translate(859,776)"/>
<path d="M0,0 L5,1 L6,5 L-2,4 L-2,2 L0,2 Z " fill="#C9CBCD" transform="translate(290,726)"/>
<path d="M0,0 L2,0 L3,2 L7,4 L8,11 L5,8 L5,6 L3,6 L0,2 Z " fill="#C4CED6" transform="translate(926,697)"/>
<path d="M0,0 L1,0 L1,10 L0,14 L-2,14 L-1,5 Z " fill="#BBC7D1" transform="translate(861,651)"/>
<path d="M0,0 L7,2 L5,5 L-2,5 L-1,3 L1,3 Z " fill="#CACED1" transform="translate(298,492)"/>
<path d="M0,0 L2,0 L0,7 L-2,5 L-5,7 L-4,3 L-3,1 Z " fill="#B9C4CC" transform="translate(806,384)"/>
<path d="M0,0 L2,2 L0,7 L-1,10 L-3,10 L-2,4 L-4,4 L-4,2 Z " fill="#B0B5B9" transform="translate(519,358)"/>
<path d="M0,0 L3,0 L2,7 L-5,6 L-6,4 L-1,5 L1,6 Z " fill="#C9CED2" transform="translate(400,341)"/>
<path d="M0,0 L10,0 L16,2 L12,3 L5,2 L0,1 Z " fill="#ABB7BF" transform="translate(384,306)"/>
<path d="M0,0 L2,0 L2,12 L0,8 L-2,3 Z " fill="#C3C8CB" transform="translate(657,803)"/>
<path d="M0,0 L1,3 L-5,11 L-6,8 L-5,6 L-3,6 L-2,2 Z " fill="#A5AEB5" transform="translate(405,798)"/>
<path d="M0,0 L5,0 L4,8 L1,7 Z M1,2 L2,4 Z " fill="#BCC0C4" transform="translate(770,774)"/>
<path d="M0,0 L5,0 L5,3 L3,3 L2,5 L-3,3 Z " fill="#BABBBD" transform="translate(413,711)"/>
<path d="M0,0 L1,0 L1,17 L-2,18 L-2,14 L0,14 Z " fill="#F0EEED" transform="translate(752,672)"/>
<path d="M0,0 L6,0 L6,4 L-1,4 Z " fill="#ACADAF" transform="translate(434,652)"/>
<path d="M0,0 L5,5 L-4,5 L-4,2 Z " fill="#DDE0E3" transform="translate(847,643)"/>
<path d="M0,0 L4,0 L3,4 L1,4 L-1,6 L-3,4 L-2,1 Z " fill="#C5CACF" transform="translate(715,632)"/>
<path d="M0,0 L2,0 L1,9 L-2,10 L-2,8 L-4,7 L-3,5 L-1,5 Z " fill="#B2BCC2" transform="translate(688,616)"/>
<path d="M0,0 L2,0 L1,8 L-1,12 L-1,1 Z " fill="#BFC6CA" transform="translate(881,552)"/>
<path d="M0,0 L1,0 L0,10 L-2,10 L-3,14 L-3,7 Z " fill="#DEEEFA" transform="translate(776,545)"/>
<path d="M0,0 L6,1 L5,6 L0,5 Z " fill="#C2C7CB" transform="translate(506,539)"/>
<path d="M0,0 L7,6 L4,7 L-1,6 Z " fill="#E3EFF5" transform="translate(252,521)"/>
<path d="M0,0 L1,4 L4,4 L2,9 L-1,9 L-2,5 Z " fill="#B9BEC2" transform="translate(417,509)"/>
<path d="M0,0 L3,3 L0,10 L-3,9 Z " fill="#E7F2F6" transform="translate(540,461)"/>
<path d="M0,0 L2,1 L0,7 L-2,7 L-1,11 L-4,11 L-3,5 Z " fill="#D4D7D9" transform="translate(775,437)"/>
<path d="M0,0 L5,1 L6,5 L4,7 L0,3 Z " fill="#DDE2E6" transform="translate(299,431)"/>
<path d="M0,0 L4,1 L4,3 L1,3 L1,10 L-2,11 Z " fill="#BDC9D1" transform="translate(231,400)"/>
<path d="M0,0 L3,0 L4,5 L1,8 L-1,7 L0,2 Z " fill="#C8CFD3" transform="translate(289,397)"/>
<path d="M0,0 L2,0 L1,8 L-3,5 L-5,5 L-4,2 L0,2 Z " fill="#C0C5CA" transform="translate(933,381)"/>
<path d="M0,0 L1,2 L5,2 L3,8 L-1,5 Z " fill="#B1BAC0" transform="translate(442,379)"/>
<path d="M0,0 L3,1 L-2,5 L-4,9 L-7,8 Z " fill="#99A7B0" transform="translate(522,351)"/>
<path d="M0,0 L6,1 L2,7 L0,7 Z " fill="#A2ADB5" transform="translate(368,840)"/>
<path d="M0,0 L2,3 L0,8 L-3,9 L-2,3 Z " fill="#A2ABB1" transform="translate(342,803)"/>
<path d="M0,0 L2,1 L0,7 L-5,4 L-7,2 Z " fill="#B6BABD" transform="translate(640,751)"/>
<path d="M0,0 L5,1 L5,3 L7,3 L7,5 L2,5 L2,2 L0,2 L-1,4 Z " fill="#B4BABE" transform="translate(680,679)"/>
<path d="M0,0 L4,5 L0,7 L-2,8 L-2,2 Z " fill="#A5B1B9" transform="translate(579,643)"/>
<path d="M0,0 L1,3 L3,4 L0,10 L-2,9 L-2,4 Z " fill="#B0B8BD" transform="translate(698,627)"/>
<path d="M0,0 L5,2 L2,3 L2,11 L0,11 L-1,5 L1,5 Z " fill="#B5B9BD" transform="translate(389,613)"/>
<path d="M0,0 L7,0 L6,3 L4,3 L3,6 L1,5 L2,1 Z M-2,1 L0,1 L-1,3 Z " fill="#C1C5C8" transform="translate(641,544)"/>
<path d="M0,0 L2,0 L0,10 L-2,10 L-2,3 Z " fill="#DAE8F3" transform="translate(605,536)"/>
<path d="M0,0 L0,3 L-3,7 L-5,7 L-5,5 L-8,4 Z " fill="#E9F1F6" transform="translate(337,532)"/>
<path d="M0,0 L5,1 L6,5 L6,7 L1,6 L1,4 L3,4 Z " fill="#AEB2B5" transform="translate(634,489)"/>
<path d="M0,0 L4,1 L7,3 L3,5 L-4,2 Z " fill="#E4EFF5" transform="translate(308,489)"/>
<path d="M0,0 L5,0 L3,5 L-1,4 L-2,2 Z " fill="#DDDFE3" transform="translate(268,879)"/>
<path d="M0,0 L4,2 L4,5 L10,7 L10,8 L3,7 L0,3 Z " fill="#B8BEC4" transform="translate(866,825)"/>
<path d="M0,0 L5,1 L2,7 L0,6 Z " fill="#A4ACB1" transform="translate(425,759)"/>
<path d="M0,0 L3,3 L2,5 L-3,8 L-2,3 Z " fill="#97A3AB" transform="translate(213,754)"/>
<path d="M0,0 L3,0 L2,4 L0,9 L-2,6 L-1,1 Z " fill="#CFE0EC" transform="translate(685,743)"/>
<path d="M0,0 L1,2 L-2,7 L-3,12 L-4,12 L-4,3 L-2,3 L-2,1 Z " fill="#CED3D7" transform="translate(764,656)"/>
<path d="M0,0 L1,4 L-3,14 L-4,10 Z " fill="#BFC8CE" transform="translate(713,580)"/>
<path d="M0,0 L8,2 L4,7 Z " fill="#C6CBCE" transform="translate(476,510)"/>
<path d="M0,0 Z M-2,1 L2,1 L2,4 L5,5 L0,6 L0,4 L-3,3 Z " fill="#AFB0B2" transform="translate(650,485)"/>
<path d="M0,0 L2,1 L-1,3 Z M-5,2 L-4,4 L-1,3 L0,5 L-1,8 L-4,8 Z " fill="#CBD2D8" transform="translate(812,440)"/>
<path d="M0,0 L2,0 L0,5 L-2,10 L-4,7 L-2,2 Z " fill="#A0ACB5" transform="translate(251,364)"/>
<path d="M0,0 L5,1 L3,6 L1,7 Z " fill="#D1D6DA" transform="translate(935,347)"/>
<path d="M0,0 L2,1 L3,5 L0,8 L-1,8 L-2,2 Z " fill="#B0B7BE" transform="translate(277,336)"/>
<path d="M0,0 L7,2 L7,3 L0,3 L0,5 L-2,5 L-3,2 Z " fill="#C2CAD0" transform="translate(626,321)"/>
<path d="M0,0 L6,0 L8,2 L6,2 L6,4 L-4,2 Z M1,1 Z " fill="#E6ECF2" transform="translate(402,306)"/>
<path d="M0,0 L1,2 L3,2 L2,5 L-7,4 L-7,3 L0,3 Z " fill="#C3CDD4" transform="translate(608,860)"/>
<path d="M0,0 L3,1 L3,3 L5,3 L6,8 L3,7 L0,2 Z " fill="#C7D4DB" transform="translate(215,848)"/>
<path d="M0,0 L2,0 L2,8 L0,9 L-2,3 Z " fill="#C6C8CA" transform="translate(330,844)"/>
<path d="M0,0 L1,3 L3,4 L2,9 L-1,8 L-1,2 Z " fill="#CED4D8" transform="translate(657,812)"/>
<path d="M0,0 L1,4 L0,7 L-5,7 Z " fill="#B3C1CB" transform="translate(918,809)"/>
<path d="M0,0 L5,1 L5,14 L4,14 L4,3 L2,3 L2,1 Z " fill="#D1DEE6" transform="translate(853,698)"/>
<path d="M0,0 L5,1 L5,3 L10,5 L11,7 L6,5 L0,1 Z " fill="#B0BDC5" transform="translate(261,528)"/>
<path d="M0,0 L3,1 L1,1 L1,3 L-5,6 L-4,1 Z " fill="#B2B5B7" transform="translate(637,519)"/>
<path d="M0,0 L5,0 L3,3 L-4,4 Z " fill="#D5D9DC" transform="translate(883,493)"/>
<path d="M0,0 L1,4 L-4,7 L-8,6 L-2,2 L0,2 Z " fill="#B0BAC1" transform="translate(351,483)"/>
<path d="M0,0 L2,1 L-1,9 L-3,10 L-1,1 Z " fill="#DEEAF4" transform="translate(533,479)"/>
<path d="M0,0 L1,4 L-2,11 L-4,10 L-3,6 Z " fill="#E1EEF6" transform="translate(429,476)"/>
<path d="M0,0 L4,2 L4,4 L9,5 L8,7 L7,6 L0,6 L0,2 Z " fill="#B6BABD" transform="translate(479,435)"/>
<path d="M0,0 L3,0 L3,3 L-1,4 L-4,5 L-4,1 Z " fill="#CFD3D6" transform="translate(244,421)"/>
<path d="M0,0 L3,1 L6,1 L6,3 L-1,4 L-3,2 Z " fill="#B4B8BB" transform="translate(506,408)"/>
<path d="M0,0 L3,0 L2,5 L4,6 L3,8 L1,7 L-1,3 Z " fill="#CCCDCF" transform="translate(677,404)"/>
<path d="M0,0 L2,1 L0,8 L-3,11 L-2,5 Z " fill="#A8B6C0" transform="translate(823,399)"/>
<path d="M0,0 L2,4 L1,6 L0,11 L-1,9 L0,7 L-3,6 Z " fill="#CCD2D6" transform="translate(699,388)"/>
<path d="M0,0 L6,1 L7,4 L1,4 Z " fill="#E3E6EA" transform="translate(939,380)"/>
<path d="M0,0 L4,5 L3,8 L1,8 L0,4 L-2,3 Z " fill="#CCD3D9" transform="translate(694,376)"/>
<path d="M0,0 L4,2 L3,7 L0,6 L-1,1 Z " fill="#C5C8CB" transform="translate(443,375)"/>
<path d="M0,0 L1,2 L-1,5 L-3,5 L-5,9 L-7,9 L-5,5 Z " fill="#9DA7AF" transform="translate(507,366)"/>
<path d="M0,0 L2,1 L0,4 L-8,5 L-10,3 Z " fill="#E2F0F6" transform="translate(646,859)"/>
<path d="M0,0 L5,1 L8,4 L8,7 L0,1 Z " fill="#A5B7C2" transform="translate(807,840)"/>
<path d="M0,0 L0,3 L-2,8 L-6,6 L-1,1 Z " fill="#E2EFF6" transform="translate(913,837)"/>
<path d="M0,0 L1,2 L3,2 L3,5 L-1,6 L-3,3 Z " fill="#B6C5CE" transform="translate(807,835)"/>
<path d="M0,0 L8,1 L8,3 L0,3 Z " fill="#C9CED3" transform="translate(232,817)"/>
<path d="M0,0 L4,2 L8,4 L8,6 L2,6 L3,3 L0,2 Z " fill="#E1F0F9" transform="translate(265,809)"/>
<path d="M0,0 L2,1 L-1,4 L-3,4 L-3,6 L-5,6 L-5,8 L-7,8 L-5,4 Z " fill="#DFEEF7" transform="translate(314,803)"/>
<path d="M0,0 L2,3 L1,6 L-4,5 L-3,1 Z " fill="#B4B9BE" transform="translate(271,778)"/>
<path d="M0,0 L3,0 L1,5 L-4,5 L-4,3 L0,2 Z " fill="#C2C5C7" transform="translate(772,765)"/>
<path d="M0,0 L6,1 L5,3 L3,3 L4,7 L1,7 Z " fill="#CBD0D4" transform="translate(284,752)"/>
<path d="M0,0 L6,1 L7,8 L2,3 Z " fill="#E3EDF3" transform="translate(311,734)"/>
<path d="M0,0 L2,4 L2,12 L0,8 L-2,6 Z " fill="#C2C6CA" transform="translate(952,725)"/>
<path d="M0,0 L3,3 L5,4 L4,8 L2,8 L2,5 L-1,4 Z " fill="#A9AEB2" transform="translate(480,626)"/>
<path d="M0,0 L1,4 L1,6 L-2,7 L-4,1 Z " fill="#ACB0B3" transform="translate(594,610)"/>
<path d="M0,0 L5,0 L4,5 L-1,6 Z " fill="#A8AAAD" transform="translate(601,589)"/>
<path d="M0,0 L2,2 L1,9 L-2,6 L-1,3 Z " fill="#ACB3BB" transform="translate(517,512)"/>
<path d="M0,0 L1,3 L4,4 L3,8 L0,8 L-1,4 Z " fill="#CBD2D7" transform="translate(792,489)"/>
<path d="M0,0 L10,2 L10,3 L0,4 Z " fill="#B6B7B8" transform="translate(686,487)"/>
<path d="M0,0 L2,4 L0,8 L-3,7 L-1,7 L-1,5 L-3,4 Z " fill="#ADB7BD" transform="translate(355,475)"/>
<path d="M0,0 L4,0 L3,3 L-4,4 L-4,2 Z " fill="#B6B7B9" transform="translate(666,472)"/>
<path d="M0,0 L4,2 L0,7 L-2,2 Z " fill="#E7F4F4" transform="translate(761,453)"/>
<path d="M0,0 L1,2 L-4,12 L-5,10 L-2,3 Z " fill="#BBC6CE" transform="translate(788,448)"/>
<path d="M0,0 L5,0 L5,4 L4,6 L1,5 L2,2 Z " fill="#C1CAD0" transform="translate(543,442)"/>
<path d="M0,0 L3,0 L1,6 L-2,9 Z " fill="#BCC9D1" transform="translate(792,436)"/>
<path d="M0,0 L2,0 L7,6 L2,7 L0,5 Z " fill="#C8CDD1" transform="translate(582,377)"/>
<path d="M0,0 L4,1 L7,1 L6,5 L-1,3 Z M2,4 Z " fill="#C1C8CD" transform="translate(240,380)"/>
<path d="M0,0 L4,1 L4,3 L-1,6 L-3,5 L-2,1 Z " fill="#CDD1D5" transform="translate(665,348)"/>
<path d="M0,0 L5,5 L0,4 L-2,5 L-4,3 Z " fill="#B7BBBE" transform="translate(469,347)"/>
<path d="M0,0 L4,1 L5,5 L-1,4 L-2,1 Z " fill="#C2C9CF" transform="translate(436,324)"/>
<path d="M0,0 L6,2 L5,5 L-1,3 Z " fill="#C8CCCE" transform="translate(417,315)"/>
<path d="M0,0 L2,1 L1,6 L-3,8 L-3,4 L-1,4 Z " fill="#DBE8F0" transform="translate(210,841)"/>
<path d="M0,0 L2,1 L1,3 L3,4 L-1,7 L-2,2 L0,2 Z " fill="#B0BAC2" transform="translate(388,819)"/>
<path d="M0,0 L2,0 L0,5 L-4,9 L-3,5 Z " fill="#DDEEF8" transform="translate(332,816)"/>
<path d="M0,0 L4,0 L3,4 L-3,5 L-1,1 Z " fill="#D1E0E9" transform="translate(316,799)"/>
<path d="M0,0 Z M-2,1 L0,2 L0,5 L2,7 L-4,6 L-4,3 Z " fill="#C5C9CC" transform="translate(276,783)"/>
<path d="M0,0 L2,0 L3,6 L1,7 L-1,6 L-1,1 Z " fill="#C2C6C9" transform="translate(206,778)"/>
<path d="M0,0 L3,0 L3,2 L5,2 L4,5 L0,4 Z " fill="#B8B9BB" transform="translate(381,724)"/>
<path d="M0,0 L1,4 L1,9 L-3,11 L-1,3 Z " fill="#A0A8AA" transform="translate(587,607)"/>
<path d="M0,0 L5,1 L4,4 L1,3 L-3,4 L-2,2 L0,2 Z " fill="#C3C7CA" transform="translate(683,605)"/>
<path d="M0,0 L2,4 L4,7 L-2,7 L-1,2 Z " fill="#A8ADAF" transform="translate(399,597)"/>
<path d="M0,0 L8,1 L8,3 L0,3 Z " fill="#C1C2C3" transform="translate(864,572)"/>
<path d="M0,0 L1,0 L1,8 L-2,9 L-1,1 Z " fill="#A5AEB5" transform="translate(404,549)"/>
<path d="M0,0 L2,2 L-1,4 L-8,3 L-8,2 Z M-7,4 Z " fill="#E7F0F5" transform="translate(324,538)"/>
<path d="M0,0 L2,2 L0,7 L3,7 L3,9 L-1,10 L-1,1 Z " fill="#A1A9AF" transform="translate(608,535)"/>
<path d="M0,0 L4,0 L6,4 L4,5 L4,3 L-2,3 L-3,1 Z " fill="#B4BBC1" transform="translate(331,529)"/>
<path d="M0,0 L1,2 L0,10 L-3,13 L-2,5 Z " fill="#B6BABE" transform="translate(784,521)"/>
<path d="M0,0 L2,2 L-1,6 L-5,4 Z " fill="#E7EDF1" transform="translate(350,522)"/>
<path d="M0,0 L2,2 L3,7 L1,13 L0,10 Z " fill="#E6F2F6" transform="translate(410,515)"/>
<path d="M0,0 L1,4 L-2,13 L-3,13 L-3,7 Z " fill="#A2ADB4" transform="translate(371,480)"/>
<path d="M0,0 L3,1 L3,5 L0,6 L0,4 L-2,4 L-2,1 Z " fill="#B5B7B8" transform="translate(656,479)"/>
<path d="M0,0 L1,3 L0,7 L-2,8 L-3,4 Z " fill="#E6F2F7" transform="translate(811,408)"/>
<path d="M0,0 L3,1 L2,3 L4,4 L0,6 L-1,1 Z M4,2 Z " fill="#CFD1D1" transform="translate(425,356)"/>
<path d="M0,0 L5,1 L5,4 L4,7 L0,3 Z " fill="#E6F3F3" transform="translate(479,351)"/>
<path d="M0,0 L4,1 L1,2 L-2,5 L-4,2 Z M-5,3 Z M-7,4 L-5,5 Z " fill="#B6BBBF" transform="translate(851,335)"/>
<path d="M0,0 L6,2 L7,4 L4,5 L-2,2 Z " fill="#E7F0F5" transform="translate(440,321)"/>
<path d="M0,0 L2,2 L1,4 L3,5 L-2,7 L-3,4 L-1,4 Z " fill="#CFD1D4" transform="translate(319,869)"/>
<path d="M0,0 L6,2 L4,6 L1,5 L2,4 L0,3 Z " fill="#C8CDD2" transform="translate(612,858)"/>
<path d="M0,0 L8,1 L7,3 L-2,3 L-2,1 Z " fill="#B5B9BC" transform="translate(233,766)"/>
<path d="M0,0 L4,1 L4,4 L0,5 L-1,1 Z " fill="#ACB1B5" transform="translate(213,762)"/>
<path d="M0,0 L1,0 L1,5 L4,6 L1,10 L0,9 Z " fill="#B8C4CC" transform="translate(565,716)"/>
<path d="M0,0 L1,2 L4,2 L5,6 L2,6 L2,4 L-2,3 L-1,1 Z " fill="#ADB1B4" transform="translate(627,715)"/>
<path d="M0,0 L3,1 L3,7 L0,6 L-1,1 Z " fill="#B1B5B8" transform="translate(614,698)"/>
<path d="M0,0 L2,0 L2,5 L-2,6 L-1,1 Z " fill="#ABACAD" transform="translate(483,619)"/>
<path d="M0,0 L2,3 L3,6 L-1,6 L-2,1 Z " fill="#A9AAAC" transform="translate(471,610)"/>
<path d="M0,0 L5,4 L7,5 L5,7 L2,6 L-1,1 Z " fill="#AFB1B4" transform="translate(438,572)"/>
<path d="M0,0 L2,0 L2,5 L0,11 L-1,11 L-1,4 Z " fill="#E6F1FA" transform="translate(701,562)"/>
<path d="M0,0 L2,0 L2,2 L4,2 L4,4 L2,4 L2,6 L0,6 L-1,2 Z " fill="#C4C5C7" transform="translate(793,553)"/>
<path d="M0,0 L2,2 L3,8 L0,8 L-1,2 Z " fill="#B3B8BE" transform="translate(405,544)"/>
<path d="M0,0 L2,0 L3,6 L-2,5 Z " fill="#BEC2C5" transform="translate(629,533)"/>
<path d="M0,0 L2,0 L1,5 L-4,4 L-3,2 L0,2 Z M-2,5 L0,6 Z " fill="#C3C4C6" transform="translate(798,530)"/>
<path d="M0,0 L3,1 L3,4 L-1,5 L-1,2 Z " fill="#A6AFB5" transform="translate(337,527)"/>
<path d="M0,0 L3,0 L5,4 L-1,5 Z " fill="#B2BEC7" transform="translate(452,436)"/>
<path d="M0,0 L4,1 L4,4 L2,5 L-2,4 L-2,2 L0,2 Z " fill="#B3B7BA" transform="translate(505,435)"/>
<path d="M0,0 L1,4 L0,8 L-2,8 L-3,10 L-2,4 Z " fill="#B2BEC5" transform="translate(816,420)"/>
<path d="M0,0 L2,1 L0,10 L-1,10 L-1,1 Z " fill="#C0C9D0" transform="translate(285,417)"/>
<path d="M0,0 L3,0 L4,3 L3,4 L-3,4 L-2,2 L0,2 Z " fill="#BFC8D0" transform="translate(804,400)"/>
<path d="M0,0 L1,3 L-2,8 L-4,8 L-2,2 Z " fill="#B9C6CE" transform="translate(799,392)"/>
<path d="M0,0 L1,3 L-1,8 L-5,9 L-3,4 Z " fill="#DFEDF4" transform="translate(831,377)"/>
<path d="M0,0 L2,4 L0,7 L-2,7 L-3,3 L0,3 Z " fill="#D2D7D8" transform="translate(690,372)"/>
<path d="M0,0 L5,0 L2,1 L2,6 L-1,5 Z " fill="#BFC3C6" transform="translate(914,367)"/>
<path d="M0,0 L9,0 L10,2 L4,3 L4,1 Z " fill="#C1CAD1" transform="translate(375,342)"/>
<path d="M0,0 L3,1 L1,4 L3,5 L-1,5 L-2,7 L-3,4 L-1,4 Z " fill="#CCCDCF" transform="translate(393,323)"/>
<path d="M0,0 L8,0 L9,2 L1,3 Z " fill="#D9DCDE" transform="translate(575,325)"/>
<path d="M0,0 L2,0 L2,2 L4,3 L-5,5 L-4,3 L0,1 Z " fill="#CED6DB" transform="translate(638,856)"/>
<path d="M0,0 L2,0 L2,2 L5,3 L2,6 L0,6 L-1,3 Z " fill="#D9DCDF" transform="translate(627,854)"/>
<path d="M0,0 L2,1 L1,4 L-2,7 L-4,6 L-3,2 Z " fill="#BEC3C9" transform="translate(855,830)"/>
<path d="M0,0 L7,0 L5,1 L5,3 L0,3 Z " fill="#EAE5E3" transform="translate(310,832)"/>
<path d="M0,0 Z M-2,1 L0,1 L0,9 L-2,9 L-3,4 Z " fill="#CBD0D5" transform="translate(208,825)"/>
<path d="M0,0 L3,3 L1,7 L-1,5 Z " fill="#D9E9F4" transform="translate(777,803)"/>
<path d="M0,0 L4,1 L4,3 L-3,4 Z " fill="#CCD0D5" transform="translate(237,796)"/>
<path d="M0,0 L2,0 L1,5 L3,6 L-1,7 Z " fill="#A3B0B8" transform="translate(352,777)"/>
<path d="M0,0 L2,0 L2,2 L6,3 L3,4 L1,7 Z " fill="#B2B6B9" transform="translate(296,765)"/>
<path d="M0,0 L1,2 L-1,9 L-4,8 L-2,3 Z " fill="#D0DEE7" transform="translate(429,762)"/>
<path d="M0,0 L1,2 L0,6 L-3,7 L-2,3 Z M-4,7 Z M-5,8 Z " fill="#C5D8E5" transform="translate(444,738)"/>
<path d="M0,0 L3,1 L1,6 L-2,3 L-2,1 Z " fill="#A3ADB4" transform="translate(443,728)"/>
<path d="M0,0 L5,1 L0,5 L-3,4 L-3,2 Z " fill="#B8C2C9" transform="translate(248,724)"/>
<path d="M0,0 L2,1 L2,4 L4,6 L-1,7 Z " fill="#B4B8BB" transform="translate(630,698)"/>
<path d="M0,0 L2,3 L1,9 L-2,9 L-2,7 L0,7 L-1,3 Z " fill="#ABB7BE" transform="translate(458,693)"/>
<path d="M0,0 L5,0 L5,4 L0,3 Z " fill="#B3B7B9" transform="translate(453,683)"/>
<path d="M0,0 L1,2 L3,3 L1,8 L-1,5 Z " fill="#A2A8AE" transform="translate(574,662)"/>
<path d="M0,0 Z M-6,1 L0,1 L-1,4 L-7,4 Z " fill="#ABACAE" transform="translate(424,656)"/>
<path d="M0,0 L2,0 L2,4 L2,6 L-1,7 L-2,3 Z " fill="#B1B7BA" transform="translate(689,655)"/>
<path d="M0,0 L3,3 L5,4 L0,5 L-1,7 Z " fill="#9EA7AF" transform="translate(385,628)"/>
<path d="M0,0 L3,0 L3,5 L1,6 L-1,5 Z " fill="#D2D8DC" transform="translate(722,608)"/>
<path d="M0,0 L3,2 L2,7 L-1,7 Z " fill="#AFB8BF" transform="translate(397,570)"/>
<path d="M0,0 L3,1 L3,7 L-1,6 Z " fill="#C4CED4" transform="translate(699,553)"/>
<path d="M0,0 L2,2 L0,8 L-2,10 L-1,3 Z " fill="#C7D4DF" transform="translate(566,550)"/>
<path d="M0,0 L1,0 L2,9 L0,10 L-1,4 Z M2,6 Z " fill="#B0B6BE" transform="translate(606,538)"/>
<path d="M0,0 L6,2 L7,6 L3,4 Z " fill="#AFBEC6" transform="translate(253,521)"/>
<path d="M0,0 L1,3 L0,6 L2,7 L-2,9 L-1,1 Z " fill="#A4AFB8" transform="translate(422,498)"/>
<path d="M0,0 L4,4 L3,9 L1,8 Z " fill="#CFD3D7" transform="translate(789,499)"/>
<path d="M0,0 L2,0 L0,7 L-3,9 Z " fill="#DBEAF4" transform="translate(902,491)"/>
<path d="M0,0 L3,1 L3,4 L-2,4 L-2,1 Z " fill="#C5CACE" transform="translate(290,488)"/>
<path d="M0,0 L2,1 L-1,6 L-4,7 L-2,1 Z " fill="#D7E6F2" transform="translate(564,417)"/>
<path d="M0,0 L2,4 L-1,7 L-1,5 L-3,5 L-1,1 Z " fill="#D5EAF6" transform="translate(459,420)"/>
<path d="M0,0 L1,0 L2,6 L0,10 L-2,3 Z " fill="#CED5DB" transform="translate(287,408)"/>
<path d="M0,0 L1,4 L-1,9 L-2,9 L-2,1 Z " fill="#BEC8CE" transform="translate(290,404)"/>
<path d="M0,0 L3,1 L1,6 L-1,7 Z " fill="#B3BCC3" transform="translate(297,386)"/>
<path d="M0,0 L4,5 L1,8 L0,4 Z " fill="#D2D6D8" transform="translate(680,357)"/>
<path d="M0,0 L3,0 L2,5 L-1,5 Z " fill="#E7F0F3" transform="translate(819,357)"/>
<path d="M0,0 Z M-2,1 L2,3 L-3,5 L-6,5 L-6,3 Z " fill="#C1CAD0" transform="translate(326,356)"/>
<path d="M0,0 L2,0 L2,2 L0,2 Z M-3,2 L1,3 L1,6 L3,7 L-1,6 Z " fill="#CACED1" transform="translate(550,349)"/>
<path d="M0,0 L3,0 L2,3 L-4,5 L-4,3 Z " fill="#A0B1BD" transform="translate(294,324)"/>
</svg>
