<?xml version="1.0" encoding="UTF-8"?>
<svg version="1.1" xmlns="http://www.w3.org/2000/svg" width="1200" height="1200">
<path d="M0,0 L8,0 L25,3 L39,5 L63,13 L73,19 L89,27 L98,32 L104,38 L109,41 L113,45 L122,52 L133,52 L137,46 L143,42 L160,39 L166,36 L171,33 L173,33 L174,30 L187,26 L197,22 L217,17 L238,15 L247,15 L257,18 L263,20 L275,21 L283,26 L297,33 L308,41 L317,50 L322,55 L328,64 L338,83 L343,90 L346,89 L347,86 L359,87 L376,83 L380,79 L382,73 L387,70 L391,68 L396,68 L399,71 L398,76 L395,81 L393,92 L398,95 L407,93 L411,87 L418,78 L426,72 L434,68 L441,61 L445,56 L450,53 L453,48 L458,45 L463,39 L468,36 L473,31 L481,25 L490,21 L507,16 L514,15 L518,12 L531,10 L544,9 L553,8 L567,12 L576,14 L585,18 L593,23 L599,32 L602,39 L602,66 L598,77 L597,85 L598,103 L601,114 L603,123 L603,127 L601,159 L601,175 L599,189 L599,202 L597,206 L592,211 L589,217 L586,223 L583,235 L579,241 L573,251 L568,256 L563,262 L559,275 L557,288 L557,305 L559,322 L559,357 L562,360 L572,367 L583,375 L586,378 L589,384 L593,388 L593,390 L599,392 L614,400 L625,409 L633,415 L640,423 L645,430 L649,446 L650,454 L650,475 L644,502 L639,512 L630,523 L626,526 L617,525 L605,525 L586,531 L578,535 L566,546 L563,549 L554,553 L544,561 L536,568 L527,572 L500,581 L495,582 L486,582 L461,579 L458,580 L457,587 L454,589 L441,589 L429,593 L415,599 L404,603 L401,605 L392,605 L382,603 L373,603 L362,607 L349,611 L338,615 L327,615 L309,613 L298,609 L283,600 L278,596 L273,590 L264,583 L257,582 L240,582 L223,584 L219,586 L215,590 L204,597 L196,600 L189,601 L177,601 L168,599 L156,593 L148,587 L131,581 L119,581 L99,585 L87,590 L73,594 L62,594 L53,591 L44,581 L36,565 L31,560 L25,558 L16,559 L7,566 L-9,574 L-15,577 L-21,584 L-28,589 L-37,593 L-47,597 L-60,601 L-68,604 L-84,606 L-93,606 L-107,604 L-129,596 L-135,592 L-140,587 L-153,572 L-160,564 L-168,549 L-173,534 L-175,523 L-175,510 L-173,497 L-172,473 L-169,461 L-165,453 L-158,447 L-151,443 L-146,438 L-140,433 L-138,433 L-137,430 L-131,426 L-126,421 L-109,414 L-96,411 L-79,410 L-72,408 L-65,392 L-42,369 L-34,363 L-26,360 L-18,359 L-13,354 L-8,344 L-8,333 L-9,327 L-10,310 L-14,302 L-19,296 L-24,284 L-31,275 L-38,267 L-44,263 L-50,261 L-58,261 L-62,262 L-82,262 L-91,260 L-101,254 L-113,249 L-122,247 L-130,246 L-137,238 L-143,226 L-148,221 L-150,212 L-147,203 L-146,197 L-145,181 L-145,161 L-149,129 L-151,123 L-151,102 L-147,86 L-139,66 L-135,60 L-126,52 L-121,47 L-117,42 L-115,42 L-115,40 L-104,31 L-84,19 L-73,12 L-59,2 L-49,2 L-45,4 L-37,4 L-30,2 L-9,1 Z " fill="#BEC1C4" transform="translate(364,298)"/>
<path d="M0,0 L8,0 L25,3 L39,5 L63,13 L73,19 L89,27 L98,32 L104,38 L109,41 L113,45 L122,52 L133,52 L137,46 L143,42 L160,39 L166,36 L171,33 L173,33 L174,30 L187,26 L197,22 L217,17 L238,15 L247,15 L257,18 L263,20 L275,21 L283,26 L297,33 L308,41 L317,50 L322,55 L328,64 L338,83 L343,90 L346,89 L347,86 L359,87 L376,83 L380,79 L382,73 L387,70 L391,68 L396,68 L399,71 L398,76 L395,81 L393,92 L398,95 L407,93 L411,87 L418,78 L426,72 L434,68 L441,61 L445,56 L450,53 L453,48 L458,45 L463,39 L468,36 L473,31 L481,25 L490,21 L507,16 L514,15 L518,12 L531,10 L544,9 L553,8 L567,12 L576,14 L585,18 L593,23 L599,32 L602,39 L602,66 L598,77 L597,85 L598,103 L601,114 L603,123 L603,127 L601,159 L601,175 L599,189 L599,202 L597,206 L592,211 L589,217 L586,223 L583,235 L579,241 L573,251 L568,256 L563,262 L559,275 L557,288 L557,305 L559,322 L559,357 L562,360 L572,367 L583,375 L586,378 L589,384 L593,388 L593,390 L599,392 L614,400 L625,409 L633,415 L640,423 L645,430 L649,446 L650,454 L650,475 L644,502 L639,512 L630,523 L626,526 L617,525 L605,525 L586,531 L578,535 L566,546 L563,549 L554,553 L544,561 L536,568 L527,572 L500,581 L495,582 L486,582 L461,579 L458,580 L457,587 L454,589 L441,589 L429,593 L415,599 L404,603 L401,605 L392,605 L382,603 L373,603 L362,607 L349,611 L338,615 L327,615 L309,613 L298,609 L283,600 L278,596 L273,590 L264,583 L257,582 L240,582 L223,584 L219,586 L215,590 L204,597 L196,600 L189,601 L177,601 L168,599 L156,593 L148,587 L131,581 L119,581 L99,585 L87,590 L73,594 L62,594 L53,591 L44,581 L36,565 L31,560 L25,558 L16,559 L7,566 L-9,574 L-15,577 L-21,584 L-28,589 L-37,593 L-47,597 L-60,601 L-68,604 L-84,606 L-93,606 L-107,604 L-129,596 L-135,592 L-140,587 L-153,572 L-160,564 L-168,549 L-173,534 L-175,523 L-175,510 L-173,497 L-172,473 L-169,461 L-165,453 L-158,447 L-151,443 L-146,438 L-140,433 L-138,433 L-137,430 L-131,426 L-126,421 L-109,414 L-96,411 L-79,410 L-72,408 L-65,392 L-42,369 L-34,363 L-26,360 L-18,359 L-13,354 L-8,344 L-8,333 L-9,327 L-10,310 L-14,302 L-19,296 L-24,284 L-31,275 L-38,267 L-44,263 L-50,261 L-58,261 L-62,262 L-82,262 L-91,260 L-101,254 L-113,249 L-122,247 L-130,246 L-137,238 L-143,226 L-148,221 L-150,212 L-147,203 L-146,197 L-145,181 L-145,161 L-149,129 L-151,123 L-151,102 L-147,86 L-139,66 L-135,60 L-126,52 L-121,47 L-117,42 L-115,42 L-115,40 L-104,31 L-84,19 L-73,12 L-59,2 L-49,2 L-45,4 L-37,4 L-30,2 L-9,1 Z M-12,7 L-28,10 L-42,14 L-62,22 L-71,27 L-88,39 L-104,54 L-113,65 L-123,80 L-131,97 L-136,112 L-139,126 L-140,135 L-140,161 L-138,173 L-134,188 L-127,204 L-120,214 L-113,223 L-105,230 L-95,236 L-88,240 L-72,244 L-52,244 L-37,240 L-25,234 L-12,223 L-5,215 L2,203 L7,190 L9,182 L9,163 L4,161 L-2,161 L-7,174 L-15,184 L-22,190 L-30,194 L-36,196 L-47,196 L-56,194 L-65,188 L-72,179 L-76,170 L-79,160 L-79,131 L-74,112 L-69,99 L-61,86 L-53,75 L-42,64 L-34,59 L-18,51 L-2,47 L15,47 L29,50 L42,55 L51,60 L55,63 L57,63 L57,65 L67,73 L72,79 L74,79 L76,84 L80,89 L91,110 L96,126 L86,141 L80,153 L75,162 L67,178 L67,182 L65,182 L57,201 L48,224 L39,252 L34,270 L29,288 L21,326 L16,351 L11,382 L7,402 L2,427 L-7,462 L-12,478 L-21,502 L-30,519 L-39,531 L-48,541 L-52,543 L-57,548 L-68,554 L-80,556 L-94,555 L-103,551 L-110,545 L-112,545 L-113,542 L-115,542 L-116,537 L-120,530 L-122,521 L-122,508 L-120,501 L-116,492 L-112,486 L-105,480 L-106,482 L-106,494 L-103,504 L-99,511 L-89,517 L-86,518 L-71,518 L-61,514 L-53,508 L-45,498 L-40,487 L-38,478 L-38,466 L-40,456 L-46,444 L-55,434 L-61,429 L-70,424 L-81,421 L-105,421 L-121,427 L-131,433 L-137,438 L-140,441 L-140,443 L-143,444 L-152,457 L-159,472 L-163,488 L-163,515 L-158,536 L-151,548 L-146,557 L-143,559 L-142,562 L-139,562 L-137,567 L-135,567 L-135,569 L-129,574 L-126,574 L-126,576 L-116,582 L-106,586 L-86,590 L-60,590 L-34,580 L-19,571 L-8,562 L4,551 L16,538 L25,527 L32,517 L40,506 L49,492 L54,485 L60,474 L72,452 L80,437 L81,431 L83,431 L94,406 L102,387 L108,370 L115,352 L122,330 L131,302 L136,284 L143,260 L151,234 L159,208 L167,188 L173,172 L184,148 L192,133 L192,130 L194,130 L200,118 L208,106 L208,104 L210,104 L216,95 L221,89 L221,87 L223,87 L223,85 L225,85 L230,80 L234,78 L241,78 L246,81 L252,90 L256,102 L258,111 L259,120 L259,161 L256,187 L244,236 L241,244 L236,260 L229,284 L225,299 L220,318 L211,354 L207,379 L205,387 L202,411 L200,433 L199,446 L199,502 L203,538 L207,555 L210,562 L217,565 L233,567 L252,567 L272,565 L282,562 L286,558 L292,536 L296,525 L303,498 L309,478 L317,452 L330,412 L338,388 L345,368 L349,356 L357,332 L364,311 L368,301 L373,286 L381,264 L385,254 L388,245 L395,226 L401,210 L407,194 L414,177 L420,165 L425,152 L425,149 L427,149 L435,132 L439,125 L445,114 L453,101 L466,82 L466,84 L456,108 L450,126 L442,147 L430,184 L422,212 L420,221 L418,228 L411,257 L407,274 L404,293 L401,306 L398,330 L396,345 L394,368 L394,414 L396,438 L400,462 L405,483 L413,504 L421,519 L430,531 L432,531 L434,535 L442,543 L453,551 L462,555 L473,559 L484,561 L504,561 L521,557 L540,548 L540,546 L544,545 L549,540 L555,535 L561,527 L571,513 L581,492 L587,475 L591,454 L591,427 L588,410 L583,396 L579,389 L577,389 L575,384 L565,375 L558,371 L553,370 L536,370 L526,373 L516,381 L512,386 L507,394 L505,401 L505,415 L508,421 L514,423 L519,422 L526,409 L532,402 L536,400 L536,398 L544,396 L552,396 L559,399 L564,403 L565,405 L567,405 L569,410 L573,421 L575,428 L575,455 L572,469 L568,484 L557,506 L549,517 L541,525 L533,529 L524,529 L517,525 L509,514 L504,504 L498,483 L496,471 L494,446 L493,403 L491,403 L491,401 L494,401 L499,355 L503,329 L508,304 L513,283 L519,259 L527,230 L535,204 L541,184 L547,166 L551,152 L563,116 L571,92 L576,76 L582,56 L587,38 L587,31 L571,24 L561,21 L548,19 L528,19 L516,21 L503,25 L489,32 L476,42 L469,48 L462,56 L454,66 L441,84 L431,100 L431,102 L429,102 L415,128 L403,151 L393,170 L388,182 L380,198 L374,213 L369,224 L363,240 L353,268 L341,304 L337,318 L334,328 L328,345 L324,358 L315,382 L317,366 L324,331 L330,304 L334,283 L335,282 L337,268 L342,235 L345,206 L346,190 L346,148 L344,126 L340,105 L337,92 L333,82 L323,64 L321,64 L319,59 L315,53 L307,46 L303,42 L301,42 L301,40 L290,34 L282,29 L268,24 L255,21 L246,20 L232,20 L212,23 L200,27 L188,32 L169,44 L156,55 L147,63 L147,65 L145,65 L145,67 L143,67 L134,78 L132,78 L126,69 L119,60 L113,53 L105,46 L101,42 L99,42 L99,40 L93,36 L82,28 L66,20 L50,13 L30,8 L23,7 Z " fill="#EBF3F8" transform="translate(364,298)"/>
<path d="M0,0 L20,0 L38,3 L51,8 L59,12 L59,19 L52,45 L47,61 L41,79 L33,103 L21,139 L16,155 L13,165 L5,191 L-1,211 L-10,243 L-15,264 L-22,295 L-26,315 L-31,352 L-34,382 L-37,382 L-37,384 L-35,384 L-34,427 L-32,452 L-28,472 L-23,487 L-16,500 L-11,506 L-4,510 L5,510 L14,505 L23,496 L31,483 L40,465 L46,443 L47,436 L47,409 L43,395 L39,388 L39,386 L37,386 L33,381 L28,378 L24,377 L16,377 L8,379 L8,381 L2,385 L-4,393 L-9,403 L-14,404 L-21,401 L-23,396 L-23,382 L-19,371 L-12,362 L-2,354 L8,351 L25,351 L31,353 L41,359 L48,366 L49,370 L51,370 L56,380 L61,394 L63,408 L63,435 L58,459 L50,480 L41,497 L33,508 L27,516 L17,524 L15,527 L12,527 L12,529 L-7,538 L-24,542 L-44,542 L-55,540 L-66,536 L-76,531 L-88,522 L-96,514 L-96,512 L-98,512 L-108,498 L-116,483 L-123,464 L-129,439 L-133,411 L-134,395 L-134,349 L-131,315 L-128,295 L-125,277 L-122,262 L-119,247 L-112,216 L-109,203 L-107,198 L-102,179 L-93,149 L-84,123 L-77,105 L-71,87 L-61,62 L-71,76 L-79,89 L-83,95 L-90,109 L-96,119 L-101,130 L-103,130 L-104,135 L-109,147 L-114,158 L-122,178 L-129,195 L-136,215 L-141,229 L-144,237 L-153,261 L-161,285 L-164,292 L-171,313 L-173,319 L-176,319 L-178,321 L-180,319 L-179,316 L-185,317 L-189,315 L-189,313 L-193,313 L-194,309 L-189,291 L-186,283 L-173,243 L-161,211 L-155,195 L-150,184 L-143,168 L-137,156 L-129,140 L-121,124 L-108,99 L-99,83 L-97,83 L-95,77 L-85,62 L-73,46 L-65,36 L-57,27 L-43,16 L-34,10 L-17,3 L-9,1 Z " fill="#C9CCCF" transform="translate(892,317)"/>
<path d="M0,0 L8,0 L25,3 L39,5 L63,13 L73,19 L89,27 L98,32 L104,38 L109,41 L113,45 L122,52 L133,52 L137,46 L143,42 L160,39 L166,36 L171,33 L173,33 L174,30 L187,26 L197,22 L217,17 L238,15 L247,15 L257,18 L263,20 L275,21 L283,26 L297,33 L308,41 L317,50 L322,55 L328,64 L338,83 L343,90 L346,89 L347,86 L359,87 L376,83 L380,79 L382,73 L387,70 L391,68 L396,68 L399,71 L398,76 L395,81 L393,92 L398,95 L407,93 L411,87 L418,78 L426,72 L434,68 L441,61 L445,56 L450,53 L453,48 L458,45 L463,39 L468,36 L473,31 L481,25 L490,21 L507,16 L514,15 L518,12 L531,10 L544,9 L553,8 L567,12 L576,14 L585,18 L590,21 L588,24 L586,28 L580,29 L568,24 L556,21 L548,20 L528,20 L516,22 L503,26 L489,33 L476,43 L470,48 L463,56 L455,66 L442,84 L432,100 L431,102 L429,102 L427,108 L417,126 L404,151 L394,170 L389,182 L381,198 L375,213 L370,224 L364,240 L354,268 L342,304 L338,318 L335,328 L329,345 L325,358 L315,384 L314,384 L315,374 L319,350 L329,304 L333,283 L334,282 L336,268 L341,235 L344,206 L345,190 L345,148 L343,126 L339,105 L336,92 L332,82 L323,66 L323,64 L321,64 L317,58 L315,53 L311,51 L303,43 L301,42 L301,40 L297,39 L284,31 L268,25 L255,22 L246,21 L232,21 L212,24 L200,28 L188,33 L169,45 L156,56 L148,63 L147,65 L145,65 L145,67 L143,67 L141,71 L134,79 L131,78 L125,69 L118,60 L113,54 L105,47 L99,42 L99,40 L94,38 L85,31 L74,25 L60,18 L46,13 L30,9 L23,8 L-12,8 L-28,11 L-42,15 L-62,23 L-71,28 L-88,40 L-104,55 L-112,65 L-122,80 L-130,97 L-135,112 L-138,126 L-139,135 L-139,161 L-137,173 L-133,188 L-126,204 L-119,214 L-113,222 L-105,229 L-95,235 L-88,239 L-72,243 L-52,243 L-37,239 L-25,233 L-12,222 L-4,212 L4,196 L8,182 L8,163 L-2,161 L-4,169 L-8,177 L-19,189 L-30,195 L-36,197 L-47,197 L-56,195 L-65,189 L-72,181 L-75,176 L-80,160 L-80,131 L-75,112 L-70,99 L-62,86 L-54,75 L-42,63 L-34,58 L-18,50 L-2,46 L15,46 L29,49 L42,54 L51,59 L57,63 L57,65 L61,67 L69,74 L69,76 L72,77 L72,79 L74,79 L77,84 L77,86 L80,87 L92,110 L97,126 L87,141 L81,153 L76,162 L68,178 L67,182 L65,182 L64,187 L56,206 L49,224 L40,252 L35,270 L30,288 L22,326 L17,351 L12,382 L8,402 L3,427 L-6,462 L-11,478 L-20,502 L-29,519 L-38,531 L-48,542 L-52,543 L-53,546 L-60,551 L-68,555 L-80,557 L-94,556 L-103,552 L-112,545 L-115,542 L-119,534 L-122,528 L-123,521 L-123,508 L-121,501 L-117,492 L-113,486 L-107,480 L-105,480 L-105,494 L-102,504 L-99,509 L-99,511 L-95,513 L-86,517 L-71,517 L-61,513 L-53,507 L-45,496 L-40,483 L-39,478 L-39,466 L-41,456 L-47,444 L-56,434 L-61,430 L-70,425 L-81,422 L-107,422 L-108,420 L-108,414 L-96,411 L-79,410 L-72,408 L-65,392 L-42,369 L-34,363 L-26,360 L-18,359 L-13,354 L-8,344 L-8,333 L-9,327 L-10,310 L-14,302 L-19,296 L-24,284 L-31,275 L-38,267 L-44,263 L-50,261 L-58,261 L-62,262 L-82,262 L-91,260 L-101,254 L-113,249 L-122,247 L-130,246 L-137,238 L-143,226 L-148,221 L-150,212 L-147,203 L-146,197 L-145,181 L-145,161 L-149,129 L-151,123 L-151,102 L-147,86 L-139,66 L-135,60 L-126,52 L-121,47 L-117,42 L-115,42 L-115,40 L-104,31 L-84,19 L-73,12 L-59,2 L-49,2 L-45,4 L-37,4 L-30,2 L-9,1 Z " fill="#ECF3F8" transform="translate(364,298)"/>
<path d="M0,0 L7,0 L12,3 L18,11 L22,22 L25,34 L26,43 L26,84 L23,110 L11,159 L8,167 L3,183 L-4,207 L-8,222 L-13,241 L-22,277 L-26,302 L-28,310 L-29,321 L-30,321 L-34,306 L-34,302 L-36,302 L-37,307 L-44,325 L-47,337 L-53,353 L-57,367 L-59,375 L-61,375 L-62,382 L-65,395 L-69,409 L-72,420 L-73,428 L-76,434 L-79,448 L-81,454 L-85,457 L-114,460 L-146,460 L-158,458 L-163,446 L-169,421 L-173,393 L-164,377 L-155,360 L-153,354 L-151,354 L-148,344 L-137,320 L-129,299 L-121,277 L-118,270 L-112,249 L-106,231 L-97,201 L-89,173 L-81,147 L-73,123 L-65,103 L-61,93 L-51,71 L-43,56 L-42,53 L-40,53 L-39,49 L-33,38 L-26,27 L-24,27 L-22,22 L-13,10 L-11,10 L-11,8 L-9,8 L-8,5 Z " fill="#CFDEE9" transform="translate(598,375)"/>
<path d="M0,0 L1,3 L-7,22 L-12,35 L-16,47 L-24,68 L-36,105 L-44,133 L-46,142 L-48,149 L-55,178 L-59,195 L-62,214 L-65,227 L-68,251 L-70,266 L-72,289 L-72,335 L-70,359 L-66,383 L-61,404 L-53,425 L-45,440 L-37,450 L-37,452 L-35,452 L-28,460 L-35,471 L-37,474 L-39,474 L-39,476 L-44,481 L-47,481 L-49,485 L-60,492 L-63,492 L-63,494 L-73,497 L-79,499 L-87,501 L-111,501 L-121,498 L-130,494 L-135,491 L-135,489 L-138,489 L-138,487 L-142,485 L-147,481 L-149,475 L-151,475 L-152,471 L-155,470 L-168,448 L-170,437 L-162,409 L-153,380 L-148,364 L-138,333 L-130,309 L-123,289 L-119,277 L-111,253 L-104,232 L-100,222 L-95,207 L-87,185 L-83,175 L-80,166 L-73,147 L-67,131 L-61,115 L-54,98 L-48,86 L-42,70 L-40,70 L-39,65 L-31,50 L-25,39 L-17,25 L-9,13 Z " fill="#D9E6EF" transform="translate(831,377)"/>
<path d="M0,0 L24,0 L37,4 L47,10 L57,20 L63,30 L66,38 L67,45 L67,57 L64,68 L58,80 L49,90 L38,96 L34,97 L19,97 L9,92 L5,88 L1,81 L-1,73 L-1,61 L0,59 L-8,66 L-14,77 L-16,81 L-17,87 L-17,100 L-15,109 L-10,118 L-10,121 L-7,122 L-7,124 L-3,126 L5,132 L11,134 L25,135 L37,133 L48,127 L55,121 L62,115 L70,105 L71,107 L76,108 L75,112 L76,119 L74,119 L73,123 L70,122 L70,129 L71,137 L67,139 L63,137 L62,142 L67,143 L65,148 L62,148 L61,151 L59,154 L57,154 L58,158 L55,158 L54,164 L47,166 L47,168 L44,169 L19,169 L7,167 L-6,163 L-16,158 L-21,155 L-21,153 L-25,152 L-30,148 L-30,146 L-33,145 L-34,141 L-37,141 L-38,138 L-43,133 L-49,122 L-53,115 L-58,94 L-58,67 L-54,51 L-46,34 L-37,22 L-35,22 L-35,20 L-27,13 L-22,9 L-9,3 Z " fill="#BEC3C6" transform="translate(259,719)"/>
<path d="M0,0 L1200,0 L1200,1200 L0,1200 Z M9,2 L5,4 L5,6 L3,6 L2,12 L2,1185 L3,1190 L5,1190 L5,1193 L13,1196 L18,1197 L1189,1197 L1197,1195 L1198,1191 L1198,7 L1197,2 Z " fill="#F3F8FC" transform="translate(0,0)"/>
<path d="M0,0 L3,0 L7,5 L13,10 L14,14 L18,16 L22,23 L22,25 L24,25 L27,34 L29,34 L35,50 L40,71 L41,80 L50,79 L41,98 L35,113 L30,124 L24,140 L14,168 L2,204 L-2,218 L-5,228 L-11,245 L-15,258 L-25,284 L-26,284 L-25,274 L-21,250 L-11,204 L-7,183 L-6,182 L-4,168 L1,135 L4,106 L5,90 L5,48 L3,26 L-1,5 Z " fill="#D5E4ED" transform="translate(704,398)"/>
<path d="M0,0 L5,1 L5,8 L-6,27 L-13,38 L-20,49 L-27,59 L-33,67 L-37,73 L-50,88 L-62,101 L-73,111 L-84,119 L-98,127 L-117,134 L-122,134 L-120,132 L-114,130 L-112,125 L-109,125 L-110,121 L-108,121 L-106,117 L-105,115 L-102,114 L-100,110 L-106,110 L-105,106 L-104,104 L-98,105 L-97,104 L-98,89 L-95,89 L-93,86 L-91,86 L-93,78 L-91,75 L-96,74 L-95,69 L-89,60 L-81,43 L-73,22 L-70,14 L-69,14 L-67,24 L-66,22 L-63,24 L-63,19 L-61,19 L-61,21 L-59,21 L-59,17 L-62,15 L-56,15 L-52,14 L-52,12 L-55,11 L-53,11 L-53,8 L-51,8 L-50,13 L-44,13 L-42,19 L-44,19 L-42,21 L-42,23 L-40,26 L-39,24 L-32,25 L-34,26 L-33,30 L-28,28 L-25,28 L-25,16 L-24,13 L-22,13 L-22,15 L-17,14 L-15,16 L-16,21 L-17,25 L-14,25 L-13,27 L-10,28 L-10,25 L-12,24 L-9,23 L-8,24 L-7,21 L-5,20 L-6,16 L-3,15 L-1,9 L-3,7 L-2,2 Z M-18,16 Z " fill="#BABBBC" transform="translate(426,752)"/>
<path d="M0,0 L7,0 L7,3 L9,4 L5,5 L5,7 L10,6 L17,6 L17,27 L19,23 L21,32 L26,41 L26,44 L29,45 L29,47 L33,49 L41,55 L47,57 L61,58 L73,56 L84,50 L91,44 L98,38 L106,28 L107,30 L112,31 L111,35 L112,42 L110,42 L109,46 L106,45 L106,52 L107,60 L103,62 L99,60 L98,65 L103,66 L101,71 L98,71 L97,74 L95,77 L93,77 L94,81 L91,81 L90,87 L83,89 L83,91 L80,92 L55,92 L43,90 L30,86 L20,81 L15,78 L15,76 L11,75 L6,71 L6,69 L3,68 L2,64 L-1,64 L-2,61 L-7,56 L-13,45 L-17,38 L-18,33 L-16,28 L-18,28 L-17,23 L-19,23 L-19,20 L-15,19 L-16,13 L-15,11 L-12,11 L-17,10 L-17,8 L-11,8 L-11,5 L-1,4 Z M-15,14 Z " fill="#D5D9DD" transform="translate(223,796)"/>
<path d="M0,0 L7,1 L16,4 L26,9 L30,13 L30,15 L34,17 L40,24 L46,35 L50,50 L50,61 L47,77 L42,89 L36,98 L32,103 L18,113 L6,116 L-15,116 L-15,114 L-17,113 L-9,98 L0,74 L4,53 L4,26 L1,9 L-1,1 Z " fill="#D5E3ED" transform="translate(950,699)"/>
<path d="M0,0 L18,0 L25,3 L27,7 L30,8 L31,12 L33,12 L37,22 L37,28 L27,59 L22,75 L21,81 L19,81 L18,93 L12,114 L7,134 L2,150 L0,156 L-2,166 L-5,174 L-6,170 L-4,142 L-4,94 L-5,74 L-9,50 L-12,32 L-14,27 L-14,20 L-6,3 Z " fill="#F1F8FB" transform="translate(550,450)"/>
<path d="M0,0 L2,0 L2,14 L5,24 L8,29 L8,31 L12,33 L21,37 L36,37 L46,33 L54,27 L62,16 L68,1 L73,4 L79,15 L83,28 L81,34 L70,50 L59,62 L55,63 L54,66 L47,71 L39,75 L27,77 L13,76 L4,72 L-5,65 L-8,62 L-12,54 L-15,48 L-16,41 L-16,28 L-14,21 L-10,12 L-6,6 Z " fill="#DBE7F0" transform="translate(257,778)"/>
<path d="M0,0 L1,3 L-5,7 L-8,10 L-4,12 L-7,13 L1,14 L4,15 L4,17 L20,22 L33,26 L33,28 L39,29 L46,32 L46,35 L48,36 L47,33 L52,34 L53,37 L52,40 L50,40 L50,38 L48,38 L49,40 L52,42 L49,43 L50,45 L48,45 L47,49 L43,51 L37,52 L37,55 L35,55 L35,53 L33,53 L33,49 L28,51 L22,50 L22,52 L25,53 L25,56 L25,57 L19,57 L21,65 L21,68 L19,68 L18,65 L18,53 L19,51 L11,58 L5,69 L3,73 L2,79 L1,97 L-2,95 L0,95 L-1,82 L0,75 L-12,76 L-12,74 L-10,72 L-10,69 L-17,70 L-18,74 L-26,75 L-28,74 L-27,77 L-29,78 L-34,77 L-34,79 L-29,79 L-28,81 L-32,80 L-32,86 L-31,89 L-36,89 L-36,92 L-34,92 L-35,97 L-33,97 L-34,102 L-36,99 L-39,86 L-39,59 L-35,43 L-27,26 L-18,14 L-16,14 L-16,12 L-8,5 L-3,1 Z M15,18 L17,19 L15,20 Z M-32,83 Z " fill="#B6BABD" transform="translate(240,727)"/>
<path d="M0,0 L17,0 L23,2 L33,8 L40,15 L41,19 L43,19 L48,29 L53,43 L52,51 L46,52 L44,51 L46,46 L38,44 L35,42 L35,40 L32,39 L31,35 L29,35 L25,30 L20,27 L16,26 L8,26 L0,28 L0,30 L-6,34 L-12,42 L-17,52 L-22,53 L-29,50 L-31,45 L-31,31 L-27,20 L-20,11 L-10,3 Z " fill="#D4D9DC" transform="translate(900,668)"/>
<path d="M0,0 L1,0 L1,8 L0,15 L1,17 L-4,32 L2,31 L5,32 L5,34 L2,37 L-4,36 L-4,38 L2,39 L4,43 L4,46 L8,47 L18,47 L16,48 L16,50 L14,50 L15,53 L17,52 L19,54 L19,56 L23,55 L21,64 L26,63 L29,65 L27,66 L26,71 L29,72 L26,76 L30,80 L27,83 L23,83 L22,89 L24,90 L20,91 L28,91 L29,94 L31,95 L32,91 L37,92 L37,94 L33,94 L34,97 L30,97 L34,98 L33,102 L42,102 L40,108 L38,108 L38,110 L42,109 L42,112 L45,113 L44,116 L49,113 L53,114 L52,119 L47,120 L47,123 L44,123 L44,121 L39,120 L35,117 L35,115 L38,115 L33,112 L33,105 L28,106 L22,106 L21,107 L9,108 L7,107 L6,111 L5,109 L0,108 L0,106 L3,106 L2,104 L9,104 L10,105 L17,106 L18,98 L18,96 L11,95 L11,92 L15,92 L16,88 L18,85 L18,82 L14,80 L14,77 L10,77 L5,75 L0,75 L-1,68 L-1,64 L-3,65 L-4,68 L-11,68 L-11,72 L-16,77 L-14,81 L-13,84 L-16,88 L-20,92 L-22,92 L-22,86 L-17,70 L-12,54 L-4,22 Z M2,47 Z M25,79 L26,81 Z " fill="#B8BCBF" transform="translate(622,472)"/>
<path d="M0,0 L1,0 L2,53 L2,169 L1,352 L0,352 L-1,338 L-2,180 L-3,144 L-4,317 L-5,341 L-6,341 L-6,34 L-4,34 L-3,62 L-2,48 L-1,11 Z " fill="#F4F9FD" transform="translate(1194,339)"/>
<path d="M0,0 L6,2 L6,4 L3,4 L3,2 L1,2 L2,5 L0,9 L1,15 L2,20 L1,21 L0,29 L-2,29 L-3,27 L-3,32 L-5,33 L-5,35 L-2,36 L0,34 L1,39 L11,41 L11,44 L1,46 L-4,47 L-4,49 L1,50 L5,49 L5,51 L7,53 L5,58 L1,58 L1,62 L3,64 L3,67 L0,67 L0,70 L8,69 L10,67 L15,72 L15,74 L11,73 L10,74 L9,85 L13,86 L6,86 L4,85 L4,93 L6,93 L6,89 L11,91 L12,94 L9,96 L9,97 L3,99 L-1,99 L-3,99 L-3,101 L-5,101 L-6,97 L-5,96 L-8,95 L-9,98 L-17,98 L-17,94 L-14,94 L-15,89 L-17,93 L-18,99 L-13,99 L-15,101 L-18,101 L-19,103 L-21,103 L-20,109 L-22,120 L-24,125 L-25,125 L-25,117 L-20,86 L-14,55 L-7,23 L-2,5 Z M10,92 Z " fill="#AFB2B5" transform="translate(400,563)"/>
<path d="M0,0 L2,1 L2,3 L6,4 L9,7 L10,12 L21,12 L25,13 L30,13 L32,19 L30,21 L23,24 L17,24 L15,30 L22,30 L23,33 L19,41 L17,45 L16,51 L15,69 L12,67 L14,67 L13,54 L14,47 L2,48 L2,46 L4,44 L4,41 L-3,42 L-4,46 L-12,47 L-14,46 L-13,49 L-15,50 L-20,49 L-20,51 L-15,51 L-14,53 L-18,52 L-18,58 L-17,61 L-22,61 L-22,64 L-20,64 L-21,69 L-19,69 L-20,74 L-22,71 L-25,58 L-25,31 L-21,29 L-21,24 L-18,23 L-10,23 L-10,25 L-2,24 L-2,22 L-6,21 L-2,21 L-1,17 L2,15 L-2,13 L-2,2 Z M14,13 Z M2,0 Z M22,12 Z M-18,55 Z " fill="#BBBFC3" transform="translate(226,755)"/>
<path d="M0,0 L16,0 L17,4 L21,5 L18,8 L18,13 L19,14 L24,16 L26,16 L32,16 L33,18 L32,21 L29,21 L29,23 L25,23 L25,25 L30,25 L30,23 L34,25 L32,28 L33,30 L30,33 L24,35 L25,39 L17,38 L10,35 L10,33 L-1,31 L-15,26 L-21,24 L-20,22 L-27,22 L-32,20 L-32,17 L-29,16 L-27,12 L-23,10 L-22,6 L-12,2 L-2,5 L-2,3 L-4,3 L-4,1 Z M-8,25 L-7,27 L-6,25 Z M17,1 Z " fill="#C2C8CC" transform="translate(263,720)"/>
<path d="M0,0 L1,3 L-7,22 L-12,35 L-16,47 L-24,68 L-35,102 L-38,102 L-39,101 L-53,100 L-52,94 L-48,86 L-42,70 L-40,70 L-39,65 L-31,50 L-25,39 L-17,25 L-9,13 Z " fill="#EEF6F9" transform="translate(831,377)"/>
<path d="M0,0 L3,0 L2,4 L0,9 L-2,9 L-3,13 L-8,20 L-16,25 L-19,28 L-25,30 L-36,31 L-52,31 L-64,26 L-76,18 L-83,10 L-86,8 L-86,5 L-80,7 L-71,11 L-64,13 L-56,14 L-36,14 L-19,10 L-3,2 L0,2 Z " fill="#CFDFE9" transform="translate(904,844)"/>
<path d="M0,0 L10,2 L10,12 L2,10 L1,14 L-1,14 L0,17 L4,19 L3,23 L8,23 L6,22 L6,18 L11,17 L11,19 L13,17 L16,17 L16,19 L20,21 L21,22 L22,26 L16,25 L20,35 L17,37 L17,35 L13,36 L11,36 L7,37 L7,35 L10,35 L10,32 L2,33 L-3,34 L-4,33 L-4,36 L-4,38 L-6,38 L-5,43 L-8,45 L-3,44 L-3,50 L-6,51 L-9,50 L-14,52 L-10,36 L-6,19 L-2,6 Z " fill="#ABAEB2" transform="translate(598,566)"/>
<path d="M0,0 L3,3 L5,3 L4,6 L9,6 L10,3 L16,2 L13,8 L8,9 L7,12 L3,13 L2,18 L4,18 L5,23 L4,25 L2,25 L0,32 L-2,32 L-2,39 L-6,39 L-8,48 L-10,48 L-11,46 L-13,48 L-14,45 L-14,35 L-16,35 L-17,31 L-12,21 L-9,16 L-10,12 L-5,3 L-1,2 Z M-16,32 Z M-14,34 Z M2,0 Z " fill="#D0D4D7" transform="translate(798,397)"/>
<path d="M0,0 L5,1 L2,10 L1,13 L3,15 L0,17 L-1,21 L1,21 L4,30 L2,31 L0,34 L1,35 L5,36 L6,38 L8,38 L8,43 L5,46 L4,48 L7,49 L9,50 L8,52 L4,53 L4,50 L-1,50 L-2,46 L-4,48 L-6,46 L-8,51 L-7,52 L-7,59 L-9,66 L-11,65 L-12,67 L-7,68 L-9,70 L-11,76 L-12,77 L-13,88 L-16,91 L-16,82 L-13,61 L-10,45 L-7,30 Z M8,37 L12,38 Z " fill="#B7BBBF" transform="translate(583,619)"/>
<path d="M0,0 L1,2 L-1,7 L-1,10 L-1,12 L2,13 L1,14 L1,24 L0,28 L5,29 L1,33 L0,39 L-8,40 L-8,38 L-16,39 L-18,39 L-19,44 L-21,44 L-22,48 L-22,41 L-17,25 L-10,12 L-2,1 Z " fill="#B1B7BC" transform="translate(224,740)"/>
<path d="M0,0 L13,0 L14,3 L16,4 L17,0 L22,1 L22,3 L18,3 L19,6 L15,6 L19,7 L18,11 L27,11 L25,17 L23,17 L23,19 L27,18 L27,21 L30,22 L29,25 L34,22 L38,23 L37,28 L32,29 L32,32 L29,32 L29,30 L24,29 L20,26 L20,24 L23,24 L18,21 L18,14 L13,15 L7,15 L6,16 L-6,17 L-8,16 L-9,20 L-10,18 L-15,17 L-15,15 L-12,15 L-13,13 L-6,13 L-5,14 L2,15 L3,7 L3,5 L-4,4 L-4,1 Z " fill="#B0B2B5" transform="translate(637,563)"/>
<path d="M0,0 L6,4 L12,6 L10,11 L19,11 L20,21 L20,34 L18,34 L17,36 L17,34 L15,34 L16,37 L11,36 L10,44 L8,45 L7,38 L6,38 L5,18 L1,4 Z " fill="#CACED1" transform="translate(934,708)"/>
<path d="M0,0 L5,2 L9,4 L8,7 L7,8 L12,7 L13,2 L17,1 L21,1 L22,7 L23,9 L26,9 L25,21 L23,28 L18,51 L16,51 L16,48 L13,47 L14,42 L17,37 L21,25 L22,14 L20,13 L19,16 L3,18 L-1,20 L-2,14 L0,11 L5,12 L5,10 L-2,8 L0,4 L2,4 L2,2 L0,2 Z M17,13 Z " fill="#CACED1" transform="translate(674,559)"/>
<path d="M0,0 L6,1 L8,4 L7,9 L7,12 L8,19 L5,21 L2,37 L0,43 L-4,42 L-6,35 L-6,15 L-4,3 Z " fill="#F3F8FC" transform="translate(1095,568)"/>
<path d="M0,0 L2,1 L2,3 L4,3 L4,5 L0,5 L0,7 L5,7 L6,9 L5,13 L7,14 L6,15 L9,15 L9,11 L14,12 L10,16 L6,19 L1,24 L-19,32 L-27,33 L-25,31 L-19,29 L-17,24 L-14,24 L-15,20 L-13,20 L-11,16 L-10,14 L-7,13 L-5,9 L-11,9 L-10,5 L-9,3 L-3,4 Z " fill="#C5C7C8" transform="translate(331,853)"/>
<path d="M0,0 L6,0 L6,2 L-2,2 L-2,4 L-14,7 L-15,14 L-16,17 L-25,17 L-28,18 L-31,21 L-34,21 L-36,25 L-39,26 L-41,33 L-46,35 L-47,33 L-50,36 L-49,40 L-53,40 L-57,45 L-60,49 L-63,48 L-61,44 L-53,34 L-45,25 L-31,14 L-22,8 L-5,1 Z " fill="#ABB6BD" transform="translate(880,319)"/>
<path d="M0,0 L4,0 L4,2 L-1,4 L-3,9 L-12,11 L-17,15 L-20,15 L-21,22 L-24,23 L-26,22 L-28,27 L-26,30 L-36,32 L-37,38 L-42,38 L-42,40 L-40,40 L-40,42 L-44,42 L-43,45 L-47,47 L-51,54 L-55,55 L-56,58 L-57,54 L-46,38 L-32,23 L-19,12 L-7,4 Z " fill="#A1AAB0" transform="translate(300,321)"/>
<path d="M0,0 L5,5 L3,5 L3,7 L8,6 L15,9 L17,15 L21,16 L21,18 L12,15 L12,18 L9,19 L8,22 L15,23 L15,25 L19,26 L16,26 L15,29 L13,29 L11,32 L8,32 L8,28 L11,28 L11,26 L9,26 L9,24 L3,24 L3,22 L0,22 L1,17 L-4,16 L-4,13 L-6,13 L-6,11 L-3,11 L-2,7 L-4,2 L0,2 Z " fill="#B2B4B7" transform="translate(528,368)"/>
<path d="M0,0 L2,1 L6,12 L12,23 L17,29 L24,33 L33,34 L33,35 L24,36 L22,37 L19,37 L16,37 L15,32 L12,29 L9,29 L5,25 L3,24 L3,26 L5,26 L5,28 L7,30 L5,30 L6,36 L12,38 L12,39 L5,38 L0,37 L-4,36 L-5,32 L-8,30 L-2,28 L1,21 L3,20 L4,21 L3,14 L2,13 L-1,16 L-2,14 L0,14 Z " fill="#BAC2C8" transform="translate(864,794)"/>
<path d="M0,0 L2,0 L0,9 L-3,20 L-6,29 L-9,39 L-17,37 L-18,35 L-18,28 L-14,13 L-11,13 L-10,21 L-9,13 L-7,13 L-7,17 L-5,15 L-3,9 L-3,4 Z " fill="#E0EDF5" transform="translate(708,587)"/>
<path d="M0,0 L2,1 L2,5 L8,6 L9,4 L11,5 L11,8 L10,14 L8,14 L8,17 L6,17 L6,12 L3,11 L3,16 L2,21 L2,24 L-2,24 L-2,22 L-6,22 L-5,18 L-10,14 L-10,4 L-12,3 L-6,1 L-5,4 L-2,3 Z " fill="#B3B7BA" transform="translate(470,539)"/>
<path d="M0,0 L5,0 L5,2 L7,2 L7,7 L10,7 L10,5 L17,5 L17,7 L15,8 L17,9 L16,13 L13,13 L13,15 L2,15 L1,14 L-3,21 L-3,23 L-6,24 L-8,22 L-11,21 L-11,13 L-6,12 L-6,16 L-3,11 L-2,9 L-5,9 L-5,4 L0,3 L2,8 L3,4 L1,4 Z M3,2 L4,4 Z " fill="#A9AAAC" transform="translate(435,610)"/>
<path d="M0,0 L7,0 L12,3 L16,8 L15,11 L12,9 L10,11 L10,9 L-1,9 L-2,8 L-6,10 L-6,14 L-9,16 L-14,16 L-15,20 L-14,23 L-15,25 L-20,24 L-23,28 L-24,25 L-15,13 L-13,10 L-11,10 L-11,8 L-9,8 L-8,5 Z M-25,27 L-23,31 L-25,30 Z " fill="#DDEBF4" transform="translate(598,375)"/>
<path d="M0,0 L1,0 L1,9 L4,9 L3,14 L0,15 L-1,17 L1,17 L2,20 L4,21 L4,24 L1,23 L-1,25 L-5,25 L-5,28 L-1,27 L1,28 L4,29 L3,32 L-4,32 L-4,36 L-9,41 L-7,45 L-6,48 L-9,52 L-13,56 L-15,56 L-15,50 L-10,34 L-5,18 Z M-3,16 L-3,18 L-1,17 Z M3,19 L5,19 L4,21 Z " fill="#ABB2B7" transform="translate(615,508)"/>
<path d="M0,0 L1,2 L-7,7 L-8,10 L-6,14 L-9,14 L-6,16 L-7,19 L-7,17 L-12,15 L-15,16 L-14,18 L-16,23 L-17,26 L-19,26 L-20,24 L-21,26 L-24,28 L-25,33 L-29,32 L-30,36 L-31,35 L-38,37 L-36,33 L-28,23 L-26,23 L-26,21 L-24,21 L-22,17 L-11,7 L-3,1 Z " fill="#A8B1B8" transform="translate(535,342)"/>
<path d="M0,0 L4,1 L4,3 L6,4 L3,4 L4,14 L-1,17 L-4,17 L-4,19 L-8,19 L-8,24 L-13,23 L-13,21 L-17,21 L-21,23 L-22,20 L-21,16 L-22,11 L-20,11 L-18,13 L-16,14 L-16,8 L-13,9 L-13,14 L-11,14 L-12,11 L-9,12 L-7,10 L-4,11 L-2,10 L-1,1 Z M-21,13 Z M-13,19 L-12,21 L-11,19 Z " fill="#ABADB0" transform="translate(456,580)"/>
<path d="M0,0 L10,0 L9,4 L12,8 L10,18 L9,36 L6,34 L8,34 L7,21 L8,14 L-4,15 L-4,13 L-2,11 L-2,8 L-8,8 L-9,5 L-8,3 L-2,3 Z M-7,4 Z " fill="#C1C7CB" transform="translate(232,788)"/>
<path d="M0,0 L5,1 L5,8 L-6,27 L-13,38 L-15,41 L-17,41 L-18,37 L-15,35 L-15,33 L-19,31 L-22,29 L-21,25 L-21,27 L-18,26 L-19,24 L-14,25 L-13,27 L-10,28 L-10,25 L-12,24 L-9,23 L-8,24 L-7,21 L-5,20 L-6,16 L-3,15 L-1,9 L-3,7 L-2,2 Z " fill="#B0B4B7" transform="translate(426,752)"/>
<path d="M0,0 L7,0 L7,3 L9,4 L5,5 L5,7 L10,6 L17,6 L17,15 L15,19 L11,20 L12,17 L7,17 L7,15 L9,14 L9,11 L2,12 L-2,12 L-2,10 L-7,9 L-6,5 L-1,4 Z M2,12 Z " fill="#CCD0D4" transform="translate(223,796)"/>
<path d="M0,0 L1,2 L-2,8 L2,9 L2,11 L4,11 L4,13 L6,13 L5,19 L3,19 L1,23 L-3,31 L-4,38 L-6,37 L-7,30 L-7,17 L-5,10 L-1,1 Z " fill="#ECF5FA" transform="translate(248,789)"/>
<path d="M0,0 L5,5 L6,8 L10,9 L10,20 L12,20 L15,23 L15,21 L17,21 L19,29 L19,32 L24,33 L27,39 L30,41 L30,44 L34,43 L34,45 L36,45 L39,51 L42,52 L41,55 L30,47 L22,39 L22,37 L20,37 L10,23 L2,8 Z " fill="#B1BBC3" transform="translate(774,792)"/>
<path d="M0,0 L2,3 L4,6 L8,5 L10,5 L11,2 L14,1 L14,3 L17,3 L18,10 L10,11 L10,14 L0,14 L-1,16 L-3,15 L-3,12 L-7,12 L-8,4 L-4,5 L-4,3 L-1,3 Z M7,14 Z M6,15 Z " fill="#B3B7BA" transform="translate(614,714)"/>
<path d="M0,0 L1,2 L6,3 L5,7 L6,14 L4,14 L3,18 L-4,16 L-9,15 L-9,17 L-16,22 L-19,22 L-19,24 L-25,25 L-20,20 L-15,16 L-8,10 Z " fill="#C7CDD1" transform="translate(329,824)"/>
<path d="M0,0 L5,1 L2,10 L1,13 L3,15 L0,17 L-1,21 L1,21 L4,30 L2,31 L-1,37 L-7,38 L-7,40 L-5,41 L-8,42 L-8,33 L-1,5 Z " fill="#B1B6BA" transform="translate(583,619)"/>
<path d="M0,0 L1,2 L6,2 L3,4 L5,6 L1,7 L4,10 L4,14 L8,13 L10,15 L10,17 L12,21 L2,22 L1,18 L2,16 L0,16 L0,18 L-4,16 L-2,14 L-6,15 L-7,10 L-5,4 L-14,7 L-15,5 L-11,4 L-13,3 L-13,1 L-1,1 Z " fill="#D9DEE3" transform="translate(229,842)"/>
<path d="M0,0 L6,1 L4,2 L7,5 L9,0 L13,0 L11,5 L2,20 L-2,28 L-4,28 L-5,30 L-7,27 L-8,24 L-8,19 L-9,17 L-4,16 L-4,14 L0,12 L1,8 L0,4 Z " fill="#B4B9BE" transform="translate(560,400)"/>
<path d="M0,0 L7,3 L8,6 L11,8 L4,8 L6,13 L4,15 L0,15 L-1,18 L-3,18 L-4,23 L-8,24 L-7,21 L-12,21 L-11,19 L-9,19 L-13,16 L-9,15 L-12,14 L-10,10 L-7,9 L-7,12 L-5,12 L-6,8 L-1,8 L-2,4 Z " fill="#C5C6C8" transform="translate(683,422)"/>
<path d="M0,0 L1,0 L3,9 L8,18 L8,21 L11,22 L11,24 L15,26 L23,32 L29,34 L47,36 L47,37 L27,37 L27,35 L23,37 L15,33 L15,31 L11,30 L7,28 L3,29 L3,23 L4,18 L3,16 L0,17 Z M2,29 Z " fill="#CAD4DB" transform="translate(241,819)"/>
<path d="M0,0 L1,2 L-1,7 L-1,10 L-1,12 L2,13 L1,14 L1,22 L-2,23 L-6,21 L-8,21 L-10,23 L-10,26 L-12,28 L-12,26 L-15,27 L-17,29 L-16,24 L-10,12 L-2,1 Z " fill="#ACB1B5" transform="translate(224,740)"/>
<path d="M0,0 L4,2 L8,4 L7,3 L8,0 L11,1 L12,7 L8,9 L11,19 L5,21 L5,15 L7,14 L4,14 L0,15 L0,13 L-3,12 L-2,8 L-6,8 L-7,10 L-9,9 L-6,1 L0,2 Z M8,17 Z " fill="#AFB3B6" transform="translate(616,672)"/>
<path d="M0,0 L6,1 L3,11 L-2,26 L-5,23 L-6,17 L-4,10 L-7,10 L-7,14 L-9,14 L-9,2 L-6,1 L-4,2 L-4,4 L0,3 Z " fill="#B9BFC2" transform="translate(520,495)"/>
<path d="M0,0 L2,0 L3,5 L10,6 L11,10 L10,14 L-1,15 L-7,17 L-9,12 L-11,12 L-10,7 L-1,3 L1,3 Z " fill="#D6DADD" transform="translate(630,818)"/>
<path d="M0,0 L3,0 L-1,16 L-10,43 L-11,43 L-11,33 L-15,31 L-12,31 L-10,22 L-6,18 L-8,16 L-4,13 L-3,5 Z " fill="#A1A8AD" transform="translate(491,600)"/>
<path d="M0,0 L4,0 L3,7 L-4,32 L-6,34 L-7,30 L-8,26 L-10,26 L-9,22 L-8,21 L-10,20 L-10,15 L-10,11 L-6,11 L-5,13 L-1,13 L-3,9 L-2,5 L2,3 L3,1 Z " fill="#AFB5B9" transform="translate(506,544)"/>
<path d="M0,0 L5,2 L8,5 L1,11 L-11,17 L-26,21 L-46,21 L-51,20 L-51,19 L-42,18 L-18,18 L-16,14 L-12,12 L-9,12 L-10,9 L-2,8 L-1,6 L2,7 L3,8 L4,3 L0,1 Z " fill="#ABB5BC" transform="translate(338,521)"/>
<path d="M0,0 L2,0 L2,2 L4,2 L5,6 L7,6 L7,4 L9,4 L10,2 L12,4 L12,7 L16,6 L14,10 L17,9 L19,10 L17,15 L10,14 L6,17 L2,15 L1,9 L-2,8 L0,6 L-1,4 Z " fill="#B8B9BB" transform="translate(415,682)"/>
<path d="M0,0 L3,0 L1,9 L-5,27 L-14,53 L-16,55 L-17,49 L-17,40 L-12,38 L-10,34 L-16,34 L-15,32 L-11,32 L-6,17 L-4,17 L-4,10 L-1,7 Z " fill="#AFB7BE" transform="translate(714,639)"/>
<path d="M0,0 L5,1 L3,3 L6,5 L4,11 L2,16 L5,17 L3,18 L4,22 L2,23 L3,25 L-1,26 L-1,24 L-4,26 L-9,25 L-12,26 L-14,22 L-13,19 L-11,19 L-10,17 L-10,19 L-2,16 L0,17 L1,10 L-1,9 L2,9 L2,7 L0,7 L-1,1 Z " fill="#ADB1B4" transform="translate(476,567)"/>
<path d="M0,0 L1,4 L6,4 L5,14 L-2,49 L-4,49 L-4,41 L-2,37 L-4,36 L-2,34 L-2,27 L-1,25 L-1,15 L-3,7 L-4,4 Z " fill="#A8AFB5" transform="translate(682,620)"/>
<path d="M0,0 L6,3 L6,5 L10,7 L18,15 L21,18 L25,24 L24,29 L21,29 L20,22 L17,19 L17,17 L13,16 L6,18 L3,18 L4,14 L5,8 L2,9 L3,5 L0,5 Z " fill="#C7CED2" transform="translate(659,335)"/>
<path d="M0,0 L1,4 L3,4 L4,0 L8,3 L8,1 L10,1 L8,6 L-4,19 L-7,23 L-9,23 L-9,16 L-7,16 L-7,13 L-9,9 L-6,9 L-4,4 L-2,4 L-2,1 Z " fill="#AFB4B7" transform="translate(377,824)"/>
<path d="M0,0 L1,0 L2,7 L0,12 L2,13 L1,17 L1,27 L2,31 L1,33 L3,34 L1,39 L0,45 L1,47 L1,63 L2,68 L0,68 L-2,66 L-3,54 L-3,38 L-1,6 Z M1,52 Z " fill="#C2CBD3" transform="translate(566,746)"/>
<path d="M0,0 L3,0 L4,6 L-6,29 L-8,30 L-8,17 L-5,13 L-8,13 L-9,6 L-5,7 L-5,3 L-1,2 Z " fill="#C0C3C7" transform="translate(456,693)"/>
<path d="M0,0 L4,1 L8,0 L9,3 L13,4 L13,6 L11,6 L12,10 L11,14 L12,17 L8,17 L7,16 L6,18 L1,19 L0,17 L-6,21 L-6,17 L-8,16 L-5,14 L2,14 L2,11 L5,10 L5,7 L2,6 Z M7,1 Z " fill="#B1B2B4" transform="translate(462,599)"/>
<path d="M0,0 L4,1 L4,5 L1,14 L-2,17 L-7,16 L-11,15 L-12,11 L-10,7 L-6,8 L-6,6 L-8,5 L-6,2 L-2,3 L-2,1 Z " fill="#C2C7CA" transform="translate(547,336)"/>
<path d="M0,0 L2,4 L5,25 L7,36 L5,36 L5,38 L3,38 L2,34 L4,31 L3,29 L0,30 L-1,27 L1,27 L2,25 L-2,26 L-1,23 L1,23 L1,21 L-1,20 L-2,17 L-5,18 L-9,14 L-8,10 L-6,11 L-7,13 L-1,11 L-2,3 L0,3 Z " fill="#B2BABE" transform="translate(857,756)"/>
<path d="M0,0 L4,1 L2,2 L2,4 L-1,6 L-1,8 L-6,9 L-9,13 L-12,21 L-13,22 L-13,29 L-12,36 L-13,41 L-5,43 L-2,40 L-1,36 L1,36 L0,42 L-3,46 L-11,45 L-15,41 L-16,38 L-16,24 L-12,13 L-5,4 Z " fill="#C5CFD7" transform="translate(885,675)"/>
<path d="M0,0 L1,0 L2,24 L3,40 L0,40 L-2,41 L-4,39 L-3,34 L-6,30 L-5,28 L-7,27 L-8,30 L-8,28 L-10,28 L-9,24 L-12,25 L-13,21 L-15,21 L-15,19 L-12,19 L-12,21 L-9,21 L-9,23 L-6,24 L-4,25 L-2,21 L0,21 L-1,7 Z " fill="#BCC3C9" transform="translate(856,720)"/>
<path d="M0,0 L4,0 L2,7 L-5,18 L-14,28 L-18,28 L-20,25 L-16,23 L-13,23 L-11,23 L-11,16 L-9,16 L-10,10 L-8,11 L-8,8 L-5,7 L-3,4 L-3,2 Z M-11,13 Z " fill="#A6B2BA" transform="translate(363,496)"/>
<path d="M0,0 L3,0 L-1,16 L-13,51 L-15,52 L-15,47 L-13,47 L-13,34 L-11,29 L-9,29 L-10,24 L-5,23 L-6,16 L-4,15 L-3,9 L-2,5 L-2,2 L0,2 Z " fill="#B3BDC4" transform="translate(925,408)"/>
<path d="M0,0 L10,1 L11,2 L11,21 L7,34 L6,30 L3,29 L0,27 L2,26 L0,25 L0,23 L6,22 L8,17 L9,16 L10,3 L3,3 L1,8 L-1,8 L0,14 L-6,16 L-4,11 Z M-2,28 L0,29 Z " fill="#B5BBC0" transform="translate(362,459)"/>
<path d="M0,0 L1,2 L0,10 L-1,13 L-2,19 L0,19 L-1,21 L-5,23 L-5,26 L-3,26 L-5,33 L-7,36 L-9,47 L-9,54 L-11,55 L-9,60 L-9,63 L-14,63 L-13,51 L-4,12 L-1,1 Z " fill="#BDC5CB" transform="translate(784,521)"/>
<path d="M0,0 L1,2 L3,3 L1,8 L2,9 L2,16 L0,23 L-2,22 L-3,24 L2,25 L0,27 L-2,33 L-3,34 L-4,45 L-7,48 L-7,39 L-4,18 L-1,2 Z " fill="#AAAFB3" transform="translate(574,662)"/>
<path d="M0,0 L2,3 L5,5 L0,9 L-3,8 L-1,13 L1,13 L4,16 L5,12 L8,13 L7,15 L9,16 L7,19 L7,21 L12,19 L10,25 L4,21 L1,19 L1,17 L-4,15 L-12,10 L-10,9 L-8,5 L-2,5 L-3,4 Z M9,14 Z " fill="#BEC7CE" transform="translate(420,344)"/>
<path d="M0,0 L2,0 L3,6 L3,48 L2,57 L0,56 L1,22 L-2,21 L1,21 L0,16 L-4,16 L-3,12 L-4,9 L-1,4 L1,4 Z " fill="#B5BBC0" transform="translate(707,440)"/>
<path d="M0,0 L5,1 L5,3 L9,5 L17,12 L17,14 L20,15 L20,17 L22,17 L25,23 L22,23 L17,24 L16,19 L16,16 L12,16 L12,14 L10,14 L8,7 L4,8 L0,8 Z " fill="#DCEAF4" transform="translate(416,360)"/>
<path d="M0,0 L5,0 L6,3 L10,4 L10,9 L12,9 L12,13 L15,12 L15,14 L17,14 L17,17 L21,18 L22,21 L13,20 L13,26 L8,25 L8,23 L11,22 L11,19 L7,17 L11,15 L5,12 L5,10 L3,10 L2,2 L0,2 Z M4,3 L5,5 Z M13,14 L14,16 L15,14 Z M20,16 Z " fill="#B4B5B7" transform="translate(387,675)"/>
<path d="M0,0 L2,0 L3,5 L1,5 L1,7 L6,5 L7,8 L3,16 L-2,17 L-2,19 L-5,22 L-7,26 L-9,26 L-6,14 Z " fill="#BCC2C6" transform="translate(826,392)"/>
<path d="M0,0 L9,0 L11,2 L11,5 L9,6 L13,9 L8,13 L6,13 L4,11 L0,13 L-4,12 L-2,5 Z " fill="#B6BABD" transform="translate(435,532)"/>
<path d="M0,0 L0,3 L0,5 L-2,5 L-3,9 L-4,11 L-7,11 L-7,13 L-4,14 L-4,18 L-6,18 L-6,16 L-11,17 L-13,24 L-20,24 L-19,19 L-7,6 Z " fill="#DAE8F2" transform="translate(324,360)"/>
<path d="M0,0 Z M4,0 L7,0 L13,2 L11,7 L-8,7 L-24,5 L-23,2 L-17,1 L-13,3 L-8,4 L-8,2 L-5,1 L-3,3 L0,2 L3,3 Z " fill="#CAD3DA" transform="translate(605,858)"/>
<path d="M0,0 L7,0 L8,4 L6,4 L6,6 L8,7 L8,12 L11,13 L12,18 L15,17 L16,21 L15,24 L17,24 L17,26 L20,27 L15,28 L15,33 L13,33 L9,21 L2,6 Z " fill="#AFB5B9" transform="translate(448,392)"/>
<path d="M0,0 L1,3 L-9,34 L-13,47 L-15,45 L-16,41 L-13,38 L-13,33 L-11,33 L-11,28 L-8,23 L-7,13 L-5,11 L-8,11 L-7,5 L-1,5 Z " fill="#A7B2BA" transform="translate(689,719)"/>
<path d="M0,0 L3,0 L3,3 L11,6 L11,4 L17,3 L17,5 L5,10 L-9,13 L-29,13 L-32,11 L-23,10 L-23,12 L-14,12 L-15,9 L-8,10 L-10,8 L-5,9 L-4,7 L0,8 L4,6 L1,5 Z " fill="#B3BEC5" transform="translate(877,846)"/>
<path d="M0,0 L5,0 L3,6 L6,7 L6,12 L3,13 L4,15 L5,18 L4,20 L5,23 L1,24 L-3,23 L-2,8 Z M2,7 Z M1,15 Z M2,20 Z " fill="#C5CFD5" transform="translate(227,416)"/>
<path d="M0,0 L1,0 L1,19 L0,35 L-3,35 L-4,31 L-4,28 L-7,29 L-7,25 L-5,25 L-5,11 L-3,11 Z " fill="#ECF7FD" transform="translate(757,661)"/>
<path d="M0,0 L9,0 L9,6 L11,9 L6,13 L12,16 L10,20 L8,20 L8,22 L2,22 L5,21 L3,17 L1,15 L2,8 L2,2 Z " fill="#D3D7DA" transform="translate(622,840)"/>
<path d="M0,0 L5,2 L14,9 L16,10 L16,12 L20,14 L28,22 L33,26 L35,31 L34,35 L31,32 L31,30 L27,28 L25,22 L20,18 L20,16 L17,17 L12,14 L12,12 L10,11 L10,9 L5,7 L5,5 L0,2 Z " fill="#A8B3BA" transform="translate(447,328)"/>
<path d="M0,0 L3,2 L-2,7 L-8,15 L-10,17 L-12,16 L-13,23 L-17,24 L-24,21 L-24,19 L-19,18 L-17,14 L-13,12 L-12,14 L-10,13 L-9,9 L-7,10 L-7,5 L-3,2 L-1,2 Z " fill="#CCD3D8" transform="translate(896,695)"/>
<path d="M0,0 L1,4 L-7,26 L-11,36 L-14,34 L-15,26 L-13,28 L-9,24 L-7,18 L-16,17 L-15,15 L-8,15 L-8,10 L-3,9 L-2,2 Z " fill="#C3C8CC" transform="translate(744,558)"/>
<path d="M0,0 L6,1 L8,0 L11,1 L9,9 L6,11 L3,13 L4,6 L5,3 L3,3 L2,7 L-1,10 L-8,8 L-9,5 L-4,2 L0,2 Z " fill="#CDD1D5" transform="translate(908,823)"/>
<path d="M0,0 L2,4 L2,12 L1,17 L-3,22 L-5,26 L-6,33 L-8,33 L-8,38 L-10,41 L-12,41 L-11,34 L-5,16 Z " fill="#D7E8F4" transform="translate(918,438)"/>
<path d="M0,0 L2,3 L1,5 L3,6 L-1,10 L-1,15 L-4,15 L-4,17 L-2,17 L-1,22 L-3,20 L-5,22 L-6,25 L-4,25 L-6,30 L-5,32 L-9,32 L-12,35 L-13,31 L-7,18 Z " fill="#ACB4B9" transform="translate(352,777)"/>
<path d="M0,0 L2,0 L3,10 L1,8 L-2,11 L-5,20 L-5,33 L-8,34 L-9,22 L-10,19 L-4,7 Z " fill="#DAE6F0" transform="translate(301,385)"/>
<path d="M0,0 L1,3 L-5,7 L-8,10 L-4,12 L-7,13 L1,14 L4,15 L4,18 L2,18 L2,20 L-5,20 L-5,18 L-8,19 L-8,22 L-11,21 L-10,14 L-13,12 L-13,9 L-3,1 Z " fill="#B5BDC3" transform="translate(240,727)"/>
<path d="M0,0 L3,0 L7,1 L3,14 L-2,26 L-4,27 L-4,24 L-6,24 L-6,21 L-8,20 L-6,19 L-4,20 L-4,15 L0,14 L0,8 L1,4 L-1,3 Z " fill="#A4ABB0" transform="translate(473,644)"/>
<path d="M0,0 L3,2 L2,12 L-2,16 L-12,19 L-28,20 L-26,18 L-18,18 L-18,16 L-10,13 L-8,12 L-5,13 L-4,11 L-2,11 L0,5 Z " fill="#C1CCD4" transform="translate(648,844)"/>
<path d="M0,0 L2,0 L0,4 L-5,9 L-11,14 L-13,17 L-16,17 L-16,19 L-22,22 L-24,22 L-25,18 L-24,17 L-26,15 L-24,13 L-24,15 L-15,12 L-14,10 L-10,11 L-9,8 L-7,6 L-3,5 L-2,2 L0,2 Z " fill="#B8C5CD" transform="translate(920,827)"/>
<path d="M0,0 L5,5 L11,17 L12,20 L12,29 L10,26 L7,15 L5,15 L5,13 L3,13 L2,15 L-2,14 L0,13 L0,10 L-2,9 L1,7 L-1,6 L0,3 Z " fill="#B6BEC3" transform="translate(313,737)"/>
<path d="M0,0 L1,2 L3,2 L3,0 L7,2 L7,7 L7,10 L0,15 L-2,15 L-2,17 L-6,16 L-5,11 L-1,11 L-1,9 L-4,8 L-2,8 L-1,1 Z M4,1 Z " fill="#CBCED1" transform="translate(409,331)"/>
<path d="M0,0 L3,1 L3,8 L6,7 L5,5 L9,4 L9,7 L11,7 L10,11 L7,11 L10,13 L9,15 L4,13 L2,12 L1,17 L0,15 L-3,15 L-2,11 L-3,8 L-2,4 Z " fill="#C5CACE" transform="translate(446,451)"/>
<path d="M0,0 L5,3 L8,4 L9,2 L11,2 L14,6 L14,8 L19,8 L19,9 L14,9 L12,13 L12,11 L4,11 L-1,8 L-1,2 Z " fill="#DBE0E5" transform="translate(240,864)"/>
<path d="M0,0 L24,0 L37,4 L40,6 L40,8 L37,8 L37,10 L35,9 L25,3 L19,3 L19,2 L0,2 L0,4 L2,4 L2,6 L-8,4 L-6,2 Z " fill="#ABB5BD" transform="translate(259,719)"/>
<path d="M0,0 L3,1 L3,11 L0,11 L-1,17 L-5,17 L-5,27 L-9,27 L-10,25 L-3,7 Z M1,1 Z " fill="#D7E5EE" transform="translate(533,479)"/>
<path d="M0,0 L5,1 L5,9 L4,11 L7,11 L7,17 L5,19 L5,22 L3,21 L1,16 L1,10 L-2,10 L-3,8 L-3,1 Z " fill="#C6CBCF" transform="translate(235,480)"/>
<path d="M0,0 L2,1 L2,12 L4,16 L6,21 L7,27 L8,31 L8,37 L5,37 L1,22 L-1,7 Z " fill="#C0CDD5" transform="translate(567,819)"/>
<path d="M0,0 L1,0 L2,8 L-1,9 L0,13 L5,13 L6,15 L2,14 L2,20 L3,23 L-2,23 L-2,26 L0,26 L-1,31 L1,31 L0,36 L-2,33 L-5,20 L-4,16 L-2,16 L-3,6 L-1,6 Z M2,17 Z " fill="#CBD1D5" transform="translate(206,793)"/>
<path d="M0,0 L2,4 L0,8 L-3,8 L-4,13 L-8,15 L-13,16 L-13,18 L-16,19 L-17,22 L-19,22 L-20,20 L-27,20 L-25,18 L-15,14 L-9,10 Z " fill="#A5B2BA" transform="translate(355,475)"/>
<path d="M0,0 L2,2 L2,22 L-3,26 L-6,31 L-7,29 L-2,8 Z " fill="#DAEAF6" transform="translate(878,573)"/>
<path d="M0,0 L2,0 L1,7 L-5,23 L-11,40 L-13,41 L-13,30 L-10,29 L-5,12 L-3,7 L-4,5 Z " fill="#DEEEF8" transform="translate(733,515)"/>
<path d="M0,0 L5,1 L6,5 L6,7 L9,7 L10,10 L6,10 L5,12 L5,9 L-1,8 L-4,5 L-5,6 L-11,6 L-12,10 L-12,4 L-9,1 L-1,2 Z " fill="#BABEC1" transform="translate(634,489)"/>
<path d="M0,0 L4,0 L4,2 L-1,4 L-3,9 L-12,11 L-17,15 L-20,15 L-21,22 L-24,23 L-25,17 L-13,8 L-2,1 Z " fill="#ADB7BF" transform="translate(300,321)"/>
<path d="M0,0 L7,1 L10,3 L9,9 L4,9 L4,7 L-1,8 L-2,7 L-3,11 L-5,7 L-5,5 L-3,5 L-3,2 L5,3 L0,1 Z M-7,11 L-4,12 L-5,18 L-9,21 L-11,21 L-10,18 L-7,18 Z " fill="#CED3D6" transform="translate(239,392)"/>
<path d="M0,0 L1,2 L-1,2 L-1,4 L1,5 L0,12 L-4,12 L-3,18 L-5,18 L-4,22 L-8,21 L-9,26 L-14,29 L-13,24 L-2,1 Z M0,8 Z " fill="#B8BEC3" transform="translate(935,778)"/>
<path d="M0,0 L1,4 L1,12 L2,16 L4,17 L0,18 L-2,17 L-3,19 L-6,12 L-8,10 L-7,9 L-9,7 L-4,6 L-5,4 L-3,4 L-3,2 Z " fill="#C7CCD1" transform="translate(272,793)"/>
<path d="M0,0 L1,3 L0,6 L2,7 L0,7 L1,12 L-4,17 L-5,22 L-3,24 L-7,31 L-11,31 L-9,22 L-1,1 Z " fill="#ABB3B9" transform="translate(422,498)"/>
<path d="M0,0 L1,3 L8,3 L8,7 L10,7 L11,10 L1,9 L-13,2 L-9,1 L-7,2 L-1,2 Z " fill="#B7C1C9" transform="translate(832,847)"/>
<path d="M0,0 L2,0 L2,10 L0,13 L-2,13 L-1,19 L-4,27 L-9,40 L-10,40 L-9,30 L-3,11 Z M0,6 Z " fill="#D9E6EE" transform="translate(504,565)"/>
<path d="M0,0 L3,1 L3,3 L6,3 L6,5 L4,5 L5,8 L2,8 L2,10 L-2,11 L-1,5 L-2,2 L-4,1 Z M5,6 Z M-4,10 L-1,13 L-3,15 L-2,20 L-2,23 L-6,22 L-6,18 L-9,19 L-10,14 L-5,13 Z " fill="#AFB2B4" transform="translate(435,562)"/>
<path d="M0,0 L7,6 L10,7 L11,10 L9,16 L5,15 L5,18 L0,17 L1,10 L1,6 L2,4 L0,4 Z M3,8 Z M5,3 Z " fill="#CCD0D3" transform="translate(287,479)"/>
<path d="M0,0 L5,1 L5,5 L4,12 L3,14 L5,14 L4,17 L-1,15 L-3,15 L-4,12 L-3,9 L-4,2 L1,2 Z M-1,7 L-2,9 L2,8 Z " fill="#CFD5DA" transform="translate(939,345)"/>
<path d="M0,0 L2,1 L6,12 L12,23 L12,27 L8,25 L5,22 L3,14 L2,13 L-1,16 L-2,14 L0,14 Z " fill="#AEBBC4" transform="translate(864,794)"/>
<path d="M0,0 L3,1 L-1,10 L-9,26 L-11,27 L-10,21 L-11,18 L-9,18 L-8,14 L-6,14 L-5,10 L-6,8 L-3,8 L-3,1 Z " fill="#AAB3B9" transform="translate(443,728)"/>
<path d="M0,0 L2,1 L0,7 L-3,12 L-6,17 L-8,17 L-10,24 L-14,30 L-14,32 L-16,32 L-18,40 L-20,40 L-21,42 L-20,37 L-4,6 Z " fill="#BBC5CD" transform="translate(788,410)"/>
<path d="M0,0 L1,4 L4,4 L4,13 L8,14 L6,16 L2,17 L-2,17 L-6,15 L-2,14 L-3,10 L-1,1 Z " fill="#C3C8CC" transform="translate(874,838)"/>
<path d="M0,0 L3,0 L7,4 L7,6 L5,6 L4,12 L2,12 L2,10 L0,10 L0,12 L-2,12 L-2,9 L-6,8 L-5,2 L0,2 Z " fill="#CED1D4" transform="translate(924,807)"/>
<path d="M0,0 L4,2 L4,4 L8,5 L9,9 L8,11 L5,11 L5,13 L1,11 L-2,10 L-2,5 L-4,5 L-4,9 L-6,9 L-7,5 L-6,3 L2,4 Z " fill="#C3C4C5" transform="translate(815,572)"/>
<path d="M0,0 L6,0 L3,1 L1,5 L-9,20 L-17,33 L-20,38 L-22,38 L-22,35 L-20,35 L-18,30 L-14,21 L-12,20 L-10,16 L-7,12 L-5,8 L-2,5 L-1,1 Z " fill="#B7C2CA" transform="translate(828,376)"/>
<path d="M0,0 L6,0 L4,4 L-3,11 L-4,9 L-11,9 L-9,3 L-2,1 Z " fill="#B4B7B9" transform="translate(252,776)"/>
<path d="M0,0 L2,4 L3,8 L-2,10 L-4,15 L-3,18 L-5,18 L-6,22 L-5,24 L-8,26 L-9,30 L-12,33 L-14,32 L-8,17 L-1,2 Z " fill="#B9C1C7" transform="translate(748,488)"/>
<path d="M0,0 L1,0 L0,10 L-7,38 L-9,39 L-8,26 L-7,23 L-5,23 L-6,15 L-4,12 L-2,5 Z " fill="#D7E7F1" transform="translate(617,492)"/>
<path d="M0,0 L2,1 L1,3 L3,3 L3,5 L-1,5 L0,8 L-4,10 L-8,17 L-12,18 L-13,21 L-14,17 L-3,1 Z " fill="#ACB4BB" transform="translate(257,358)"/>
<path d="M0,0 L2,1 L7,0 L3,3 L-4,6 L-19,7 L-29,5 L-29,1 L-24,2 L-24,4 L-18,3 L-12,4 L-3,2 Z " fill="#DEEEF9" transform="translate(296,848)"/>
<path d="M0,0 L2,1 L2,4 L7,4 L7,6 L9,8 L7,17 L9,17 L10,21 L8,25 L6,22 L1,7 Z " fill="#B2BBC1" transform="translate(766,767)"/>
<path d="M0,0 L5,1 L2,10 L1,13 L3,15 L0,17 L-2,26 L-5,27 L-4,17 Z " fill="#9DA7AE" transform="translate(583,619)"/>
<path d="M0,0 L4,1 L8,0 L6,10 L1,26 L0,23 L1,18 L0,16 L1,6 Z " fill="#ACB6BD" transform="translate(664,776)"/>
<path d="M0,0 L2,2 L5,15 L4,19 L-3,19 L-3,16 L-3,13 L-1,9 L0,7 L-3,6 Z " fill="#CAD1D5" transform="translate(699,388)"/>
<path d="M0,0 L3,1 L2,4 L0,4 L0,15 L-2,17 L-3,25 L-5,25 L-5,27 L-3,27 L-4,33 L-8,34 L-7,25 L-1,2 Z " fill="#AFBAC0" transform="translate(365,731)"/>
<path d="M0,0 L5,0 L4,10 L-1,28 L-2,28 L-1,7 Z " fill="#BDC3C9" transform="translate(874,568)"/>
<path d="M0,0 L2,0 L1,5 L0,7 L1,12 L-1,11 L-3,14 L-3,11 L-5,11 L-7,20 L-9,22 L-10,20 L-13,22 L-12,18 L-5,7 Z " fill="#B6BFC7" transform="translate(814,369)"/>
<path d="M0,0 L6,1 L5,11 L4,14 L-1,13 L-2,17 L-3,3 L-1,3 Z " fill="#CAD0D5" transform="translate(227,451)"/>
<path d="M0,0 L5,1 L7,2 L7,9 L1,31 L-2,32 L-1,22 L1,22 L1,18 L3,18 L2,13 L4,8 L2,6 L2,2 Z " fill="#B3C1CB" transform="translate(944,327)"/>
<path d="M0,0 L1,3 L-5,18 L-6,16 L-10,16 L-11,10 L-14,10 L-14,7 L-9,7 L-8,8 L-3,8 L-2,4 Z " fill="#B5BCC1" transform="translate(467,676)"/>
<path d="M0,0 L2,1 L0,12 L-1,37 L-4,40 L-5,38 L-3,33 L-3,23 L-4,20 L-5,13 L-3,13 L-3,5 L-1,5 Z " fill="#C7D0D5" transform="translate(285,417)"/>
<path d="M0,0 L3,0 L2,4 L0,9 L-2,9 L-3,13 L-5,11 L-5,9 L-10,10 L-16,12 L-16,9 L-3,2 L0,2 Z " fill="#D3E1EC" transform="translate(904,844)"/>
<path d="M0,0 L4,1 L2,1 L2,3 L4,4 L3,7 L5,13 L7,13 L7,15 L5,15 L6,17 L9,14 L8,24 L4,26 L1,9 L-1,1 Z " fill="#DBE9F3" transform="translate(950,699)"/>
<path d="M0,0 L4,4 L4,8 L-1,8 L-3,10 L-1,14 L-6,15 L-10,15 L-10,10 L-8,10 L-7,7 L-3,5 L-2,2 L0,3 Z " fill="#B6BABD" transform="translate(643,705)"/>
<path d="M0,0 L3,0 L0,10 L-6,25 L-9,32 L-11,29 L-9,29 L-12,24 L-12,21 L-8,22 L-7,19 L-5,16 L-3,8 L-2,5 Z " fill="#BCC3C9" transform="translate(772,480)"/>
<path d="M0,0 L2,1 L2,4 L5,3 L4,6 L1,6 L2,9 L-1,10 L-1,12 L-3,12 L-2,15 L-3,18 L-2,22 L-5,22 L-5,27 L-8,28 L-7,20 L-1,1 Z " fill="#A6AFB5" transform="translate(410,530)"/>
<path d="M0,0 L4,1 L8,4 L14,4 L18,5 L18,8 L22,10 L22,12 L15,11 L7,7 L2,4 L2,2 L0,2 Z " fill="#CAD4DB" transform="translate(236,870)"/>
<path d="M0,0 L3,1 L12,14 L13,18 L11,18 L10,16 L6,16 L6,14 L3,14 L1,5 Z " fill="#A2ABB2" transform="translate(483,360)"/>
<path d="M0,0 L2,0 L3,2 L5,2 L6,8 L-1,16 L-8,22 L-13,23 L-9,19 L-4,17 L-4,15 L-1,13 Z " fill="#DEEEF7" transform="translate(911,803)"/>
<path d="M0,0 L5,2 L7,6 L3,7 L-1,14 L-3,22 L-5,23 L-6,18 L-2,6 Z " fill="#DCECF7" transform="translate(938,378)"/>
<path d="M0,0 L6,0 L6,8 L7,12 L3,12 L4,16 L2,17 L2,21 L0,23 L0,13 L1,4 Z " fill="#CFD2D5" transform="translate(761,632)"/>
<path d="M0,0 L3,3 L10,16 L9,21 L7,20 L6,17 L4,15 L5,13 L0,11 L-1,5 Z " fill="#D7E7F1" transform="translate(442,384)"/>
<path d="M0,0 L9,1 L6,4 L3,6 L-1,8 L-5,8 L-8,2 Z " fill="#CCD1D5" transform="translate(581,320)"/>
<path d="M0,0 L1,2 L0,4 L-2,4 L-2,7 L-4,7 L-4,13 L-6,13 L-9,10 L-14,5 L-15,2 L-11,2 L-10,5 L-8,6 L-7,4 L-3,2 Z " fill="#CED4D8" transform="translate(656,830)"/>
<path d="M0,0 L5,0 L4,4 L5,6 L3,11 L6,12 L-4,12 L-4,9 L-9,8 L-7,5 L-6,6 L2,6 L2,2 L0,2 Z " fill="#D2D3D5" transform="translate(679,389)"/>
<path d="M0,0 L2,0 L0,9 L-6,27 L-7,27 L-7,18 L-5,7 L-2,6 Z " fill="#B3BDC4" transform="translate(935,381)"/>
<path d="M0,0 L3,1 L3,3 L-1,5 L-8,7 L-11,10 L-16,11 L-16,9 L-18,7 L-4,1 Z " fill="#C3CCD3" transform="translate(570,323)"/>
<path d="M0,0 L20,0 L36,3 L36,4 L-4,2 Z " fill="#B1BDC5" transform="translate(892,317)"/>
<path d="M0,0 L2,3 L3,1 L7,2 L5,4 L3,10 L2,11 L1,22 L-2,25 L-2,16 Z " fill="#A5B2B9" transform="translate(569,685)"/>
<path d="M0,0 L3,0 L1,9 L-4,25 L-8,24 L-6,17 L-4,17 L-4,10 L-1,7 Z " fill="#B0BBC3" transform="translate(714,639)"/>
<path d="M0,0 L10,1 L11,2 L11,15 L10,15 L10,3 L3,3 L1,8 L-1,8 L0,14 L-6,16 L-4,11 Z " fill="#A5B1B9" transform="translate(362,459)"/>
<path d="M0,0 L4,1 L4,5 L2,12 L-1,11 L-1,9 L-3,9 L-4,6 L-6,4 L-6,2 L-2,3 L-2,1 Z M0,12 L0,15 L-2,14 Z " fill="#C9CED1" transform="translate(547,336)"/>
<path d="M0,0 L6,2 L10,4 L11,6 L14,7 L15,12 L12,13 L4,6 L0,3 Z " fill="#D1DDE7" transform="translate(818,849)"/>
<path d="M0,0 L5,5 L7,17 L9,19 L9,24 L12,25 L9,27 L8,36 L7,36 L5,18 L1,4 Z " fill="#BAC4CC" transform="translate(934,708)"/>
<path d="M0,0 L4,1 L12,8 L16,14 L17,19 L14,22 L13,18 L12,14 L9,11 L9,9 L6,9 L6,7 L4,7 L3,3 Z " fill="#BDCAD2" transform="translate(667,343)"/>
<path d="M0,0 L3,1 L3,4 L1,5 L5,8 L0,12 L-2,12 L-4,10 L-9,7 L-9,5 L-5,4 L-6,7 L-3,5 L-4,2 L0,2 Z " fill="#AFB3B6" transform="translate(443,533)"/>
<path d="M0,0 L7,2 L7,3 L0,4 L1,10 L-5,11 L-5,9 L-9,8 L-7,8 L-7,3 Z " fill="#CED1D4" transform="translate(384,334)"/>
<path d="M0,0 L6,1 L5,6 L-4,6 L-7,7 L-10,10 L-12,7 L-5,3 L-3,3 L-3,1 Z M-13,8 Z M-15,9 L-13,10 Z " fill="#BCC2C6" transform="translate(859,330)"/>
<path d="M0,0 L2,0 L3,2 L7,0 L6,5 L7,8 L14,8 L15,13 L14,17 L12,17 L12,14 L8,12 L0,1 Z " fill="#C5CDD3" transform="translate(241,504)"/>
<path d="M0,0 L1,2 L6,3 L5,11 L3,12 L3,17 L0,17 L-1,10 L-1,7 Z " fill="#C4CACE" transform="translate(536,446)"/>
<path d="M0,0 L5,1 L8,2 L10,4 L10,7 L7,8 L5,10 L5,8 L1,9 L2,5 L-6,5 L-5,3 L-1,2 Z " fill="#C6CACD" transform="translate(558,355)"/>
<path d="M0,0 L5,5 L5,7 L7,7 L12,17 L15,26 L14,30 L12,24 L11,18 L8,19 L6,11 L3,8 L1,4 Z " fill="#BFCAD3" transform="translate(936,680)"/>
<path d="M0,0 L2,0 L1,2 Z M-14,2 L-7,2 L-7,5 L1,2 L1,7 L4,7 L3,9 L-14,6 Z " fill="#CBCED2" transform="translate(607,368)"/>
<path d="M0,0 L2,1 L3,5 L-2,10 L2,9 L4,11 L3,16 L-1,14 L0,13 L-3,12 L-4,5 L0,3 Z M-5,10 L-4,14 L-6,14 Z " fill="#BFC0C2" transform="translate(839,552)"/>
<path d="M0,0 L6,0 L8,4 L7,7 L9,8 L7,11 L3,10 L3,8 L0,8 Z M6,7 Z " fill="#CCD1D6" transform="translate(225,440)"/>
<path d="M0,0 L7,3 L8,6 L11,8 L4,9 L2,10 L-1,9 L-2,4 Z " fill="#CCCDCF" transform="translate(683,422)"/>
<path d="M0,0 L27,0 L27,1 L-3,3 L-4,4 L-16,4 L-12,2 Z " fill="#AAB7C0" transform="translate(352,305)"/>
<path d="M0,0 L3,3 L3,5 L5,5 L5,7 L3,7 L1,9 L1,12 L-1,14 L-1,12 L-4,13 L-6,15 L-5,10 Z " fill="#A2ABB1" transform="translate(213,754)"/>
<path d="M0,0 L1,3 L-4,20 L-9,19 L-10,21 L-11,16 L-10,13 L-4,13 L-1,1 Z " fill="#A5ACB1" transform="translate(499,579)"/>
<path d="M0,0 L2,1 L-3,14 L-6,20 L-7,24 L-10,27 L-9,21 L-3,4 Z " fill="#DFEFF9" transform="translate(761,520)"/>
<path d="M0,0 L1,3 L-3,12 L-6,17 L-7,24 L-13,29 L-12,25 L-4,7 Z " fill="#C2CCD3" transform="translate(764,455)"/>
<path d="M0,0 L2,0 L4,4 L6,5 L6,7 L10,9 L10,12 L1,12 L1,4 L-1,3 Z " fill="#E0EDF5" transform="translate(223,860)"/>
<path d="M0,0 L7,0 L8,2 L8,7 L12,9 L12,10 L6,10 L6,8 L0,9 L2,4 L0,4 Z " fill="#BFC5CB" transform="translate(848,848)"/>
<path d="M0,0 L1,0 L3,12 L11,14 L14,11 L15,7 L17,7 L16,13 L13,17 L5,16 L1,12 L0,9 Z " fill="#BFC9D0" transform="translate(869,704)"/>
<path d="M0,0 L2,1 L2,3 L1,8 L0,12 L-5,12 L-6,5 L-2,1 Z " fill="#B2B6B9" transform="translate(627,535)"/>
<path d="M0,0 L2,4 L4,9 L5,25 L3,25 L2,17 L0,15 L0,9 L-6,8 L-6,7 L-1,7 Z " fill="#C1C9CE" transform="translate(704,415)"/>
<path d="M0,0 L1,4 L-3,18 L-8,20 L-14,20 L-15,18 L-6,17 L-5,10 L-3,10 L-4,7 L-2,2 L0,2 Z " fill="#BCC5CC" transform="translate(942,360)"/>
<path d="M0,0 L2,3 L5,5 L0,9 L-3,8 L-3,12 L-8,10 L-9,8 L-8,5 L-2,5 L-3,4 Z " fill="#CFD1D3" transform="translate(420,344)"/>
<path d="M0,0 L3,1 L2,3 L4,7 L4,10 L3,14 L-2,13 L-2,9 L-5,8 L-5,6 L-2,6 Z " fill="#B1B5B8" transform="translate(423,542)"/>
<path d="M0,0 L3,0 L3,3 L9,2 L12,2 L15,3 L11,7 L2,11 L-1,10 L3,7 L7,5 L7,4 L1,4 L-1,3 Z " fill="#BBC0C3" transform="translate(321,870)"/>
<path d="M0,0 L3,0 L3,4 L1,6 L-2,6 L-1,10 L-6,8 L-12,7 L-12,5 L-4,2 Z " fill="#CAD1D6" transform="translate(301,849)"/>
<path d="M0,0 L3,0 L3,2 L1,2 L1,11 L-5,12 L-8,12 L-10,10 L-9,8 L-6,8 L-2,4 Z " fill="#A9ABAF" transform="translate(647,638)"/>
<path d="M0,0 L1,4 L-3,24 L-5,26 L-5,13 L-3,6 L-1,1 Z " fill="#DEEEF8" transform="translate(773,560)"/>
<path d="M0,0 L2,2 L2,6 L0,6 L1,13 L0,16 L-1,20 L-1,18 L-5,19 L-4,12 Z " fill="#DDEBF6" transform="translate(894,516)"/>
<path d="M0,0 L1,3 L1,8 L-2,12 L-3,21 L-5,22 L-7,21 L-3,5 Z " fill="#D7E7F2" transform="translate(523,507)"/>
<path d="M0,0 L1,0 L1,13 L-1,24 L-3,29 L-4,29 L-4,21 L-1,3 Z " fill="#A6B1B9" transform="translate(379,659)"/>
<path d="M0,0 L2,0 L1,10 L-1,18 L-3,18 L-3,20 L-6,21 L-5,18 L-2,8 L-3,6 L-5,5 L-2,4 Z " fill="#B8BDC1" transform="translate(870,598)"/>
<path d="M0,0 L5,0 L5,10 L-2,8 L-3,2 L0,2 Z " fill="#AFB5B8" transform="translate(603,568)"/>
<path d="M0,0 L1,0 L2,7 L0,11 L-1,18 L0,21 L-4,22 L-3,10 L-1,1 Z " fill="#E1EDF6" transform="translate(708,523)"/>
<path d="M0,0 L6,1 L3,11 L1,17 L-1,16 L-2,13 L0,11 L-2,10 L2,8 L-1,1 Z " fill="#ABB5BB" transform="translate(520,495)"/>
<path d="M0,0 L3,0 L4,5 L-1,19 L-3,19 L-4,14 L0,5 Z " fill="#C6CED3" transform="translate(289,397)"/>
<path d="M0,0 L3,1 L1,7 L1,9 L-1,9 L1,15 L-3,19 L-5,19 L-3,9 Z " fill="#DFEEF9" transform="translate(735,586)"/>
<path d="M0,0 L3,4 L-1,20 L-4,30 L-5,30 L-4,19 L0,6 Z " fill="#DEEDF7" transform="translate(792,476)"/>
<path d="M0,0 L6,0 L7,2 L6,6 L9,7 L1,8 L0,7 Z M7,0 L11,1 L7,1 Z " fill="#C7CCD0" transform="translate(288,808)"/>
<path d="M0,0 L3,1 L3,15 L1,14 L-1,9 L-2,11 L-4,5 L-2,1 Z " fill="#B5BCC1" transform="translate(676,671)"/>
<path d="M0,0 L2,0 L2,5 L6,7 L6,9 L2,8 L2,10 L5,11 L0,12 L0,10 L-3,9 L-2,2 L0,2 Z " fill="#B5B6B8" transform="translate(650,479)"/>
<path d="M0,0 L1,3 L-5,17 L-6,15 L-8,16 L-9,18 L-11,16 Z " fill="#EAF2F6" transform="translate(831,377)"/>
<path d="M0,0 L8,0 L4,4 L1,4 L1,6 L-4,8 L-7,8 L-7,4 L0,1 Z " fill="#DFEBF2" transform="translate(295,887)"/>
<path d="M0,0 L4,0 L4,2 L8,2 L7,8 L4,9 L4,7 L-1,7 L-2,4 Z " fill="#D3D7DA" transform="translate(633,808)"/>
<path d="M0,0 L3,1 L1,6 L1,13 L-2,17 L-4,16 L-4,9 Z " fill="#DCECF7" transform="translate(766,503)"/>
<path d="M0,0 L9,0 L10,4 L9,7 L2,6 Z " fill="#CBCED1" transform="translate(607,320)"/>
<path d="M0,0 L7,1 L5,6 L0,12 L-2,10 L-1,5 Z " fill="#ACB1B5" transform="translate(313,791)"/>
<path d="M0,0 L2,0 L3,6 L1,7 L4,9 L-2,8 L-6,7 L-6,5 L-9,5 L-9,3 L0,2 Z " fill="#CBCFD2" transform="translate(279,748)"/>
<path d="M0,0 L4,0 L5,4 L4,9 L0,9 L0,7 L-4,7 L-3,3 L-4,1 Z " fill="#ADB1B4" transform="translate(468,554)"/>
<path d="M0,0 L2,0 L1,13 L-1,15 L-5,16 L-4,10 Z M-6,16 Z " fill="#E0F0FA" transform="translate(774,482)"/>
<path d="M0,0 L2,0 L2,2 L0,2 L0,7 L2,7 L2,9 L-2,9 L-2,11 L1,11 L1,13 L-3,13 L-4,15 L-6,15 L-5,9 Z " fill="#B1B9BF" transform="translate(437,465)"/>
<path d="M0,0 L9,0 L7,3 L8,9 L3,5 L4,9 L0,7 L0,9 L-2,9 L-3,5 L2,3 L3,1 Z " fill="#B7B8BA" transform="translate(648,463)"/>
<path d="M0,0 L4,1 L-2,13 L-4,13 L-5,15 L-7,12 L-8,9 L-8,7 L-3,7 L0,6 Z " fill="#ACB6BD" transform="translate(560,415)"/>
<path d="M0,0 L3,1 L3,10 L2,11 L-6,11 L-2,7 L-1,1 Z " fill="#D0D4D8" transform="translate(934,367)"/>
<path d="M0,0 L9,2 L11,4 L10,5 L12,7 L10,8 L3,8 L3,5 L-1,3 L1,2 Z " fill="#B9C0C6" transform="translate(929,321)"/>
<path d="M0,0 L1,3 L3,3 L4,7 L1,18 L-1,16 L-1,2 Z " fill="#BFCCD4" transform="translate(657,812)"/>
<path d="M0,0 L5,2 L9,4 L14,9 L13,11 L7,8 L2,8 L2,6 L0,4 L2,4 L2,2 L0,2 Z " fill="#CBCFD2" transform="translate(867,818)"/>
<path d="M0,0 L3,1 L2,4 L0,5 L1,8 L7,8 L6,11 L3,12 L-2,10 L-4,3 L-2,3 Z " fill="#AFB2B5" transform="translate(481,556)"/>
<path d="M0,0 L1,4 L0,8 L-2,8 L-3,16 L-5,23 L-8,24 L-7,18 L-1,2 Z " fill="#BFC8CE" transform="translate(816,420)"/>
<path d="M0,0 L5,3 L6,6 L4,6 L4,4 L2,4 L3,8 L-1,9 L-2,11 L-5,11 L-4,6 Z " fill="#B4BBC1" transform="translate(460,424)"/>
<path d="M0,0 L2,1 L1,12 L-2,15 L-4,19 L-6,19 L-3,7 Z " fill="#B2BCC3" transform="translate(823,399)"/>
<path d="M0,0 L4,1 L4,3 L5,7 L7,9 L5,9 L6,12 L4,12 L2,15 L0,6 L-2,5 Z " fill="#CACFD3" transform="translate(619,384)"/>
<path d="M0,0 L6,1 L14,6 L13,9 L8,9 L7,6 L0,2 Z " fill="#C1CCD3" transform="translate(640,326)"/>
<path d="M0,0 L1,2 L3,2 L2,6 L0,7 L-5,19 L-7,18 L-6,13 Z " fill="#D9E8F3" transform="translate(460,698)"/>
<path d="M0,0 L1,0 L1,8 L3,8 L3,22 L1,24 L1,17 L-2,18 L-2,14 L0,14 Z " fill="#F3F8F6" transform="translate(752,672)"/>
<path d="M0,0 L5,1 L8,2 L9,7 L4,8 L0,9 L1,4 Z " fill="#A4A6AA" transform="translate(600,617)"/>
<path d="M0,0 L4,2 L4,6 L4,11 L2,12 L1,9 L-2,9 L-2,1 Z " fill="#ABACAE" transform="translate(413,583)"/>
<path d="M0,0 L3,2 L2,8 L-1,16 L-4,16 L-6,13 L-6,10 L-2,10 L-2,7 L1,7 Z " fill="#BCC2C6" transform="translate(759,510)"/>
<path d="M0,0 L2,2 L1,10 L-2,17 L-4,16 L-3,6 L-1,1 Z " fill="#BCC4CB" transform="translate(908,459)"/>
<path d="M0,0 L4,1 L2,5 L-1,7 L-2,12 L-6,10 L-4,10 L-4,8 L-6,7 L-5,2 L-1,1 Z " fill="#B2B8BC" transform="translate(512,363)"/>
<path d="M0,0 L2,4 L2,13 L-1,15 L-3,14 L-3,7 Z " fill="#DCE4EB" transform="translate(510,547)"/>
<path d="M0,0 L4,2 L2,8 L0,6 L-2,12 L-4,10 L-5,1 L-3,1 L-3,3 Z " fill="#D9E6EE" transform="translate(429,472)"/>
<path d="M0,0 L1,4 L1,9 L-4,17 L-6,18 L-4,9 Z " fill="#DAEAF5" transform="translate(471,670)"/>
<path d="M0,0 L2,0 L2,14 L-1,20 L-2,16 L-1,13 L-3,11 L-1,9 L-3,4 L-4,1 L-1,2 Z M0,11 Z " fill="#A5A8AA" transform="translate(641,604)"/>
<path d="M0,0 L4,1 L8,0 L9,4 L8,9 L5,9 L5,7 L2,6 Z M7,1 Z " fill="#B1B3B5" transform="translate(462,599)"/>
<path d="M0,0 L6,0 L5,6 L2,13 L0,11 Z " fill="#DDECF6" transform="translate(713,560)"/>
<path d="M0,0 L5,1 L4,5 L4,8 L-1,6 L-6,4 L-4,1 Z " fill="#C9CFD4" transform="translate(272,527)"/>
<path d="M0,0 L3,1 L6,13 L4,15 L0,11 L1,8 L-1,2 Z M1,14 L3,15 Z " fill="#C1CCD5" transform="translate(282,457)"/>
<path d="M0,0 L4,2 L4,4 L8,3 L8,7 L1,9 L-2,9 L-1,5 Z " fill="#D8D9DB" transform="translate(664,344)"/>
<path d="M0,0 L5,1 L7,3 L5,4 L2,3 L4,7 L7,9 L2,10 L-2,4 Z " fill="#C7D0D7" transform="translate(212,837)"/>
<path d="M0,0 L4,1 L2,5 L-8,16 L-11,15 L-9,15 L-7,11 L-5,11 L-3,6 L-2,4 L0,5 L-1,1 Z " fill="#DCEEF9" transform="translate(324,824)"/>
<path d="M0,0 Z M-1,1 L1,2 L1,10 L-1,11 L-1,9 L-5,12 L-8,11 L-8,9 L-4,6 Z " fill="#ACADAF" transform="translate(424,638)"/>
<path d="M0,0 L7,0 L7,2 L4,2 L5,6 L5,3 L7,3 L7,12 L9,13 L5,12 L2,7 L2,2 L0,2 Z " fill="#A5A9AD" transform="translate(593,585)"/>
<path d="M0,0 L3,0 L2,6 L4,10 L4,17 L2,18 L-1,5 Z " fill="#DEEDF6" transform="translate(704,398)"/>
<path d="M0,0 L3,2 L4,7 L0,9 L-1,2 Z M5,3 L7,3 L9,6 L8,10 L6,10 L4,4 Z " fill="#EDF5F8" transform="translate(784,820)"/>
<path d="M0,0 L1,3 L-2,13 L-3,11 L-8,11 L-7,5 L-1,5 Z " fill="#B0B8BF" transform="translate(689,719)"/>
<path d="M0,0 L5,1 L6,5 L6,7 L9,7 L10,10 L6,10 L5,12 L5,9 L2,9 L1,4 L3,4 Z " fill="#B7BABC" transform="translate(634,489)"/>
<path d="M0,0 L2,0 L2,2 L4,2 L2,7 L-5,5 L-5,2 L-8,1 Z " fill="#C9C9CC" transform="translate(701,494)"/>
<path d="M0,0 L1,2 L-1,3 L-4,10 L-2,11 L-2,14 L-8,15 L-7,8 L-2,1 Z " fill="#B3C2CC" transform="translate(447,449)"/>
<path d="M0,0 L4,1 L6,2 L4,7 L-2,16 L-4,14 L-2,14 L-1,10 L1,5 Z " fill="#EAF3F6" transform="translate(800,378)"/>
<path d="M0,0 L2,2 L1,4 L10,4 L12,6 L6,8 L2,9 L1,6 L-2,7 L-3,4 L-1,4 Z " fill="#C9CBCB" transform="translate(319,869)"/>
<path d="M0,0 L2,3 L0,12 L-5,17 L-4,11 L-1,1 Z " fill="#A8B2BA" transform="translate(695,637)"/>
<path d="M0,0 L4,5 L5,7 L0,7 L1,12 L-4,12 L-3,6 Z " fill="#A8B3BA" transform="translate(428,484)"/>
<path d="M0,0 L6,1 L2,2 L1,9 L4,9 L4,11 L8,13 L4,13 L2,17 L2,15 L0,15 Z " fill="#BEC8CF" transform="translate(224,439)"/>
<path d="M0,0 L2,3 L4,11 L4,19 L3,19 L3,14 L-1,13 L0,10 L-1,3 Z " fill="#DCEEF9" transform="translate(618,394)"/>
<path d="M0,0 L2,0 L1,5 L-3,6 L-6,9 L-10,8 L-8,4 Z M-1,3 Z " fill="#DDEBF5" transform="translate(339,351)"/>
<path d="M0,0 L6,1 L10,3 L9,6 L6,4 L6,7 L0,5 L3,1 Z M8,0 L12,0 L12,3 L10,3 L10,1 Z " fill="#BFC3C6" transform="translate(254,759)"/>
<path d="M0,0 L1,2 L3,2 L4,0 L5,4 L0,14 L-1,11 L-1,1 Z " fill="#A8B1B7" transform="translate(449,709)"/>
<path d="M0,0 L4,0 L5,3 L2,4 L2,6 L4,6 L4,8 L-2,8 L-3,4 Z M4,5 Z " fill="#B8BABD" transform="translate(419,512)"/>
<path d="M0,0 L8,1 L7,6 L6,8 L1,8 L1,4 Z " fill="#CACED1" transform="translate(248,480)"/>
<path d="M0,0 L1,0 L1,13 L-1,25 L-2,25 L-2,11 L-1,1 Z " fill="#D7E7F4" transform="translate(622,456)"/>
<path d="M0,0 L9,2 L10,7 L6,7 L6,5 L3,5 L3,3 L0,3 L0,5 L-2,5 L-3,2 Z " fill="#CAD2D8" transform="translate(626,321)"/>
<path d="M0,0 L4,0 L5,3 L0,4 L-3,6 L-10,6 L-7,3 Z " fill="#ADB9C1" transform="translate(316,314)"/>
<path d="M0,0 L7,2 L8,6 L7,8 L4,8 L4,6 L1,6 L-1,1 Z " fill="#B3B3B3" transform="translate(352,807)"/>
<path d="M0,0 L1,2 L4,3 L2,3 L2,7 L5,9 L5,11 L-2,10 L-3,5 L-2,2 L0,2 Z " fill="#D3D7DA" transform="translate(599,799)"/>
<path d="M0,0 L3,1 L3,8 L5,9 L2,15 L6,16 L2,16 L1,19 Z " fill="#E4F1FA" transform="translate(858,744)"/>
<path d="M0,0 L10,0 L9,4 L2,7 Z " fill="#CDD1D4" transform="translate(239,465)"/>
<path d="M0,0 L7,0 L9,2 L7,7 L0,5 L-1,1 Z " fill="#C5C8CA" transform="translate(297,802)"/>
<path d="M0,0 L1,2 L3,2 L3,7 L5,8 L7,12 L7,15 L5,15 L3,10 L0,11 L0,6 L2,6 L2,4 L-1,5 Z " fill="#B1B5BA" transform="translate(592,585)"/>
<path d="M0,0 L3,1 L4,4 L3,12 L1,12 L0,8 L-4,8 L-3,3 L-2,5 L0,5 Z " fill="#AFB4B7" transform="translate(397,580)"/>
<path d="M0,0 L3,0 L4,7 L2,6 L2,4 L-4,3 L-5,6 L-10,4 L-10,2 Z " fill="#C5CACE" transform="translate(509,532)"/>
<path d="M0,0 L2,3 L2,5 L16,6 L16,7 L1,8 L-4,9 L-2,3 Z " fill="#DDEBF3" transform="translate(549,443)"/>
<path d="M0,0 L2,2 L0,9 L-5,11 L-4,4 L-2,4 Z " fill="#B9BCC0" transform="translate(839,343)"/>
<path d="M0,0 L13,1 L15,0 L15,2 L20,2 L20,4 L8,4 L0,2 Z " fill="#CAD4DC" transform="translate(270,884)"/>
<path d="M0,0 L3,0 L0,9 L-3,12 L-4,5 L-2,1 Z " fill="#B4BEC4" transform="translate(940,792)"/>
<path d="M0,0 L3,0 L3,2 L6,2 L7,6 L1,8 L-1,7 Z M2,2 Z M7,3 Z " fill="#B8BCBE" transform="translate(305,769)"/>
<path d="M0,0 L2,0 L2,6 L1,8 L3,9 L1,15 L-1,14 L-2,3 L0,3 Z " fill="#BECDD6" transform="translate(428,768)"/>
<path d="M0,0 L1,4 L-3,14 L-4,11 L-10,11 L-9,9 L-5,9 L-2,1 Z " fill="#AAB2B7" transform="translate(708,662)"/>
<path d="M0,0 L1,3 L0,6 L-2,4 L-8,8 L-8,4 L-10,3 L-7,1 Z " fill="#A8A9AB" transform="translate(464,612)"/>
<path d="M0,0 L2,4 L1,8 L3,8 L1,12 L-2,17 L-3,17 L-2,6 Z M0,8 Z " fill="#DFF0F9" transform="translate(699,575)"/>
<path d="M0,0 L1,4 L-1,8 L-2,6 L-6,16 L-7,16 L-6,9 L-3,1 Z " fill="#DAEAF5" transform="translate(518,530)"/>
<path d="M0,0 L2,0 L3,2 L5,2 L4,9 L0,8 L-1,10 L-3,8 L-1,8 L-2,2 L0,3 Z M-3,5 Z " fill="#B3B9BE" transform="translate(355,504)"/>
<path d="M0,0 L3,1 L-3,13 L-7,19 L-8,16 L-7,13 L-5,13 L-3,6 L-1,6 Z " fill="#BBC7D0" transform="translate(803,416)"/>
<path d="M0,0 L2,2 L0,9 L-7,9 L-6,4 L-3,4 Z M2,0 Z " fill="#CEDFEB" transform="translate(311,375)"/>
<path d="M0,0 L1,2 L-4,3 L-3,1 Z M-6,3 L-4,3 L-5,6 L-10,9 L-16,11 L-16,8 Z " fill="#D7E9F5" transform="translate(904,845)"/>
<path d="M0,0 L4,1 L2,2 L3,4 L1,4 L1,6 L-3,8 L-7,7 L-7,5 L-4,5 L-4,1 Z " fill="#BCC1C4" transform="translate(271,768)"/>
<path d="M0,0 L2,0 L2,4 L2,6 L0,7 L-1,12 L-3,13 L-5,17 L-6,14 L-1,1 Z " fill="#A5AEB5" transform="translate(689,655)"/>
<path d="M0,0 L1,0 L1,7 L-4,25 L-5,25 L-4,12 L-1,5 Z " fill="#B3BFC6" transform="translate(877,571)"/>
<path d="M0,0 L3,1 L4,8 L-4,8 L-4,5 L0,4 Z " fill="#CCD3D8" transform="translate(700,399)"/>
<path d="M0,0 L2,2 L3,7 L2,10 L-1,9 L-3,3 L-8,3 L-6,1 L-2,1 L-1,3 Z M-3,7 Z " fill="#B6BBBD" transform="translate(482,358)"/>
<path d="M0,0 L10,1 L7,3 L-3,7 L-4,2 L-1,1 Z " fill="#E9F1F6" transform="translate(860,321)"/>
<path d="M0,0 L6,2 L6,4 L8,5 L5,6 L4,8 L4,6 L-2,6 L-1,2 Z " fill="#CDCFD2" transform="translate(322,856)"/>
<path d="M0,0 L2,1 L6,10 L2,12 L2,6 L-3,8 L-3,4 L-1,4 Z " fill="#E3F0F9" transform="translate(210,841)"/>
<path d="M0,0 L1,0 L3,9 L6,15 L5,18 L3,16 L0,17 Z " fill="#C2CED6" transform="translate(241,819)"/>
<path d="M0,0 L2,0 L2,4 L7,4 L7,5 L2,5 L2,8 L4,8 L3,13 L5,13 L4,18 L2,15 L0,7 Z " fill="#B8C4CC" transform="translate(202,811)"/>
<path d="M0,0 L4,4 L2,11 L-1,12 L-2,6 Z " fill="#D0E0EC" transform="translate(325,779)"/>
<path d="M0,0 L4,2 L4,6 L-1,7 L-1,10 L-4,9 L-2,4 Z " fill="#C8D4DE" transform="translate(429,761)"/>
<path d="M0,0 L2,2 L3,12 L-2,15 L-1,6 L0,4 Z M-3,15 Z " fill="#D8E3EE" transform="translate(877,583)"/>
<path d="M0,0 L2,0 L3,4 L5,6 L3,10 L10,11 L6,13 L4,13 L3,15 L2,14 L0,4 Z " fill="#CFD0D3" transform="translate(654,389)"/>
<path d="M0,0 L9,1 L9,3 L7,5 L0,7 L-5,5 L-2,4 L1,3 Z " fill="#C5C8CA" transform="translate(319,313)"/>
<path d="M0,0 L6,2 L9,5 L9,7 L11,8 L4,7 L1,6 Z " fill="#BFC1C2" transform="translate(352,776)"/>
<path d="M0,0 L6,2 L8,4 L12,5 L12,7 L2,6 L2,4 L0,3 Z M6,7 Z " fill="#ADB0B2" transform="translate(234,761)"/>
<path d="M0,0 L2,4 L3,19 L1,15 L-1,9 L-2,3 L0,3 Z " fill="#A6B2B9" transform="translate(857,756)"/>
<path d="M0,0 L1,4 L-1,16 L-4,19 L-3,8 Z " fill="#B4C0C8" transform="translate(953,752)"/>
<path d="M0,0 L2,4 L1,13 L3,13 L2,17 L0,18 L-2,12 L-1,11 L0,4 L-2,3 Z " fill="#CCD2D6" transform="translate(858,652)"/>
<path d="M0,0 L1,0 L2,12 L4,9 L3,15 L0,23 L-1,19 Z " fill="#E4EFF5" transform="translate(545,601)"/>
<path d="M0,0 L7,1 L2,6 L-2,7 L-1,1 Z M-3,7 L-1,10 L-1,12 L-4,12 Z " fill="#C0C7CD" transform="translate(724,548)"/>
<path d="M0,0 L3,0 L2,6 L-1,15 L-2,15 L-3,8 L-1,5 L1,5 L1,3 L-1,3 Z " fill="#AFBBC4" transform="translate(514,522)"/>
<path d="M0,0 L4,2 L0,10 L-1,7 L-3,7 L-2,3 Z M-4,7 L-2,8 L-3,11 Z " fill="#DAEAF5" transform="translate(436,458)"/>
<path d="M0,0 L3,0 L2,5 L3,8 L-1,9 L-1,7 L-3,7 L-3,1 Z M0,5 Z " fill="#CED4D8" transform="translate(229,431)"/>
<path d="M0,0 L2,0 L2,4 L-3,6 L-7,8 L-7,10 L-9,10 L-9,12 L-12,13 L-10,9 Z " fill="#9CA8B0" transform="translate(274,339)"/>
<path d="M0,0 L6,1 L3,3 L-4,3 L-4,5 L-11,5 L-8,2 Z " fill="#ADB8C0" transform="translate(332,309)"/>
<path d="M0,0 L4,1 L1,2 L2,8 L4,10 L4,16 L1,13 L-1,7 Z " fill="#C4D2DC" transform="translate(436,814)"/>
<path d="M0,0 L2,0 L3,2 L5,2 L6,8 L1,10 L0,9 Z " fill="#EDF7FC" transform="translate(911,803)"/>
<path d="M0,0 L6,0 L4,4 L-3,11 L-4,9 L-3,6 L-1,6 Z " fill="#A3ACB3" transform="translate(252,776)"/>
<path d="M0,0 L2,1 L5,9 L5,18 L3,15 L0,4 Z " fill="#A7B3BC" transform="translate(320,748)"/>
<path d="M0,0 L2,0 L2,2 L7,4 L6,7 L3,7 L-2,7 L-2,2 L0,2 Z " fill="#AEB2B5" transform="translate(635,713)"/>
<path d="M0,0 L1,2 L3,3 L0,10 L0,16 L-3,20 L-2,8 Z " fill="#99A2AA" transform="translate(574,662)"/>
<path d="M0,0 L17,0 L23,2 L24,4 L15,2 L-1,2 Z " fill="#BCC9D3" transform="translate(900,668)"/>
<path d="M0,0 L3,0 L7,1 L5,7 L2,8 L1,4 L-1,3 Z " fill="#A2A7AB" transform="translate(473,644)"/>
<path d="M0,0 L1,4 L-4,16 L-6,12 L-5,9 L-3,9 L-2,2 Z " fill="#B8C3CB" transform="translate(744,558)"/>
<path d="M0,0 L1,0 L1,11 L-2,21 L-3,21 L-2,8 L-1,1 Z " fill="#DCECF8" transform="translate(703,552)"/>
<path d="M0,0 L2,0 L2,2 L0,2 Z M-3,1 L0,3 L-2,3 L-1,6 L-4,10 L-7,9 L-6,2 Z " fill="#C8C9CB" transform="translate(662,526)"/>
<path d="M0,0 L3,3 L1,8 L-2,13 L-3,9 Z " fill="#DCEBF6" transform="translate(443,444)"/>
<path d="M0,0 L3,1 L1,4 L2,6 L-6,5 L-11,4 L-7,2 Z " fill="#DDECF5" transform="translate(357,345)"/>
<path d="M0,0 L6,1 L2,4 L-1,6 L-10,5 L-8,2 L0,2 Z " fill="#C4D2DB" transform="translate(304,882)"/>
<path d="M0,0 L2,0 L0,4 L-10,13 L-12,13 L-12,11 L-7,7 L-6,4 L-2,4 Z " fill="#A4B1BB" transform="translate(364,849)"/>
<path d="M0,0 L3,1 L2,4 L0,4 L0,15 L-3,17 L-3,10 Z " fill="#A9B4BB" transform="translate(365,731)"/>
<path d="M0,0 L2,2 L5,0 L5,4 L3,9 L5,9 L6,7 L6,10 L2,10 L2,7 L0,6 L1,4 L-1,4 Z " fill="#D5D9DB" transform="translate(792,419)"/>
<path d="M0,0 L1,4 L4,4 L3,9 L-2,9 L-1,1 Z " fill="#BCC1C7" transform="translate(874,838)"/>
<path d="M0,0 L4,3 L4,1 L6,1 L8,9 L5,9 L4,5 L1,6 L-1,1 Z " fill="#BBC1C6" transform="translate(785,812)"/>
<path d="M0,0 L3,2 L4,10 L2,12 L-1,12 Z " fill="#CDD3D8" transform="translate(765,604)"/>
<path d="M0,0 L4,1 L2,4 L0,4 L0,6 L2,6 L2,8 L-4,8 L-4,6 L-2,6 L-2,4 L-4,4 L-4,2 Z " fill="#C0C1C3" transform="translate(837,599)"/>
<path d="M0,0 L5,5 L10,11 L13,11 L12,15 L8,13 L0,2 Z " fill="#AFBDC6" transform="translate(241,506)"/>
<path d="M0,0 L4,2 L7,6 L10,3 L9,7 L6,12 L4,11 L3,6 L0,2 Z M4,0 Z " fill="#CBCFD2" transform="translate(253,468)"/>
<path d="M0,0 L1,2 L-1,6 L-1,13 L-3,14 L-4,12 L-6,13 L-3,3 Z M-4,14 Z " fill="#DCEAF3" transform="translate(926,421)"/>
<path d="M0,0 L6,0 L5,4 L0,3 L-9,4 L-6,1 Z " fill="#D7E7F2" transform="translate(874,857)"/>
<path d="M0,0 L2,4 L3,10 L3,16 L1,13 L-2,4 L-2,1 Z " fill="#CED5DC" transform="translate(572,840)"/>
<path d="M0,0 L4,2 L5,4 L4,7 L1,7 L0,5 L-4,7 L-4,5 L-2,5 L-1,1 Z M1,3 Z M-5,7 Z " fill="#D4D8DB" transform="translate(606,808)"/>
<path d="M0,0 L2,0 L2,4 L5,5 L3,8 L6,10 L5,12 L1,10 Z M-2,5 L0,6 L-2,9 Z " fill="#BABBBD" transform="translate(386,736)"/>
<path d="M0,0 L1,0 L3,8 L4,12 L4,14 L2,14 L1,18 L0,12 Z " fill="#CED4D8" transform="translate(762,730)"/>
<path d="M0,0 L4,0 L4,2 L0,2 L0,4 L2,4 L2,6 L-8,4 L-6,2 Z " fill="#B4BFC6" transform="translate(259,719)"/>
<path d="M0,0 L1,0 L1,9 L-1,9 L0,12 L-3,21 L-4,21 L-3,11 Z " fill="#A9B4BA" transform="translate(370,709)"/>
<path d="M0,0 L2,3 L3,1 L7,2 L5,4 L3,10 L1,11 Z " fill="#B0B8BE" transform="translate(569,685)"/>
<path d="M0,0 L5,1 L3,9 L2,7 L-1,7 Z M0,9 L2,10 L0,11 Z " fill="#A7ADB1" transform="translate(583,619)"/>
<path d="M0,0 L2,3 L-1,8 L-2,12 L1,13 L-5,15 L-3,6 Z " fill="#C1C8CF" transform="translate(730,532)"/>
<path d="M0,0 L3,2 L2,8 L-2,15 L-3,12 L-1,8 L-1,2 Z " fill="#E0EDF6" transform="translate(747,480)"/>
<path d="M0,0 L1,2 L-5,15 L-7,13 L-6,9 L-4,9 L-3,3 L-1,3 Z " fill="#B1BDC6" transform="translate(545,448)"/>
<path d="M0,0 L6,0 L6,2 L-2,2 L-2,4 L-9,6 L-10,3 Z " fill="#B4C0C9" transform="translate(880,319)"/>
<path d="M0,0 L4,1 L10,3 L9,5 L2,6 L0,5 L0,3 L-2,2 Z " fill="#C9CBCD" transform="translate(379,306)"/>
<path d="M0,0 L3,1 L2,3 L-2,3 L-2,5 L-7,4 L-10,3 L-10,1 L-1,1 Z " fill="#BEC7CC" transform="translate(890,847)"/>
<path d="M0,0 L1,2 L-1,6 L-3,6 L-4,10 L-7,10 L-7,12 L-10,13 L-8,9 Z " fill="#B7C5CF" transform="translate(327,827)"/>
<path d="M0,0 L2,0 L2,2 L7,3 L7,7 L2,8 L0,4 L-1,3 Z " fill="#AFB1B2" transform="translate(337,813)"/>
<path d="M0,0 L2,0 L1,4 L-4,11 L-5,8 L-4,5 L-2,5 L-2,3 L-4,3 L-4,1 Z " fill="#B8C3CB" transform="translate(933,808)"/>
<path d="M0,0 L2,1 L5,9 L5,12 L2,12 L2,9 L0,8 L-2,3 Z " fill="#D7E8F5" transform="translate(771,788)"/>
<path d="M0,0 L1,2 L-1,7 L-5,7 L-6,12 L-9,13 L-7,8 L-2,1 Z " fill="#9EA7AE" transform="translate(224,740)"/>
<path d="M0,0 L10,0 L10,2 L-2,4 L-6,5 L-5,2 L0,2 Z " fill="#C3CED7" transform="translate(906,691)"/>
<path d="M0,0 L2,0 L2,3 L4,3 L4,5 L1,5 L0,8 L-6,6 L-6,4 L-1,4 L-2,2 L0,2 Z " fill="#D6DADD" transform="translate(888,471)"/>
<path d="M0,0 L2,1 L0,3 Z M-1,3 L1,7 L-3,8 L-2,10 L-2,13 L-5,13 L-6,7 L-5,5 L-1,5 Z " fill="#D3D7DA" transform="translate(805,459)"/>
<path d="M0,0 L2,4 L-4,13 L-6,13 L-5,8 Z " fill="#D5E5EF" transform="translate(572,402)"/>
<path d="M0,0 L4,0 L3,5 L-1,7 L-3,6 L-2,2 Z M-3,7 Z " fill="#B5BABE" transform="translate(499,377)"/>
<path d="M0,0 L2,2 L0,5 L2,8 L-4,9 L-5,4 Z " fill="#AFB3B7" transform="translate(272,343)"/>
<path d="M0,0 L2,0 L2,2 L6,4 L5,6 L-1,5 L-4,2 Z " fill="#D4DBE0" transform="translate(243,869)"/>
<path d="M0,0 L2,1 L0,6 L-6,10 L-9,10 Z " fill="#E4F0F6" transform="translate(382,832)"/>
<path d="M0,0 L3,0 L2,4 L5,4 L4,0 L6,1 L6,5 L1,9 L0,7 L1,4 L-2,4 L-2,2 L0,2 Z " fill="#D4D6D9" transform="translate(879,536)"/>
<path d="M0,0 L1,2 L6,2 L5,7 L1,7 L-2,1 Z " fill="#E3EFF5" transform="translate(494,369)"/>
<path d="M0,0 L3,1 L3,7 L0,7 L-2,4 L-4,6 L-4,1 Z " fill="#C8CACD" transform="translate(437,368)"/>
<path d="M0,0 L2,0 L2,2 L4,2 L2,6 L0,9 L-2,9 L-3,6 L-2,3 L0,3 Z " fill="#BCC4CB" transform="translate(924,817)"/>
<path d="M0,0 L2,0 L3,4 L2,7 L1,13 L0,13 L-2,6 L-1,2 Z " fill="#BECBD4" transform="translate(203,784)"/>
<path d="M0,0 L8,0 L11,2 L11,4 L8,4 L8,6 L6,5 L0,1 Z " fill="#B3BBC2" transform="translate(288,723)"/>
<path d="M0,0 L5,2 L7,5 L5,5 L4,7 L2,6 L1,8 Z " fill="#EBF6FA" transform="translate(921,696)"/>
<path d="M0,0 L3,1 L4,7 L2,13 L1,13 L1,3 L-3,1 Z " fill="#9DA2A6" transform="translate(479,630)"/>
<path d="M0,0 L3,1 L7,3 L8,5 L0,6 L0,4 L-3,3 L-3,1 Z " fill="#C4CBCF" transform="translate(286,535)"/>
<path d="M0,0 L2,4 L1,8 L-3,13 L-2,3 Z " fill="#B8C1C8" transform="translate(788,507)"/>
<path d="M0,0 L3,1 L2,2 L4,3 L3,6 L-2,8 L-3,5 Z " fill="#C9CACC" transform="translate(690,504)"/>
<path d="M0,0 L5,0 L5,2 L15,2 L15,3 L-1,3 L-4,1 Z " fill="#ABB7C0" transform="translate(849,856)"/>
<path d="M0,0 L8,0 L11,4 L7,6 L5,3 L0,1 Z " fill="#CED2D5" transform="translate(618,813)"/>
<path d="M0,0 L6,1 L11,3 L8,7 L6,7 L5,2 L-1,2 Z " fill="#B3BABF" transform="translate(302,800)"/>
<path d="M0,0 L2,2 L1,7 L-3,10 L-2,2 Z " fill="#D7E4EE" transform="translate(476,658)"/>
<path d="M0,0 L2,0 L2,2 L7,4 L7,8 L3,9 L2,5 L2,3 L0,3 Z " fill="#C3CBD1" transform="translate(257,520)"/>
<path d="M0,0 L1,3 L3,3 L3,1 L6,2 L7,9 L4,10 L3,6 L2,4 L0,4 Z " fill="#CACFD2" transform="translate(296,514)"/>
<path d="M0,0 L4,2 L11,8 L8,9 L4,6 L4,4 L2,4 L1,6 L1,3 L-1,2 Z " fill="#B7BEC4" transform="translate(293,482)"/>
<path d="M0,0 L6,2 L7,5 L6,7 L2,5 L-1,3 Z " fill="#D5D9DC" transform="translate(849,456)"/>
<path d="M0,0 L4,0 L3,3 L-3,4 L-8,3 L-5,1 Z " fill="#C0CED7" transform="translate(581,320)"/>
<path d="M0,0 L1,2 L6,2 L4,3 L4,5 L-8,4 L-8,3 L-3,3 L-3,1 Z " fill="#E3EEF4" transform="translate(920,314)"/>
<path d="M0,0 L8,0 L6,2 L-3,5 L-8,5 L-6,3 L0,1 Z " fill="#B3C1C9" transform="translate(312,881)"/>
<path d="M0,0 L5,1 L6,3 L11,4 L11,6 L3,6 L3,3 L0,3 Z " fill="#CBCECF" transform="translate(321,867)"/>
<path d="M0,0 L2,0 L8,10 L5,13 L3,8 L0,2 Z " fill="#DCEBF4" transform="translate(782,813)"/>
<path d="M0,0 L1,0 L1,10 L-1,10 L0,15 L-2,14 L-2,6 Z " fill="#A8B4BD" transform="translate(373,694)"/>
<path d="M0,0 L4,1 L3,6 L0,7 L-4,5 L-4,3 Z " fill="#B6B9BB" transform="translate(671,585)"/>
<path d="M0,0 L7,1 L3,2 L3,9 L0,8 Z " fill="#B9B9B9" transform="translate(700,463)"/>
<path d="M0,0 L2,0 L0,7 L-4,12 L-5,9 Z " fill="#D6E8F4" transform="translate(555,431)"/>
<path d="M0,0 L3,1 L3,9 L-1,7 L-2,4 Z " fill="#C1CBD4" transform="translate(613,375)"/>
<path d="M0,0 L2,4 L4,14 L0,14 L1,7 L-1,6 Z " fill="#E2F0F7" transform="translate(202,818)"/>
<path d="M0,0 L2,0 L6,7 L11,8 L11,10 L7,11 L0,2 Z " fill="#A4B1BA" transform="translate(787,817)"/>
<path d="M0,0 L1,4 L-3,15 L-4,11 L-6,10 L-3,8 Z " fill="#B0BCC4" transform="translate(948,774)"/>
<path d="M0,0 L2,1 L2,8 L0,8 L-2,13 L-3,13 L-2,5 Z " fill="#DEEDF8" transform="translate(693,712)"/>
<path d="M0,0 L4,0 L2,7 L-1,7 L-3,7 L-3,2 L-1,3 Z " fill="#B2B9BF" transform="translate(453,704)"/>
<path d="M0,0 L2,1 L-1,6 L-4,9 L-7,10 L-5,6 Z " fill="#DFEFF9" transform="translate(895,700)"/>
<path d="M0,0 L2,1 L2,3 L5,3 L5,6 L3,6 L2,9 L0,9 Z " fill="#D2D5D6" transform="translate(760,673)"/>
<path d="M0,0 L4,0 L2,8 L0,8 L-1,11 L-2,7 Z " fill="#C2D5E0" transform="translate(578,616)"/>
<path d="M0,0 L4,1 L1,9 L-2,8 L-1,3 Z " fill="#D4D7D9" transform="translate(709,598)"/>
<path d="M0,0 L5,0 L5,6 L0,7 L0,3 L3,3 L3,1 Z " fill="#A6AAAD" transform="translate(468,586)"/>
<path d="M0,0 L1,0 L1,7 L-2,15 L-4,11 L-3,9 L-2,5 L-1,5 Z " fill="#E0EDF6" transform="translate(781,523)"/>
<path d="M0,0 L3,0 L2,5 L-2,14 L-4,10 L-2,9 L-2,6 L0,6 Z " fill="#ADBAC2" transform="translate(536,463)"/>
<path d="M0,0 L2,1 L2,4 L7,5 L7,8 L3,8 L3,6 L0,6 Z " fill="#B0B5B9" transform="translate(486,368)"/>
<path d="M0,0 L6,0 L5,5 L3,5 L3,7 L-1,7 Z " fill="#C7C9CD" transform="translate(312,360)"/>
<path d="M0,0 L5,2 L5,6 L-1,6 Z " fill="#CFD3D6" transform="translate(932,339)"/>
<path d="M0,0 L6,0 L8,2 L6,3 L6,6 L3,5 L-1,3 Z " fill="#DAE0E4" transform="translate(288,880)"/>
<path d="M0,0 L1,4 L2,7 L-1,8 L-3,7 L-3,1 Z " fill="#D2D6D9" transform="translate(615,808)"/>
<path d="M0,0 L3,0 L3,6 L-2,7 L-2,4 Z " fill="#B1B3B2" transform="translate(378,809)"/>
<path d="M0,0 L1,3 L3,4 L3,6 L2,11 L0,14 L-1,4 Z " fill="#D4D7DB" transform="translate(765,746)"/>
<path d="M0,0 L1,0 L2,7 L0,12 L2,13 L0,20 L-1,20 L-1,6 Z " fill="#C1C8CE" transform="translate(566,746)"/>
<path d="M0,0 L4,2 L8,7 L2,6 L0,2 Z " fill="#A9B5BD" transform="translate(304,729)"/>
<path d="M0,0 L5,2 L5,5 L3,5 L2,8 L0,7 Z M3,2 Z " fill="#C9D7E1" transform="translate(564,674)"/>
<path d="M0,0 L7,2 L4,8 L3,5 L1,5 L1,2 L-1,1 Z " fill="#ADB4B9" transform="translate(466,663)"/>
<path d="M0,0 L0,3 L-3,10 L-6,6 L-6,2 L-2,1 Z " fill="#D3D6D8" transform="translate(864,638)"/>
<path d="M0,0 L1,2 L4,3 L2,8 L-2,9 Z " fill="#A8A9AB" transform="translate(423,581)"/>
<path d="M0,0 L1,2 L3,3 L-2,5 L-4,5 L-6,8 L-7,4 L-7,2 L-2,2 Z " fill="#ACADAF" transform="translate(415,574)"/>
<path d="M0,0 L7,0 L7,4 L0,4 L-2,2 Z " fill="#C5CACE" transform="translate(296,536)"/>
<path d="M0,0 L5,0 L6,5 L5,9 L3,9 L3,6 L1,6 Z " fill="#CFD2D6" transform="translate(250,512)"/>
<path d="M0,0 L4,1 L3,5 L3,7 L3,10 L-1,8 Z " fill="#D2D6DA" transform="translate(889,512)"/>
<path d="M0,0 L7,0 L7,7 L1,6 L1,4 L3,3 Z " fill="#C9CED1" transform="translate(318,504)"/>
<path d="M0,0 L5,1 L4,3 L2,3 L2,6 L-1,5 L-1,3 L-3,3 L-3,1 Z " fill="#D0D1D2" transform="translate(235,480)"/>
<path d="M0,0 L6,0 L6,7 L2,8 L3,4 L-1,1 Z " fill="#CED7DD" transform="translate(778,456)"/>
<path d="M0,0 L5,0 L1,7 L-1,9 L-2,6 Z " fill="#D7E8F3" transform="translate(928,408)"/>
<path d="M0,0 L3,0 L2,5 L4,6 L3,11 L0,10 L1,6 L-1,5 Z " fill="#CCCDCF" transform="translate(677,404)"/>
<path d="M0,0 L8,0 L6,2 L7,4 L3,4 L3,6 L0,5 L0,3 L2,3 L2,1 Z " fill="#CDCED0" transform="translate(592,355)"/>
<path d="M0,0 L8,1 L7,6 L3,5 L3,1 Z " fill="#E0ECF4" transform="translate(381,345)"/>
<path d="M0,0 L3,1 L-5,8 L-7,4 Z " fill="#E6F0F5" transform="translate(842,336)"/>
<path d="M0,0 L2,2 L-2,8 L-4,8 L-5,3 L-1,2 Z M-6,5 Z " fill="#A7AFB5" transform="translate(393,814)"/>
<path d="M0,0 L2,0 L1,4 L-2,12 L-4,14 L-2,5 Z " fill="#DAEBF7" transform="translate(942,794)"/>
<path d="M0,0 L1,0 L1,8 L0,11 L-3,10 L-1,2 Z " fill="#A9B1B8" transform="translate(356,766)"/>
<path d="M0,0 L2,0 L4,3 L4,8 L2,9 L0,8 L0,3 Z " fill="#D7D8DA" transform="translate(848,630)"/>
<path d="M0,0 L5,2 L2,3 L2,11 L-1,10 L-1,5 L1,5 Z " fill="#B4B8BC" transform="translate(389,613)"/>
<path d="M0,0 L3,3 L3,6 L1,6 L1,10 L-2,10 L-1,2 Z " fill="#9BA5AD" transform="translate(596,574)"/>
<path d="M0,0 L5,0 L5,2 L2,2 L3,5 L-4,4 L-4,1 Z " fill="#ADAFB1" transform="translate(637,563)"/>
<path d="M0,0 L1,0 L1,8 L-4,8 L-3,3 L-1,3 Z " fill="#DFE1E4" transform="translate(519,536)"/>
<path d="M0,0 L2,0 L0,5 L-2,5 L-3,8 L-5,7 L-5,2 Z " fill="#D2D6D9" transform="translate(901,481)"/>
<path d="M0,0 L2,4 L0,8 L-5,12 L-4,8 Z " fill="#BEC5CB" transform="translate(756,472)"/>
<path d="M0,0 L2,0 L2,6 L-3,7 L-2,1 Z " fill="#C5C8CC" transform="translate(534,463)"/>
<path d="M0,0 L1,0 L1,14 L-2,17 L-3,15 L-1,10 Z " fill="#CAD4DA" transform="translate(283,440)"/>
<path d="M0,0 L1,2 L6,3 L5,7 L5,5 L2,6 L0,9 L-1,5 Z " fill="#CDD1D3" transform="translate(536,446)"/>
<path d="M0,0 L2,1 L2,10 L-1,11 L-1,3 Z " fill="#D9E0E5" transform="translate(294,408)"/>
<path d="M0,0 L2,1 L2,3 L8,2 L7,4 L5,3 L5,6 L0,5 L-1,2 Z " fill="#D4D6D8" transform="translate(576,854)"/>
<path d="M0,0 L3,1 L2,4 L-3,6 L-4,2 Z " fill="#DFEEF8" transform="translate(309,840)"/>
<path d="M0,0 L2,0 L3,10 L1,9 L-2,10 L-3,7 L-1,7 Z " fill="#A9B1B8" transform="translate(859,776)"/>
<path d="M0,0 L5,1 L6,5 L-2,4 L-2,2 L0,2 Z " fill="#C9CBCD" transform="translate(290,726)"/>
<path d="M0,0 L2,0 L3,2 L7,4 L8,11 L5,8 L5,6 L3,6 L0,2 Z " fill="#C4CED6" transform="translate(926,697)"/>
<path d="M0,0 L1,0 L1,10 L0,14 L-2,14 L-1,5 Z " fill="#BBC7D1" transform="translate(861,651)"/>
<path d="M0,0 Z M-6,2 L4,3 L3,6 L1,6 L1,4 L-6,5 Z " fill="#AFB3B7" transform="translate(407,557)"/>
<path d="M0,0 L7,2 L5,5 L-2,5 L-1,3 L1,3 Z " fill="#CACED1" transform="translate(298,492)"/>
<path d="M0,0 L2,0 L0,7 L-2,5 L-5,7 L-4,3 L-3,1 Z " fill="#B9C4CC" transform="translate(806,384)"/>
<path d="M0,0 L4,0 L6,4 L2,5 L0,7 L-1,3 Z M-1,7 Z " fill="#DFE7EC" transform="translate(939,380)"/>
<path d="M0,0 L2,2 L0,7 L-1,10 L-3,10 L-2,4 L-4,4 L-4,2 Z " fill="#B0B5B9" transform="translate(519,358)"/>
<path d="M0,0 L6,2 L9,4 L8,7 L2,4 Z " fill="#E0ECF4" transform="translate(406,353)"/>
<path d="M0,0 L3,0 L2,7 L-5,6 L-6,4 L-1,5 L1,6 Z " fill="#C9CED2" transform="translate(400,341)"/>
<path d="M0,0 L10,0 L16,2 L12,3 L5,2 L0,1 Z " fill="#ABB7BF" transform="translate(384,306)"/>
<path d="M0,0 L2,0 L2,12 L0,8 L-2,3 Z " fill="#C3C8CB" transform="translate(657,803)"/>
<path d="M0,0 L1,3 L-5,11 L-6,8 L-5,6 L-3,6 L-2,2 Z " fill="#A5AEB5" transform="translate(405,798)"/>
<path d="M0,0 L5,0 L4,8 L1,7 Z M1,2 L2,4 Z " fill="#BCC0C4" transform="translate(770,774)"/>
<path d="M0,0 L5,0 L5,3 L3,3 L2,5 L-3,3 Z " fill="#BABBBD" transform="translate(413,711)"/>
<path d="M0,0 L1,0 L1,17 L-2,18 L-2,14 L0,14 Z " fill="#F0EEED" transform="translate(752,672)"/>
<path d="M0,0 L6,0 L6,4 L-1,4 Z " fill="#ACADAF" transform="translate(434,652)"/>
<path d="M0,0 L5,5 L-4,5 L-4,2 Z " fill="#DDE0E3" transform="translate(847,643)"/>
<path d="M0,0 L4,0 L3,4 L1,4 L-1,6 L-3,4 L-2,1 Z " fill="#C5CACF" transform="translate(715,632)"/>
<path d="M0,0 L4,1 L5,7 L2,8 L1,5 L-1,7 Z " fill="#B0BCC3" transform="translate(385,624)"/>
<path d="M0,0 L2,0 L1,9 L-2,10 L-2,8 L-4,7 L-3,5 L-1,5 Z " fill="#B2BCC2" transform="translate(688,616)"/>
<path d="M0,0 L3,2 L1,2 L1,11 L-1,11 L-2,14 L-2,7 Z " fill="#99A7B1" transform="translate(389,607)"/>
<path d="M0,0 L2,0 L1,8 L-1,12 L-1,1 Z " fill="#BFC6CA" transform="translate(881,552)"/>
<path d="M0,0 L1,0 L0,10 L-2,10 L-3,14 L-3,7 Z " fill="#DEEEFA" transform="translate(776,545)"/>
<path d="M0,0 L6,1 L5,6 L0,5 Z " fill="#C2C7CB" transform="translate(506,539)"/>
<path d="M0,0 L3,3 L0,10 L-3,9 Z " fill="#E7F2F6" transform="translate(540,461)"/>
<path d="M0,0 L2,1 L0,7 L-2,7 L-1,11 L-4,11 L-3,5 Z " fill="#D4D7D9" transform="translate(775,437)"/>
<path d="M0,0 L4,1 L4,3 L1,3 L1,10 L-2,11 Z " fill="#BDC9D1" transform="translate(231,400)"/>
<path d="M0,0 L2,0 L1,8 L-3,5 L-5,5 L-4,2 L0,2 Z " fill="#C0C5CA" transform="translate(933,381)"/>
<path d="M0,0 L1,2 L5,2 L3,8 L-1,5 Z " fill="#B1BAC0" transform="translate(442,379)"/>
<path d="M0,0 L3,1 L-2,5 L-4,9 L-7,8 Z " fill="#99A7B0" transform="translate(522,351)"/>
<path d="M0,0 L6,1 L2,7 L0,7 Z " fill="#A2ADB5" transform="translate(368,840)"/>
<path d="M0,0 L2,3 L0,8 L-3,9 L-2,3 Z " fill="#A2ABB1" transform="translate(342,803)"/>
<path d="M0,0 L2,1 L0,7 L-5,4 L-7,2 Z " fill="#B6BABD" transform="translate(640,751)"/>
<path d="M0,0 L5,1 L5,3 L7,3 L7,5 L2,5 L2,2 L0,2 L-1,4 Z " fill="#B4BABE" transform="translate(680,679)"/>
<path d="M0,0 L4,5 L0,7 L-2,8 L-2,2 Z " fill="#A5B1B9" transform="translate(579,643)"/>
<path d="M0,0 L1,3 L3,4 L0,10 L-2,9 L-2,4 Z " fill="#B0B8BD" transform="translate(698,627)"/>
<path d="M0,0 L7,0 L6,3 L4,3 L3,6 L1,5 L2,1 Z M-2,1 L0,1 L-1,3 Z " fill="#C1C5C8" transform="translate(641,544)"/>
<path d="M0,0 L2,0 L0,10 L-2,10 L-2,3 Z " fill="#DAE8F3" transform="translate(605,536)"/>
<path d="M0,0 L5,1 L6,5 L6,7 L1,6 L1,4 L3,4 Z " fill="#AEB2B5" transform="translate(634,489)"/>
<path d="M0,0 L3,0 L2,5 L-1,8 L-3,7 L-1,3 Z " fill="#E6F1F5" transform="translate(819,357)"/>
<path d="M0,0 L6,3 L4,4 L5,7 L4,9 L2,9 L3,5 L0,5 Z " fill="#CDD4D9" transform="translate(659,335)"/>
<path d="M0,0 L5,0 L3,5 L-1,4 L-2,2 Z " fill="#DDDFE3" transform="translate(268,879)"/>
<path d="M0,0 L1,3 L0,7 L0,5 L-2,5 L-2,7 L-4,7 L-5,4 Z " fill="#EBF1F4" transform="translate(351,863)"/>
<path d="M0,0 L4,2 L4,5 L10,7 L10,8 L3,7 L0,3 Z " fill="#B8BEC4" transform="translate(866,825)"/>
<path d="M0,0 L5,1 L2,7 L0,6 Z " fill="#A4ACB1" transform="translate(425,759)"/>
<path d="M0,0 L3,3 L2,5 L-3,8 L-2,3 Z " fill="#97A3AB" transform="translate(213,754)"/>
<path d="M0,0 L3,0 L2,4 L0,9 L-2,6 L-1,1 Z " fill="#CFE0EC" transform="translate(685,743)"/>
<path d="M0,0 L1,2 L-2,7 L-3,12 L-4,12 L-4,3 L-2,3 L-2,1 Z " fill="#CED3D7" transform="translate(764,656)"/>
<path d="M0,0 L1,4 L-3,14 L-4,10 Z " fill="#BFC8CE" transform="translate(713,580)"/>
<path d="M0,0 L8,2 L4,7 Z " fill="#C6CBCE" transform="translate(476,510)"/>
<path d="M0,0 Z M-2,1 L2,1 L2,4 L5,5 L0,6 L0,4 L-3,3 Z " fill="#AFB0B2" transform="translate(650,485)"/>
<path d="M0,0 L2,1 L-1,3 Z M-5,2 L-4,4 L-1,3 L0,5 L-1,8 L-4,8 Z " fill="#CBD2D8" transform="translate(812,440)"/>
<path d="M0,0 L2,0 L0,5 L-2,10 L-4,7 L-2,2 Z " fill="#A0ACB5" transform="translate(251,364)"/>
<path d="M0,0 L2,1 L3,5 L0,8 L-1,8 L-2,2 Z " fill="#B0B7BE" transform="translate(277,336)"/>
<path d="M0,0 L5,1 L7,2 L7,9 L5,6 L5,4 L2,5 L2,2 Z " fill="#A5B3BD" transform="translate(944,327)"/>
<path d="M0,0 L7,2 L7,3 L0,3 L0,5 L-2,5 L-3,2 Z " fill="#C2CAD0" transform="translate(626,321)"/>
<path d="M0,0 L1,2 L3,2 L2,5 L-7,4 L-7,3 L0,3 Z " fill="#C3CDD4" transform="translate(608,860)"/>
<path d="M0,0 L3,1 L3,3 L5,3 L6,8 L3,7 L0,2 Z " fill="#C7D4DB" transform="translate(215,848)"/>
<path d="M0,0 L2,0 L2,8 L0,9 L-2,3 Z " fill="#C6C8CA" transform="translate(330,844)"/>
<path d="M0,0 L4,2 L3,6 L-1,5 Z " fill="#F3F9FA" transform="translate(924,826)"/>
<path d="M0,0 L1,3 L3,4 L2,9 L-1,8 L-1,2 Z " fill="#CED4D8" transform="translate(657,812)"/>
<path d="M0,0 L1,4 L0,7 L-5,7 Z " fill="#B3C1CB" transform="translate(918,809)"/>
<path d="M0,0 L5,1 L5,14 L4,14 L4,3 L2,3 L2,1 Z " fill="#D1DEE6" transform="translate(853,698)"/>
<path d="M0,0 L3,1 L1,1 L1,3 L-5,6 L-4,1 Z " fill="#B2B5B7" transform="translate(637,519)"/>
<path d="M0,0 L5,0 L3,3 L-4,4 Z " fill="#D5D9DC" transform="translate(883,493)"/>
<path d="M0,0 L1,4 L-4,7 L-8,6 L-2,2 L0,2 Z " fill="#B0BAC1" transform="translate(351,483)"/>
<path d="M0,0 L2,1 L-1,9 L-3,10 L-1,1 Z " fill="#DEEAF4" transform="translate(533,479)"/>
<path d="M0,0 L1,4 L-2,11 L-4,10 L-3,6 Z " fill="#E1EEF6" transform="translate(429,476)"/>
<path d="M0,0 L4,2 L4,4 L9,5 L8,7 L7,6 L0,6 L0,2 Z " fill="#B6BABD" transform="translate(479,435)"/>
<path d="M0,0 L3,0 L3,3 L-1,4 L-4,5 L-4,1 Z " fill="#CFD3D6" transform="translate(244,421)"/>
<path d="M0,0 L3,1 L6,1 L6,3 L-1,4 L-3,2 Z " fill="#B4B8BB" transform="translate(506,408)"/>
<path d="M0,0 L2,1 L0,8 L-3,11 L-2,5 Z " fill="#A8B6C0" transform="translate(823,399)"/>
<path d="M0,0 L4,5 L3,8 L1,8 L0,4 L-2,3 Z " fill="#CCD3D9" transform="translate(694,376)"/>
<path d="M0,0 L4,2 L3,7 L0,6 L-1,1 Z " fill="#C5C8CB" transform="translate(443,375)"/>
<path d="M0,0 L1,2 L-1,5 L-3,5 L-5,9 L-7,9 L-5,5 Z " fill="#9DA7AF" transform="translate(507,366)"/>
<path d="M0,0 L2,1 L0,4 L-8,5 L-10,3 Z " fill="#E2F0F6" transform="translate(646,859)"/>
<path d="M0,0 L5,1 L8,4 L8,7 L0,1 Z " fill="#A5B7C2" transform="translate(807,840)"/>
<path d="M0,0 L1,2 L3,2 L3,5 L-1,6 L-3,3 Z " fill="#B6C5CE" transform="translate(807,835)"/>
<path d="M0,0 L8,1 L8,3 L0,3 Z " fill="#C9CED3" transform="translate(232,817)"/>
<path d="M0,0 L4,2 L8,4 L8,6 L2,6 L3,3 L0,2 Z " fill="#E1F0F9" transform="translate(265,809)"/>
<path d="M0,0 L2,1 L-1,4 L-3,4 L-3,6 L-5,6 L-5,8 L-7,8 L-5,4 Z " fill="#DFEEF7" transform="translate(314,803)"/>
<path d="M0,0 L2,3 L1,5 L3,6 L1,9 L-1,9 L-1,2 Z " fill="#A7B1B7" transform="translate(352,777)"/>
<path d="M0,0 L2,3 L1,6 L-4,5 L-3,1 Z " fill="#B4B9BE" transform="translate(271,778)"/>
<path d="M0,0 L3,0 L1,5 L-4,5 L-4,3 L0,2 Z " fill="#C2C5C7" transform="translate(772,765)"/>
<path d="M0,0 L6,1 L5,3 L3,3 L4,7 L1,7 Z " fill="#CBD0D4" transform="translate(284,752)"/>
<path d="M0,0 L2,4 L2,12 L0,8 L-2,6 Z " fill="#C2C6CA" transform="translate(952,725)"/>
<path d="M0,0 L3,3 L5,4 L4,8 L2,8 L2,5 L-1,4 Z " fill="#A9AEB2" transform="translate(480,626)"/>
<path d="M0,0 L1,4 L1,6 L-2,7 L-4,1 Z " fill="#ACB0B3" transform="translate(594,610)"/>
<path d="M0,0 L5,0 L4,5 L-1,6 Z " fill="#A8AAAD" transform="translate(601,589)"/>
<path d="M0,0 L2,2 L1,9 L-2,6 L-1,3 Z " fill="#ACB3BB" transform="translate(517,512)"/>
<path d="M0,0 L1,3 L4,4 L3,8 L0,8 L-1,4 Z " fill="#CBD2D7" transform="translate(792,489)"/>
<path d="M0,0 L10,2 L10,3 L0,4 Z " fill="#B6B7B8" transform="translate(686,487)"/>
<path d="M0,0 L2,4 L0,8 L-3,7 L-1,7 L-1,5 L-3,4 Z " fill="#ADB7BD" transform="translate(355,475)"/>
<path d="M0,0 L4,0 L3,3 L-4,4 L-4,2 Z " fill="#B6B7B9" transform="translate(666,472)"/>
<path d="M0,0 L1,2 L-4,12 L-5,10 L-2,3 Z " fill="#BBC6CE" transform="translate(788,448)"/>
<path d="M0,0 L5,0 L5,4 L4,6 L1,5 L2,2 Z " fill="#C1CAD0" transform="translate(543,442)"/>
<path d="M0,0 L3,0 L1,6 L-2,9 Z " fill="#BCC9D1" transform="translate(792,436)"/>
<path d="M0,0 L2,0 L7,6 L2,7 L0,5 Z " fill="#C8CDD1" transform="translate(582,377)"/>
<path d="M0,0 L4,1 L7,1 L6,5 L-1,3 Z M2,4 Z " fill="#C1C8CD" transform="translate(240,380)"/>
<path d="M0,0 L4,1 L4,3 L-1,6 L-3,5 L-2,1 Z " fill="#CDD1D5" transform="translate(665,348)"/>
<path d="M0,0 L5,5 L0,4 L-2,5 L-4,3 Z " fill="#B7BBBE" transform="translate(469,347)"/>
<path d="M0,0 L4,1 L5,5 L-1,4 L-2,1 Z " fill="#C2C9CF" transform="translate(436,324)"/>
<path d="M0,0 L6,2 L5,5 L-1,3 Z " fill="#C8CCCE" transform="translate(417,315)"/>
<path d="M0,0 L2,1 L1,6 L-3,8 L-3,4 L-1,4 Z " fill="#DBE8F0" transform="translate(210,841)"/>
<path d="M0,0 L2,1 L1,3 L3,4 L-1,7 L-2,2 L0,2 Z " fill="#B0BAC2" transform="translate(388,819)"/>
<path d="M0,0 L2,0 L0,5 L-4,9 L-3,5 Z " fill="#DDEEF8" transform="translate(332,816)"/>
<path d="M0,0 L4,0 L3,4 L-3,5 L-1,1 Z " fill="#D1E0E9" transform="translate(316,799)"/>
<path d="M0,0 Z M-2,1 L0,2 L0,5 L2,7 L-4,6 L-4,3 Z " fill="#C5C9CC" transform="translate(276,783)"/>
<path d="M0,0 L2,0 L3,6 L1,7 L-1,6 L-1,1 Z " fill="#C2C6C9" transform="translate(206,778)"/>
<path d="M0,0 L2,1 L3,2 L2,5 L-2,6 L-3,2 Z " fill="#A8B4BC" transform="translate(227,737)"/>
<path d="M0,0 L3,0 L3,2 L5,2 L4,5 L0,4 Z " fill="#B8B9BB" transform="translate(381,724)"/>
<path d="M0,0 L1,4 L1,9 L-3,11 L-1,3 Z " fill="#A0A8AA" transform="translate(587,607)"/>
<path d="M0,0 L5,1 L4,4 L1,3 L-3,4 L-2,2 L0,2 Z " fill="#C3C7CA" transform="translate(683,605)"/>
<path d="M0,0 L2,4 L4,7 L-2,7 L-1,2 Z " fill="#A8ADAF" transform="translate(399,597)"/>
<path d="M0,0 L8,1 L8,3 L0,3 Z " fill="#C1C2C3" transform="translate(864,572)"/>
<path d="M0,0 L2,0 L2,6 L0,7 L-4,6 L-3,3 L0,4 Z " fill="#B7BBC0" transform="translate(405,553)"/>
<path d="M0,0 L2,2 L0,7 L3,7 L3,9 L-1,10 L-1,1 Z " fill="#A1A9AF" transform="translate(608,535)"/>
<path d="M0,0 L4,0 L6,4 L4,5 L4,3 L-2,3 L-3,1 Z " fill="#B4BBC1" transform="translate(331,529)"/>
<path d="M0,0 L1,2 L0,10 L-3,13 L-2,5 Z " fill="#B6BABE" transform="translate(784,521)"/>
<path d="M0,0 L1,4 L-2,13 L-3,13 L-3,7 Z " fill="#A2ADB4" transform="translate(371,480)"/>
<path d="M0,0 L3,1 L3,5 L0,6 L0,4 L-2,4 L-2,1 Z " fill="#B5B7B8" transform="translate(656,479)"/>
<path d="M0,0 L1,3 L0,7 L-2,8 L-3,4 Z " fill="#E6F2F7" transform="translate(811,408)"/>
<path d="M0,0 L3,1 L2,3 L4,4 L0,6 L-1,1 Z M4,2 Z " fill="#CFD1D1" transform="translate(425,356)"/>
<path d="M0,0 L5,1 L5,4 L4,7 L0,3 Z " fill="#E6F3F3" transform="translate(479,351)"/>
<path d="M0,0 L4,1 L1,2 L-2,5 L-4,2 Z M-5,3 Z M-7,4 L-5,5 Z " fill="#B6BBBF" transform="translate(851,335)"/>
<path d="M0,0 L2,2 L1,4 L3,5 L-2,7 L-3,4 L-1,4 Z " fill="#CFD1D4" transform="translate(319,869)"/>
<path d="M0,0 L6,2 L4,6 L1,5 L2,4 L0,3 Z " fill="#C8CDD2" transform="translate(612,858)"/>
<path d="M0,0 L8,1 L7,3 L-2,3 L-2,1 Z " fill="#B5B9BC" transform="translate(233,766)"/>
<path d="M0,0 L1,0 L1,8 L0,6 L-2,6 L-2,1 Z " fill="#CACFD2" transform="translate(322,762)"/>
<path d="M0,0 L4,1 L4,4 L0,5 L-1,1 Z " fill="#ACB1B5" transform="translate(213,762)"/>
<path d="M0,0 L1,0 L1,5 L4,6 L1,10 L0,9 Z " fill="#B8C4CC" transform="translate(565,716)"/>
<path d="M0,0 L1,2 L4,2 L5,6 L2,6 L2,4 L-2,3 L-1,1 Z " fill="#ADB1B4" transform="translate(627,715)"/>
<path d="M0,0 L3,1 L3,7 L0,6 L-1,1 Z " fill="#B1B5B8" transform="translate(614,698)"/>
<path d="M0,0 L2,0 L2,5 L-2,6 L-1,1 Z " fill="#ABACAD" transform="translate(483,619)"/>
<path d="M0,0 L2,3 L3,6 L-1,6 L-2,1 Z " fill="#A9AAAC" transform="translate(471,610)"/>
<path d="M0,0 L3,1 L1,2 L1,8 L-1,8 L-1,1 Z " fill="#9CA7B0" transform="translate(396,577)"/>
<path d="M0,0 L5,4 L7,5 L5,7 L2,6 L-1,1 Z " fill="#AFB1B4" transform="translate(438,572)"/>
<path d="M0,0 L6,2 L6,4 L3,4 L3,2 L1,2 L1,5 L-1,5 Z " fill="#A4A9AD" transform="translate(400,563)"/>
<path d="M0,0 L2,0 L2,5 L0,11 L-1,11 L-1,4 Z " fill="#E6F1FA" transform="translate(701,562)"/>
<path d="M0,0 L2,0 L2,2 L4,2 L4,4 L2,4 L2,6 L0,6 L-1,2 Z " fill="#C4C5C7" transform="translate(793,553)"/>
<path d="M0,0 L2,0 L3,6 L-2,5 Z " fill="#BEC2C5" transform="translate(629,533)"/>
<path d="M0,0 L2,0 L1,5 L-4,4 L-3,2 L0,2 Z M-2,5 L0,6 Z " fill="#C3C4C6" transform="translate(798,530)"/>
<path d="M0,0 L3,1 L3,4 L-1,5 L-1,2 Z " fill="#A6AFB5" transform="translate(337,527)"/>
<path d="M0,0 L1,3 L3,3 L3,5 L-3,7 L-1,2 Z " fill="#A6B3BC" transform="translate(359,468)"/>
<path d="M0,0 L3,0 L5,4 L-1,5 Z " fill="#B2BEC7" transform="translate(452,436)"/>
<path d="M0,0 L4,1 L4,4 L2,5 L-2,4 L-2,2 L0,2 Z " fill="#B3B7BA" transform="translate(505,435)"/>
<path d="M0,0 L3,2 L1,7 L-1,8 L-2,5 L0,5 L-1,2 Z " fill="#D9EAF5" transform="translate(451,431)"/>
<path d="M0,0 L1,4 L0,8 L-2,8 L-3,10 L-2,4 Z " fill="#B2BEC5" transform="translate(816,420)"/>
<path d="M0,0 L2,1 L0,10 L-1,10 L-1,1 Z " fill="#C0C9D0" transform="translate(285,417)"/>
<path d="M0,0 L3,0 L4,3 L3,4 L-3,4 L-2,2 L0,2 Z " fill="#BFC8D0" transform="translate(804,400)"/>
<path d="M0,0 L1,3 L-2,8 L-4,8 L-2,2 Z " fill="#B9C6CE" transform="translate(799,392)"/>
<path d="M0,0 L1,3 L-1,8 L-5,9 L-3,4 Z " fill="#DFEDF4" transform="translate(831,377)"/>
<path d="M0,0 L2,4 L0,7 L-2,7 L-3,3 L0,3 Z " fill="#D2D7D8" transform="translate(690,372)"/>
<path d="M0,0 L5,0 L2,1 L2,6 L-1,5 Z " fill="#BFC3C6" transform="translate(914,367)"/>
<path d="M0,0 L9,0 L10,2 L4,3 L4,1 Z " fill="#C1CAD1" transform="translate(375,342)"/>
<path d="M0,0 L3,1 L1,4 L3,5 L-1,5 L-2,7 L-3,4 L-1,4 Z " fill="#CCCDCF" transform="translate(393,323)"/>
<path d="M0,0 L8,0 L9,2 L1,3 Z " fill="#D9DCDE" transform="translate(575,325)"/>
<path d="M0,0 L4,0 L5,4 L1,5 Z " fill="#F6F7F5" transform="translate(288,320)"/>
<path d="M0,0 L2,0 L2,2 L4,3 L-5,5 L-4,3 L0,1 Z " fill="#CED6DB" transform="translate(638,856)"/>
<path d="M0,0 L2,0 L2,2 L5,3 L2,6 L0,6 L-1,3 Z " fill="#D9DCDF" transform="translate(627,854)"/>
<path d="M0,0 L2,1 L1,4 L-2,7 L-4,6 L-3,2 Z " fill="#BEC3C9" transform="translate(855,830)"/>
<path d="M0,0 L7,0 L5,1 L5,3 L0,3 Z " fill="#EAE5E3" transform="translate(310,832)"/>
<path d="M0,0 Z M-2,1 L0,1 L0,9 L-2,9 L-3,4 Z " fill="#CBD0D5" transform="translate(208,825)"/>
<path d="M0,0 L3,3 L1,7 L-1,5 Z " fill="#D9E9F4" transform="translate(777,803)"/>
<path d="M0,0 L4,1 L4,3 L-3,4 Z " fill="#CCD0D5" transform="translate(237,796)"/>
<path d="M0,0 L2,0 L2,2 L6,3 L3,4 L1,7 Z " fill="#B2B6B9" transform="translate(296,765)"/>
<path d="M0,0 L1,2 L-1,9 L-4,8 L-2,3 Z " fill="#D0DEE7" transform="translate(429,762)"/>
<path d="M0,0 L1,2 L0,6 L-3,7 L-2,3 Z M-4,7 Z M-5,8 Z " fill="#C5D8E5" transform="translate(444,738)"/>
<path d="M0,0 L3,1 L1,6 L-2,3 L-2,1 Z " fill="#A3ADB4" transform="translate(443,728)"/>
<path d="M0,0 L5,1 L0,5 L-3,4 L-3,2 Z " fill="#B8C2C9" transform="translate(248,724)"/>
<path d="M0,0 L2,1 L2,4 L4,6 L-1,7 Z " fill="#B4B8BB" transform="translate(630,698)"/>
<path d="M0,0 L2,3 L1,9 L-2,9 L-2,7 L0,7 L-1,3 Z " fill="#ABB7BE" transform="translate(458,693)"/>
<path d="M0,0 L5,0 L5,4 L0,3 Z " fill="#B3B7B9" transform="translate(453,683)"/>
<path d="M0,0 L1,2 L3,3 L1,8 L-1,5 Z " fill="#A2A8AE" transform="translate(574,662)"/>
<path d="M0,0 Z M-6,1 L0,1 L-1,4 L-7,4 Z " fill="#ABACAE" transform="translate(424,656)"/>
<path d="M0,0 L2,0 L2,4 L2,6 L-1,7 L-2,3 Z " fill="#B1B7BA" transform="translate(689,655)"/>
<path d="M0,0 L3,3 L5,4 L0,5 L-1,7 Z " fill="#9EA7AF" transform="translate(385,628)"/>
<path d="M0,0 L3,0 L3,5 L1,6 L-1,5 Z " fill="#D2D8DC" transform="translate(722,608)"/>
<path d="M0,0 L1,0 L1,5 L-2,8 L-2,6 L-4,5 L-2,5 L-1,1 Z " fill="#F2FAFD" transform="translate(388,602)"/>
<path d="M0,0 L3,1 L3,7 L-1,6 Z " fill="#C4CED4" transform="translate(699,553)"/>
<path d="M0,0 L2,2 L0,8 L-2,10 L-1,3 Z " fill="#C7D4DF" transform="translate(566,550)"/>
<path d="M0,0 L2,2 L3,8 L0,8 L-1,3 Z " fill="#B1B6BC" transform="translate(405,544)"/>
<path d="M0,0 L1,0 L2,9 L0,10 L-1,4 Z M2,6 Z " fill="#B0B6BE" transform="translate(606,538)"/>
<path d="M0,0 L6,2 L7,6 L3,4 Z " fill="#AFBEC6" transform="translate(253,521)"/>
<path d="M0,0 L1,3 L0,6 L2,7 L-2,9 L-1,1 Z " fill="#A4AFB8" transform="translate(422,498)"/>
<path d="M0,0 L4,4 L3,9 L1,8 Z " fill="#CFD3D7" transform="translate(789,499)"/>
<path d="M0,0 L3,1 L3,4 L-2,4 L-2,1 Z " fill="#C5CACE" transform="translate(290,488)"/>
<path d="M0,0 L2,1 L-1,6 L-4,7 L-2,1 Z " fill="#D7E6F2" transform="translate(564,417)"/>
<path d="M0,0 L2,4 L-1,7 L-1,5 L-3,5 L-1,1 Z " fill="#D5EAF6" transform="translate(459,420)"/>
<path d="M0,0 L2,0 L2,2 L0,2 L-2,8 L-3,8 L-3,2 Z " fill="#E9F4F7" transform="translate(793,398)"/>
<path d="M0,0 L3,2 L4,9 L1,7 Z " fill="#BCC6CD" transform="translate(699,391)"/>
<path d="M0,0 L3,1 L1,6 L-1,7 Z " fill="#B3BCC3" transform="translate(297,386)"/>
<path d="M0,0 L4,5 L1,8 L0,4 Z " fill="#D2D6D8" transform="translate(680,357)"/>
<path d="M0,0 Z M-2,1 L2,3 L-3,5 L-6,5 L-6,3 Z " fill="#C1CAD0" transform="translate(326,356)"/>
<path d="M0,0 L2,0 L2,2 L0,2 Z M-3,2 L1,3 L1,6 L3,7 L-1,6 Z " fill="#CACED1" transform="translate(550,349)"/>
<path d="M0,0 L3,0 L2,3 L-4,5 L-4,3 Z " fill="#A0B1BD" transform="translate(294,324)"/>
<path d="M0,0 L12,0 L8,2 L5,3 L0,1 Z " fill="#CBCED1" transform="translate(314,317)"/>
<path d="M0,0 L1,2 L6,0 L6,4 L-4,2 Z " fill="#E6EBF1" transform="translate(402,306)"/>
</svg>
